<mxfile host="app.diagrams.net" modified="2024-05-25T21:37:05.436Z" agent="Mozilla/5.0 (Windows NT 10.0; Win64; x64) AppleWebKit/537.36 (KHTML, like Gecko) Chrome/125.0.0.0 Safari/537.36" etag="LC_p5nm00vGs42lcaUdU" version="24.4.8" type="device">
  <diagram name="PÃ¡gina-1" id="cVIY3QSkdm6beK2OFJsB">
    <mxGraphModel dx="794" dy="458" grid="1" gridSize="10" guides="1" tooltips="1" connect="1" arrows="1" fold="1" page="1" pageScale="1" pageWidth="827" pageHeight="1169" math="0" shadow="0">
      <root>
        <mxCell id="0" />
        <mxCell id="1" parent="0" />
        <mxCell id="VaKh8GlIlF4_EEe9sB3t-1" value="&lt;span style=&quot;font-size: 14px;&quot;&gt;&lt;b&gt;Search Supermarkets and Products&lt;/b&gt;&lt;/span&gt;" style="ellipse;whiteSpace=wrap;html=1;aspect=fixed;" vertex="1" parent="1">
          <mxGeometry x="70" y="127.5" width="102.5" height="102.5" as="geometry" />
        </mxCell>
        <mxCell id="VaKh8GlIlF4_EEe9sB3t-2" value="&lt;span style=&quot;font-size: 14px;&quot;&gt;&lt;b&gt;Login/Sign in&lt;/b&gt;&lt;/span&gt;" style="ellipse;whiteSpace=wrap;html=1;aspect=fixed;" vertex="1" parent="1">
          <mxGeometry x="208.87" y="136.25" width="85" height="85" as="geometry" />
        </mxCell>
        <mxCell id="VaKh8GlIlF4_EEe9sB3t-3" value="&lt;span style=&quot;font-size: 14px;&quot;&gt;&lt;b&gt;See&amp;nbsp; Favourite Products&amp;nbsp;&lt;/b&gt;&lt;/span&gt;" style="ellipse;whiteSpace=wrap;html=1;aspect=fixed;align=center;" vertex="1" parent="1">
          <mxGeometry x="81.25" y="250" width="80" height="80" as="geometry" />
        </mxCell>
        <mxCell id="VaKh8GlIlF4_EEe9sB3t-4" value="&lt;span style=&quot;font-size: 14px;&quot;&gt;&lt;b&gt;Scan QR-Code&lt;/b&gt;&lt;/span&gt;" style="ellipse;whiteSpace=wrap;html=1;aspect=fixed;" vertex="1" parent="1">
          <mxGeometry x="150" y="330" width="70" height="70" as="geometry" />
        </mxCell>
        <mxCell id="VaKh8GlIlF4_EEe9sB3t-5" value="&lt;span style=&quot;font-size: 14px;&quot;&gt;&lt;b&gt;Display News and Statistics&lt;/b&gt;&lt;/span&gt;" style="ellipse;whiteSpace=wrap;html=1;aspect=fixed;" vertex="1" parent="1">
          <mxGeometry x="206.37" y="245" width="85" height="85" as="geometry" />
        </mxCell>
        <mxCell id="VaKh8GlIlF4_EEe9sB3t-7" value="&lt;b&gt;&lt;font style=&quot;font-size: 20px;&quot;&gt;Narrative Arc&lt;/font&gt;&lt;/b&gt;" style="text;html=1;align=center;verticalAlign=middle;resizable=0;points=[];autosize=1;strokeColor=none;fillColor=none;" vertex="1" parent="1">
          <mxGeometry x="110" y="420" width="150" height="40" as="geometry" />
        </mxCell>
        <mxCell id="VaKh8GlIlF4_EEe9sB3t-9" value="" style="shape=image;verticalLabelPosition=bottom;labelBackgroundColor=default;verticalAlign=top;aspect=fixed;imageAspect=0;image=data:image/png,iVBORw0KGgoAAAANSUhEUgAABLAAAAFPCAYAAABd3TekAAAAAXNSR0IArs4c6QAAIABJREFUeF7svXdsXml63n2x9957FXuvoljURyNN3eKx1+u1N/vFDpxFAsRZJDGCAPkjCYIAQQAHNjbxfi5xkt3Z2Z2iUe8kxSb23nvvvbfvu27Oq9XMakaURIovqfsAwoz4nvec5/mdl+Lh79z39Zhsb29vQzcloASUgBJQAkrgyBDo7h7GX//0c/R0jcDMzPTIzEsncvAEtra24OHpjP/nT95CfELYwQ9IR6AElIASUAJKQAm8NgRMVGC9NtdaJ6oElIASUAKvCQEKrL/566vY2jRBULDPazJrnearIDA2OoW5uXn84IdvqMB6FcD1HEpACSgBJaAElMBjAiqw9MOgBJSAElACSuCIEaDA+rv/9zp8fLxwPCseJiYmR2yGOp2DItDc3I2Gujb87u+fVoF1UBdBz6sElIASUAJK4DUloALrNb3wOm0loASUgBI4ugRUYB3da3vQM1OBddBXQM+vBJSAElACSuD1JaAC6/W99jpzJaAElIASOKIEVGAd0QtrBNNSgWUEF0GHoASUgBJQAkrgNSWgAus1vfA6bSWgBJSAEji6BF5WYM3NzWBwsB/Dw4NwdHRGQEAQXF3dYWFhcXShfcPMVldXMTExht6+bkxNjj/e08LKEi7ObggOCoWLiyssLCyfmw9D0RcX59HX1wMrKyt4eHjD3t4BZmZmz32s53nD6uoKNjbWYWlpDXNzM5iY7C7sXwXW81DWfZWAElACSkAJKIG9JKACay9p6rGUgBJQAkpACRgBgZcRWBQq7e3NuHf/BsrLS+DvH4TTp95AcnIGnJycX7s8rZWVZYyNjaKpqRaPyovR29v1mIGNrS18fPyRkpyB6Kh4+Pj4isR6nsyx9fU1DAz04vr1z+Dk7IrMjGxhbm1tvS+fJF7flZUVTEyMYnl5Cb6+/rC1td+1MFOBtS+XRQ+qBJSAElACSkAJ7IKACqxdQNJdlIASUAJKQAkcJgIvKrC2t7fBypyKihLcunUFE1PjsLK0xrHwKFy69D78/AJfqyosg8yrr6/G9MwUvL394O3l81j2LCwuSOVUdfUjxMcn49zZi/D09IGl5e4rsdbW1tDb24lPP/0QLq7uyMk+jeDgUFhb2+zLR47SqrOzDZ2drdja3kbW8Tx4eHipwNoX2npQJaAElIASUAJKYC8JqMDaS5p6LCWgBJSAElACRkDgRQXWxsYGpqenUFZWiLJHRfD09MbU1CS2tjbx7ju/g8jIGGlvex22HZm3jOLifNTUVsLPNwCpqccRGhoOU1O225lgcXEBbW3N+PzKR3BwdEZWZq6ILDs7+10jetUCa2FhHnV1VWhuqYepqRneOP+WiLndtixqBdauL63uqASUgBJQAkpACewxARVYewxUD6cElIASUAJK4KAJvJjA2pbWMlbnVNeUS/4VW+O6ezrQ1d2BvNyzSE5Kh5eXz5emxyolVm1NTo5jZmYawLa8bmVlA2dnF/ljyIaiFKL04X7z87PY3NyAqZk5bG1sJWPL1tYO5ubm8n7uy/Y9CjXuy1Y75jSxusnZ2VXaGQ3tejzO4uIixsdHpC2OG/elSOL5HRwcYWZmLiKOc+T5eRxHR6evbfnb3NzE4uIc7ty5jqbmeqlUopyi1DNsHOPMzBSqq8sxOzcDTw9vJCamfiH5trG+vo6ZmRnMzc9geWlnXMy54nhcXNxlDNzn6yqwdtr9ljE1NQFWe22sr8sxKBGdnFzg6LgzLwMv7k9WZEYOnC9fJ1dDhtn4+CgePSpCa1uTvJaXdxbhYZHCydzc4pntjyqwDvq7W8+vBJSAElACSuD1JaAC6/W99jpzJaAElIASOKIEXkRgUXZQ7BQW3kNPbyfc3NyRkZ6Dnp5O1NZVwMvLF8czc3DsWPRjyWEQUj09XcgvuIWqqkc7RE0Aby9fpKUex/HjudJWx1woSpXW1iZUVJagobEWS4sLsLG1Q0BAMHKzTyMiIlrkFCuc1tZW0dvXheLiAjQ21mJ6ehLmFhZwcXFDRvoJyYpyd/eUlsbZ2Rk0Nzfg5q3L6O/vlXOxoigsLALpaSeQkpIhYfSUQQynL3v0EO5unkhOToerq5uIm69uOwJrHvfu3UBtXRViYxIQn5ACP19/ET+UT6xgIreFhQVsbK7DwtwCdnYOMn4KNwa/V1SUobauEgMDPdjeBtzdPRAbk4jsnFPw8fYTWH19XV9qIQwKChXRxfP39vagqPgB2tqbMD83K/uHh0cgLTULSUlpIp44DlbPLSzMiUwrKS2QeVIsUl6FhIQjN+eMXFPyv3rtE5GSPEdMdALOnN7JOCOjZ1ViqcA6ov9o6LSUgBJQAkpACRwCAiqwDsFF0iEqASWgBJSAEngeAi8isNbXVzEw0I8rV38tVVIZGdlIiE/B+PgYamrLMTo6jMyMHKSmZj6uWmI7Giu2bt+5Ku+hIKGA4kaptLa6gqSkdERGxorwaW5pkMDy5eVl2NjYiOiheOHfKZeiouKQkpwuoeL9/T1oaW2QSjDmQVG2SEXT7AxsrKwRHBwmAsfS0krynKqqH0l1lY21LaxtrEWATU5OwMbGDqdOnUdQYOgXsmsafX3dUp3l5xcggocC6Ksb5RyPQSlXUpKPgcE+WNvYwtvTGwGBIUhJyYSvj99vVS3xfZRXPb1dqK+rwtLSohzf3MJcqspYicXXnV3cRKz5ePtiaGjgSwIrMDAYXPmQYfp19dVSlUYGJgA2Nimq5mFqaoKIiFjERMdLddXU9AQqKkrR1dUu76UoIzOyZX6Xu5sHAgNDYGNtg0flRejoaJWxZ2RmIykhVVaaZNXcTnvk128qsJ7nO1H3VQJKQAkoASWgBPaSgAqsvaSpx1ICSkAJKAElYAQEXkRgUYqwOufWnavS0nfhjbfBSiAKGFZAFRU9QExMPLKy8uDq6iFSZWiI1UzFuHv3msiuS5e+BU9PLxE17R2tInDYcsfjbG5t4MGDOzA3N5Oqn4SEFJFI8/NzaG9vwY1bl+Hm6o4TJ07B18cfdfWVaG6uFyGWnX0aQYEhWFpaQnd3u0gwVkElJqZgY2MTlVWlIrBYZZSYkCqVRMvLi6iseoSR4UFp62OV1/Pmd3EelEs1tRV48OCWCCXKIYqv7OxTMi8KMBdnNwlCd3FxwdbWtsypqqoMFZWlIph4fr6HxxsY6ENNTYW08KWmZCAmJgFzc7O4fPmjxyHu3Hd4eEDm1Nffi9yc04iLTRRelF+1tVVSFcdzZWbmIDQkHIODffj881/DxNRUKt8ox9hmyNZOhtBPTo3D1ydAMrw6OtpEDmoGlhF8s+oQlIASUAJKQAkogV0TUIG1a1S6oxJQAkpACSiBw0Hg+QXWtlRasf2sra0Jfv6BknnF9jRWPVEw3bx5WYQIK7CiouKlgqqlpQHlFSVYWJyXfKzUlJ3qLG4UPSsrS1Llw1Y2tqzl59+Gj48fkhLTJMPKkEs1OTWBsrKHUkFFwUIJ1dLSiPqGahFEDE8P8A+S/dkyyI2VQqy+oqBhSyBXTkxNOY7o6Hi4uLjCyspa8rjYTmhjYyvjelZ10dOuLufPVr6h4QEUFeWjqroMU5MTcm5TM1NYWlgiOChMWgJTkjOl6mlkZBi1teXo6GyTSi3Kt53xACury+jp7hA55ecbiNjYBJGBV69+8oXAOgVvb1+Rhi2tjbC0tEZsbDy8PH1k/My5mpgYR1t7s7QVspWQGVasVCssvIuAwGCcOX1BhBrnzHwwVmGxJZLXYnNzHQ0NtRrifji+lXWUSkAJKAEloASUwBMEVGDpx0EJKAEloASUwBEj8LwCi5Kjr68HRUX3sbG5iajIWKkaoqRilQ+re+7evY6Z2WnJlcrJPi3VTMyGqqwsgbOTq7TzRUTEPDUEnJKJrXgffvS/sLy0CBdXN8laMpGmOIgkm5qelHyprKyTOJF1UoLLmf1UWlooIsbN3UPaAHnu4OBQqUaizGGFGDOmbt+5hrGxYcmQZ/scWxcZQs9Ww5fdDO2EbKNkCPri0gK2NrcwNj4iVWuspoqOisPZs5ckx2t4aBAP8m/J+O1s7WFra/uV3LBFLK8sISszR+bL9sBr13YEVvaJk5Ltxeqth0X3pRKL8svK0kqmwbFsrG9gdW0VllaWeOP82yKwWJXGXDGuFHky77xcn6cJO12F8GU/Dfp+JaAElIASUAJK4KAIqMA6KPJ6XiWgBJSAElAC+0TgeQQWhQilBiUQ86+2t7al3Y0h7IYVAeekza9ZWvgoSC6++Z5U+NTXV6G8olSqqhIT0hAWduypAotteKyw4vEpVbj/zrF3BBY3VkqxUikuLhnHjkVhY2NdKrxKSgtlZb3FpUVsbmxKK6C/f6BUZIWGHpOVBBmWXltbKVVJY2OjIslMzcwQFBQiUi1Q3hMk++7lRjHX0FCDO3evY31tDXFxicjNPStth5RPTc11cHP1kFUHOb8nN7ZpMhQ+4liUVKix/Y8C60RWnlS+ibyTqrRlqVaztrL50vuZKebh6S2Vb5RkvD4dna0i0nJyTkv2lwqsvbzaeiwloASUgBJQAkrgoAmowDroK6DnVwJKQAkoASWwxwSeR2CxtYzVO8y4unLtY6mGsrO1g5n5byqkWOnEQHNuFEKXLr6P8PBItHe0SOseV/RLTEwT8fRVUcP39PZ2S6VWZVUZ4uOTpYrqaeHplFoUM4ZVAZn3xLbCjY01yW1i+DirndZWVxEUFCY5Xax4YjXW2tqajJ2rFXJFQgbLs2LKydlZWhJPn7og1WO7bSPknCmPKO22t7dEIrES7Mn5cQXC6ekpybSqqSmXY1+48C5GRgbR2FQn4zl5kgHyIb8t7ExNYGnBqirmYvU+DnHPysqFo4MT8gvuSEB+dFQ8UlLS4e7u9aVPiWGlRfKamJhAfX2lnJPVc3l5ZyUIXwXWHn9j6eGUgBJQAkpACSiBAyWgAutA8evJlYASUAJKQAnsPYHnEVgUP3V1rKQqljypuLgkWa3O7ImV+ba2NzE3O4uKyhJMTU1Ke172iTxMTk2KwDIxMZVKIMopgzRhZRfFz/Y2MDY2IpKnoPCO7HP2zEVZOc+QZ8V9KYy4Uczwz877mWG1w4ciiVlZO6HkVVJpRTHF43l5eUurI8/NdkhWlI2MDGFwqF/kGTOrKHUMqxY+TbJ99SqwNZECqampXoLTc/POwMfbXwTbkxtXX2RGGFcq5BgvXXpPVkpkcPrMzBQuvPGOrMLINsCd83KuO/PleCm5+vq6HgusEyfyJBS+tKwQbW3NUj3GiipWkBnG/Ru25GMqEq2pqQ4PH95DWHgEzp29JHllbNPkxuvAc+5wXJRsMQbk870X3ngL3t7+j/d91qdRVyF8FiF9XQkoASWgBJSAEtgvAiqw9ousHlcJKAEloASUwAER2K3AokShgCkouCOr0oWEHJMV7NiityOiduwR9+PKevn5t1BTWynVSOfPvSVSpq6OrXstSEhIRvaJ01INRXHCSqj+/l6sra/J1xbm53H3/nVpd2M2VXx8krTWUazMzk6LUOGqeL6+/nBxcZNQ8vGJUdknOChUhAzl1MzMNAof3pWKLI6VLYUUR8MjgwgLPSbvZ6YUK8vYVsfWyKnJSZw4cRKxsYlSCbUbgcXKr/7+bhQ+vIeeni6kpWYiOTlD2isNbCiGKPQqK8vQ198NRwdnZGeflPZHZn7VN9QgPi4ZycnpMk6+j1Vdg4MD6Opuh6+PH7y8fCTv6zerEJ6El5cvOjpapeJsdHQE589dkgo35lrRgU1OTkibIhlzJUSu1EgJdu3ap5IvxgD+4OBwyTBj5RxbLLu7O+XvFGGGlRCXVxZx6eK3EBAQ9Ljq7VkfWRVYzyKkrysBJaAElIASUAL7RUAF1n6R1eMqASWgBJSAEjggArsVWKy+Yrvb3XvXRZSwcocteU/LiuKqgqx84op/DDI/d/YtyZgaHOxHYdF9kSsR4VEimiiJGMrOAHLKpIhj0bIyYHl5MXr7emBtbY2YmHg42Dtik214U5PS/ubq4i7h8ZRQXA2xqbleKrjY+ufm6i5iiAKrp6cTW9tbyD5xSuQYV+urrHokrXpBgcEylq3tbfT398iKfZRElEg+3n4ikFixZGVlCUdHZ1lN8GlCaycgfkFWWeTqjJRyFHwMmt+pbDKRMSzMz6Gvvwf2dg4yztDQCJiZmaCxqR4lJQVSvUXJxD+mJiZSHdY/0CsSKTkpA9HRsfK1zz//1RerEJ4WocSvMcA+v+C2HJPZY2TAsXLFyKHhfqytriE9I0v4ck4P8m9jbm5GBJifb4Cw5/kpvMjC28dXVi2ktGTFWHdPBzIyshETnQBPT+8nqsS+/oOrAuuAvqn1tEpACSgBJaAElABUYOmHQAkoASWgBJTAESOwW4FFSdLa2oCKilKpsnrzzXfh5xcoUuerGyuauMofK4uqasqRnpaFhPgUyYXq7GzFw+IHaGyokSojShaGvCckpCAtLUtkCqUPRUp19SNUVT+SCiLKlW1sS1UWK4xSUzIRHh4hImVublba9xiGzlUQKZ7YOseNkisn+4wII8owHovVSo8eFUs1E8/Fai6Kq9iYBGRm5sDHx19a6SjcKOGY20Wp5erq9rXVR5wzZQ/PX11TLoHtzNV6UnixFTIv9xxiYxNEHHE83OYX5tDd3SHZYp1dbZifm5Xx85jePn44lXde2h8Z2E6JeP36Z3BydkVmRrYILDMzczlXTW2FVMjx/ykGydfJ2QXhoZFgXhZXWbS3d5RWxImJUWnVZNbY6NiwZIUxaywwMBipqVmIjo6Ds5MLlpeX8PDhfalkY6VZTs4Z5OacgYeH5zMrsVRgHbF/LHQ6SkAJKAEloAQOEQEVWIfoYulQlYASUAJKQAnshsBuBRYrsJgpxRYzShnKkJ1wdbYPfnmjfGE7GrOnKFzcPbzg6eElsosirKurTSqLpGQKkOomtquxHZHHZPbTxsaGZFOx+mhicgwb6+uyr7WNrVQo+fr4S/UXx8J2QbbnUQJNTo6BFWDcTExNJaMrNCRcxA1lFVsIR0eH0NXdgfm5mcf7sbWOx+QYKJYojyjGOE4G1XM1RBsbW5Fd37RR+FB8MWyduVZPbnasPDsWIxVMbNEzbIb2zJ6eDpFPFGEGAccWSYbhu7l5iJQiv97eLlhZWYl0M8yL12dqahytrU3SLrgzMRPY29nD09MHISFhsLNzkOu1I8c2pPWSuV8cJyvWeH3c3NylpZDnM+SEUfr19XXLuPwDghAUGCrVbM8KuVeBtZvvQN1HCSgBJaAElIAS2A8CKrD2g6oeUwkoASWgBJTAARLYrcA6wCHqqQ8pARVYh/TC6bCVgBJQAkpACRwBAiqwjsBF1CkoASWgBJSAEniSgAos/TzsFwEVWPtFVo+rBJSAElACSkAJPIuACqxnEdLXlYASUAJKQAkcMgIqsA7ZBTtEw1WBdYgulg5VCSgBJaAElMARI6AC64hdUJ2OElACSkAJKAEVWPoZ2C8CKrD2i6weVwkoASWgBJSAEngWARVYzyKkrysBJaAElIASOGQEVGAdsgt2iIarAusQXSwdqhJQAkpACSiBI0ZABdYRu6A6HSWgBJSAElACKrD0M7BfBFRg7RdZPa4SUAJKQAkoASXwLAIqsJ5FSF9XAkpACSgBJXDICKjAOmQX7BANVwXWIbpYOlQloASUgBJQAkeMgAqsI3ZBdTpKQAkoASWgBFRg6WdgvwiowNovsnpcJaAElIASUAJK4FkEVGA9i5C+rgSUgBJQAkrgkBHYC4G1vb2N9fV1rK6uYHV1FcC2UDAxMYW5uTmsrW1gYWEBU1NTo6LDcW9srGNtbRVmZuawtLSEqamZjHFzc0Pmwjlx4+tmZmYwMTGR/1paWsn/v8y2c36eZ0XGQU5PjsFwbO63tbWF9fU1GZeVlbWM52XP/zJj3817VWDthpLuowSUgBJQAkpACewHARVY+0FVj6kElIASUAJK4AAJ7IXAWllZRm9vNyorS9HUXCeyhZuVtTV8ffyRkZGDsNBw2NnZi9Qylm15eQnDwwNoaKyFl6cPoqJiYW/vIHJoZGQIdXWVqK2rAj2Vl5cvXF3cZE4e7l6IiIiBjY3NS02F0m9oqB+1tZXo6e1CRvoJREbGwtnZ5UtyipJrenoSnZ1tmJgYQ0JiKny8fWFhYflS59/vN6vA2m/CenwloASUgBJQAkrg6wiowNLPhhJQAkpACSiBI0bgZQXW/Pws+vv70N7eJIJlbHz0MSFWKtnY2MLDwwvR0fGIjUmEk5OzVGUZw0aBNTREgVUDLy8fREXGwd7eHpubm2hsqsWD/DsimJydXBEYGAxXVzepfvL08EZERLTM7WU2Vl41N9fj2o3PUF5ejHNnLuHMmQsID4+UijVgp8KLlVcDA/0oe/QQvT2duHjxPRForNgy5k0FljFfHR2bElACSkAJKIGjTUAF1tG+vjo7JaAElIASeA0JvIzAYqVVe3uzyJeFxQUcC4+SKia2wVG+LC0voaurHdeufQwnJ1dcuvg+IiNjpBLLGLbt7a0vWvhWRapx3Ftb25ienkJFZYlURiUnpyMyIgYuLq5SmcU2yL1qITQIrFu3r6K4JB+hIcdw7uxFHD+eK6KP51OBZQyfFB2DElACSkAJKAElcNgIqMA6bFdMx6sElIASUAJK4BkEXlRgMZdpbW0F5eWlKCsrREjoMSQmpCI4OFQEDwUWW9/Gx0dw+85VTE1PieA6npkDNzcPo70ubOsbGRnEo/JitLe34Py5S1I9xmqrvc6cMggsyqvq6nJsbG4Iw7zcs9JKaBB9WoFltB8XHZgSUAJKQAkoASVgpARUYBnphdFhKQEloASUgBJ4UQIvKrBYfbWysoSSkkKUlBYgPi4ZSUnpCAgI+lJYOyVNT08npmemYWdrh5CQMJibW2Bychx9fT3SBreyuiz7rK2twZoZUx7eiIqMhbu7h4SlGzbmQHV3d6C7uxMLi/NSNcVKpfCwSGnxs7a2fXxuBrOPjY2IhOof6AWFGzd3d0+pqPLzCxDRNjU1Ifldzs6uItaYMVVZVYqqqkfyGivGUpIzEBQUthOivrUJRwcneT/HxnbDubkZtLU1S7vh/PycjMHR0RkBAcHSDkgR9bQAe4PAqq6pQHdPB6wsraV10MPTGyfzzsH/i3N8k8DidVhcXEBvbxeamuqwvLIs87Szc5A2x8CAYNja2kmG1sBArzALC4uUr3FMbKPk11kt52DvCH//QJkXz8lKNPJ2cHCU62pra/+FnNzdp01bCHfHSfdSAkpACSgBJaAE9p6ACqy9Z6pHVAJKQAkoASVwoAReVGBRCFHAVFaWoajovkiasPBIBAWGiBxxcXGTQHRWLW1tbUprHv+f0oTCh7Ll3v2bIlr4entHi0gTZkx5e/lJG11cbCK8vX0kFH5ubg5d3W2orilHc1M95uZmYW5hARdnV8RRniWmIiiI57aXFf3Gx0elqqmislTkGM/L4zCPKy3tODIzc+Fg74Dunk7k599CSMgxkXCDQ/24d++GtA8uryzBzdVdxsL8Lh6Tss3PLwhZx3NlzjMzUyLJiorz0dvXicWFRZiamsjcmamVnX0KwcFhwuSrFVwGgdXQUIPpmSlERsRiYLBPhFtu9mnExSXBw8NTKtmeloFFEbiwMCcikHMtrywWIcVFIHn+hIQUpCRnimwbHR3Gw4f3RGBduPAufHz85f/59YKCO5ianhRJlZN9WqTg7OystIcWFN4TOZibcwZubu4iH3e7qcDaLSndTwkoASWgBJSAEthrAiqw9pqoHk8JKAEloASUwAETeFGBxWFTCFEOFRc/QFHxA5EwrOKhsKEIiYtLhJWVjYgS/jFkOs3MTKO2rhKXP/8IW5tbUuWUmJACJycXTEyOo7enC5NTE0hOSkNqaibY1ldRWYb+/m4RVGFhEXB0cMSqVFmNigzj8c+euSgSi5VDFFDMsaKwiotNgqOjI5aXl9HZ1Yb+gT5Z8Y+yjaHz9+/fkKqkE1kn5TisOqL4GhzsQ1ZWnryfKxFyDBRWrKzivpaWFqiuqURZ2UN5HyvBeH4Kp86udqkAY/B7Zkb2FxVfXw6vfyywGmuliion+5RUqtXVV8HM1BxpqZkisbgNDQ3+Voj76uqqzL2xsVauRWzcTkj+9tY2JiZGUV9fI0yjo+Pg6OiEgoK7WFpaxMlT5xFxLFqqvXj9rl77RKQig+HPnnlTqtRGRoZlFcbWtiZERcXJfO3sWLXF9tDdbSqwdsdJ91ICSkAJKAEloAT2noAKrL1nqkdUAkpACSgBJXCgBF5GYHHg8/PzGBjoAauIKqpKpZWOUopVOz4+flJ55O8fhOioeISHH4OFhaVU99TUVuDK1V/D3c0TJ7LykJScLvLL0I7HtkRvb18kxKdIpVVJST5WVlaQmpIpwsve3lHEFlv+Ch/excBAH2JjE0WETUyM7wTLL8wjPiFFRBAzrNiiODw8JK1+HBu/1j/QIxVXFFjMnqLooRQrryhGV2cbLlx4RwTO7NysVDCx9ZECKzMzB+traygtLUR9fbWItsTEVKlsYlvh6OgQxifGYGpiKpVNzs7OMDH5svx5UmAtLS3hzOk3pKWypaUBbCsMDgpFWloWPD29MDY29iWBFR4eJTKtuDhf5hkYGIKUlEwZP6vjOE4y6O3rlq+RW2NjHUZGh3AsPBKpqcflWnR0tKCoJF9aHyn0sk+ckhUZ2ZJIibe5uSGVaazmenJlxN18aFVg7YaS7qMElIASUAJKQAnsBwEVWPtBVY+pBJSAElACSuAACbyswOLQDXlYVdXlKC0tQH9/r7QXskJqdWVF2tkofE6fugBfX3+phGJ1z607VxEflyTSxNvbTwQJ2wmHhgdw795NbG6sS7ueo5MTHj68D+ZaMY+Kfzf9QgZRYrW2NUq1E0VZ1vE8CY4vryhBcFAYEr4Iln9aADvbEFtaG3EZlvRGAAAgAElEQVT37rXnFljpaVmYmppERUUpRkYH8eab70oF1pOZXc+6rE8TWH5+gRgeGcS9uzckl4rVZlwJcXlpSebU29OJixffk5ZHSrKbt67IadgmSBnISjBulHWUVe0drbA0N8elS+/LeNkyyX0o61hN1dHZip7eThGRTo5O0ipJ4dbV3SECjBlabNFkZdnTcry+aY4qsJ71CdDXlYASUAJKQAkogf0ioAJrv8jqcZWAElACSkAJHBCBvRBYBonF/CW2wjHLilKLrXwNDdXIz78Daxsb5OWdQ07OGViYW6CxqVayl+Ljk5GZkftFvhLly7ZUQBUU3pXgcWcnFwlEv37jU3R2tsHF1U1ElwlMhJghi4tf5wqHGenZUnVUUV6C5OQMqRxiJddeCyxWNA0O9sv8KJq4WiGroJ4nI+q3BdYFBAWFSo4VK9m4OiFD2U+fPA8bGxs0NtU/FliBgaHo6+/GJ5/8Qloe2bZoZWX1eJ7kwkowBrDHxCTI+Pj31rZmjI0NIzf3LOGJ0GJm2MLCglRbeXp4ITQ0AkPD/airqxKGDNRnptnzrsKoAuuAvqn1tEpACSgBJaAElABUYOmHQAkoASWgBJTAESOwVwLraVjY8jc83I/ikgJ0d3VIKxurh5ycXNHW1iStf/HxKZIRxawoQ0bW+MQoCgvvSXugrY0tbO3sUVFRTN8irXBPVmAZzstAdbbaUXZVVz+Syqj0jBPSgujp6b3nAovtev19PWhqrpVqJ2ZHUWAZ5rCbj8nTBBbzw7jNzk5LMHxbe7NIJa5IODwyhIH+XmHIVsWOjlZcvvIrYcRKLVcXhqz/JmeLwsnG1hbubh7w8vIVuVhbW4Gm5npp29zY3MTw8KCsPEghyGwyZmT5+QdKe2JfX7cIx9CQcFkdEl9Iw93MjfuowNotKd1PCSgBJaAElIAS2GsCKrD2mqgeTwkoASWgBJTAARN4UYHFah5KDuZNUcSw7YzyyMzsyzlPKyvLaGtrQXn5Q9n30qVvycp6FDP3H9ySfCW2/TFsnfJle3tLVsZ7kH9bsp1YgcW2vJqacri5e+Cdt78r8mYnj+nLG99LaVb26KFUYMXEJEoFFtvr9roCKy31uASd19ZViGx64/zbEl7PXKndbl8nsMiBVVGtrU2orCqToHVPD2+srq1gcWEBb7/9bfj6BojAunr9EwQHhslqhyEhYbKK49M2VsRxxUKu4lj2qAghwWGSVba+sS5SkAKQrZstzQ2SDba+sSHtnCdPnkOAf9Bzhbcbzq8Ca7efBN1PCSgBJaAElIAS2GsCKrD2mqgeTwkoASWgBJTAARN4UYHFFfB6ejpQXV0umU2s6ImIiJVV8H6TlbQteVcULRQnszPTOH/+LWlHYxXQjZufISw0QjKw2LbGKh9KHVb+UGDZWNsgODgcpqYmsoKembk5zp97C8eORcHe3l4qsijSKLrYtsgAdMqfxqY6qdhycnRGYmIaIiNjYWZmKvszR4tVRsx/4v8z6+nevevPnYHFVQzZdvfo0UNp4Tt79qKcxzAutvRR3nE+zACjhPtqhtQ3CaydFsxJ1NVX486dq1hYXJCWPzdXd7z//u+KLGNw/c2bl0WaMaw+KSlNgvB5HnJZWlrA2tq6SEUKKrZnNrc0oLDwLubm5oQVRVhe3lk4Ozmjp6cL+fm3dyrf7HZWe+Rqkl5e3s9dfcWPtQqsA/7m1tMrASWgBJSAEniNCajAeo0vvk5dCSgBJaAEjiaBFxVYOxVYkygrK0Jp2UNp32P+VFxcosgaVjxRwrA6qaSkEGPjI/Dy9EV6+nGYm1uirr4Kn13+pYikjPQsnDx5Hq6u7hgbHUZ9Q43kL8VEx8kqfAxqzy+4I8KGK/Ox2oirCHKbn5/Fo0fFUrXF1QIjIqIle6uiskREWEJ8Kk6cyIWVla1Ud/X19YjgcnRwhLu7FxaXFvDgwc3nFlisGjMxgcytsrJU5k1ZxhB2nmdycgLt7c0y5pTUTISGsDrrNxlVHPs3CSy+ziqsgcF+FBTcllB7rtAYF5uE7373+zh2LFr+zvM3NNbA0ckFF954GwH+gVKFxYD6urpqjI4NwdHBGekZWXB2csXgYJ+0Z96+exX2dg7IzT0j4frOzq7o7m7H1aufCDtfvwC8984HSExMkcq6F9lUYL0INX2PElACSkAJKAElsBcEVGDtBUU9hhJQAkpACSgBIyLwogKLIeEULFxxsLGxFgODffJ3VgOxAoiZStvYlpna2trBx9sPISHhIp7Y5ldfX4Vr1z+VzCjmX1laWcHSwgKbm1siv5jbFBuXKBVarGZigHtTU52ch2HlhtX+WHm1ubEJd3dPqUAKCgqTcbAqinlPs3MzUmn0ZLg6q5FYxeXm6omJyTHcv3/juQXWiRMnJXuK56mvr8bY+KgEylswg8rERBhQWHFuiQkpMu+vBrw/S2CR3eLivLQSfn7l11ItFhIUim9/+3uIiIiR8/X396CyskzC2C0tLYU1Q/K3trckm8vd3QPHwqMQGRkjlWBTU1OSEfbhL/9eKuHefPM9pKZkSNg7Q+nv3b+BoqJ8BAYG4Xe++wPhuZN/9fybCqznZ6bvUAJKQAkoASWgBPaGgAqsveGoR1ECSkAJKAElYDQEXlRgGSawU2U1I7KovKIY7e0tUnll2NhSeO7sJVnNjjKFFVfcn9Lr/oOb8PLykV1ZkbWyvCyrEUZFxUtbm7/fTjURK5pYhdXZ2YrikkJ5L6uPuFFkMVA963guQkOPSRvhjvhZEPFTVPxAZBllDzcKmZN5ZxEXnyzCrK+vV8bNIPOkxDRptWMFV3NzvQid48dzZGVAHq+mtlLG7uXpjcTEVJFFbKUcHhlAYcFdaYtk+x3nyHlxnxMn8uDu5vXUzC4KJuZbdXW3Y3VlBampmSK6ngyCZw4Vz1leXoKOzhaZH1dzDAwIFllIgcfWP87h0aMiGSc3OzsHkVZcmZGrEO6sUGgqKxxylca7d69LvlhmZo7MncdliDslIedOIZidcwouzgzX/3Ku2W4/vCqwdktK91MCSkAJKAEloAT2moAKrL0mqsdTAkpACSgBJXDABF5WYHH4bCdkpdD8/ByWlpYka8mwsfrJ2dlNsqEMFUgUJY1NtSgouIPoqDhEx8TD1MRMWvIYzk4x5PRFeLshfJ0CiplSbI1j29/mxoacwsTUVHKfuMIhZZchZ4pj4v6swGLwuWFMVtY2Im54Dh57bW1FMrQowiivKJ9Y8bW8vCgVTKxM4muUcpRDG5sbsLSwhJ2dnezLcXE/tkoyW4tCicelXGLFE9vvyOBpIfI7c1qRcVLS7WRlMQTe5IlPxbbwnZ+fl/2YB8Zjcq48Jo/BSi6+znbKzc0dLqbMvbK1g4ODE2xtbUVeceM8uD+lGEWZg8Nv8rl25r0kc2ebp6Ojo+zztLHv5mOrAms3lHQfJaAElIASUAJKYD8IqMDaD6p6TCWgBJSAElACB0hgLwTW8wyfwsUgsBgmHh+fgsyMbGm1e7Ly6HmOqfsaJwEVWMZ5XXRUSkAJKAEloAReBwIqsF6Hq6xzVAJKQAkogdeKAAXW3/71NanoiYwO3ve5U2AtzM+io7MZVdUliDgWi7jYVKm4YtWQbkeHwGDfKIZHxvH9PzyH+ISwozMxnYkSUAJHjsD09DwG+sdl5Vbd9o4Aq4Z9fNzh5e0qVdbPs7FFn9XFk5OTmJ2dlZV/+TVWJev2agmwup1RBKzodnZ2hpubm1Rw29jsxDYY66YCy1ivjI5LCSgBJaAElMALEhjoH8Mv/u9djAxPw8rK4gWP8nxvW11dxtT0EAaHOuDu5gcvrxBYW7HN7Tnvbp/vtLr3Kyawvr4BB0dbfPB7pxEZFfiKz66nUwJKQAnsnkBVZRs+/bgQqyvrMDfXhym7J/f1e25ubUm7/7k30nH+Qrq0wO9mY6s74wiGhobQ3t6O5uZm9PT0YHR0FHNzc9K2r9urJcB4B0ZBeHp6IigoCJGRkYiIiEBAQIB8/UWzMvd7Fiqw9puwHl8JKAEloASUwCsmsLS0ir7eUSwuLr+yM29vbWJtfRWrq4uwsLCGlZUtTJnRpALrlV2DV3UiaytLBAR5wdHR9lWdUs+jBJSAEnhuAiXFDfj4o0KEhvrDw8v1ud+vb/htArMz86irbcepM4l471s5jzMqn8VqcXERRUVFKCgoQF9fH7y8vODr6wt3d/cv8jRfPJvxWefW13+bACvnWfVGqchqOIrFgYEBuS4nTpzA6dOn4eLiYpToVGAZ5WXRQSkBJaAElIASUAJKQAkoASWgBJTAixKgwPr8sxJkHk9AcLDvix5G3/cEgdHRKdy9XYrjJ6J3LbAoSMrLy1FWVoaJiQmRVjExMQgPDxeJxfY1LnaiFduv7qNGgcWVoFn9NjIygs7OTjQ2NkpFHBe0SU9Plz/+/v6vblC7PJMKrF2C0t2UgBJQAkpACSgBJaAElIASUAJK4HAQUIG199fpeQQWJQkFSU1NDT777DOp1qIUyc7OluoetrCxTY1fV3m199fqWUfk9TFUYlFmsUru0aNHePjwoeSUnT9/Hrm5uXBycjKqdkIVWM+6svq6ElACSkAJKAEloASUgBJQAkpACRwqAiqw9v5yPY/AYjg7ZUh+fj6Wl5dx6tQpZGRkiLwyNzff+8HpEV+KAHPKZmZm0NDQgBs3bsixKBzPnj0r4e7GIhlVYL3UZdY3KwEloASUgBJQAkpACSgBJaAElICxEVCBtfdXZLcCi6HszFX65S9/Ka1pb731FnJycqRlUDfjJjA1NYWSkhJcv35d2gn/8A//EGFhYbC2tjaKgavAMorLoINQAkpACSgBJaAElIASUAJKQAkogb0i8CICa319DXNzsxgbH4W5mTmcnV3kD9vdgN2tuLdX4zfG4+xWYM3Ozkru1eeff46NjQ38y3/5LxEcHLzr0HdjnPvrMia2FY6Pj+OnP/0puru78d5770nbp4eHh1EgUIFlFJdBB6EElIASUAJKQAkoASWgBJSAElACe0Xg+QUWf3EfQ3V1OW7cvAwbGxtkpGfjxImTcHV1g5mZtr3tVmBxRbuPPvoIY2NjiIyMxDvvvAM3N7e9urR6nH0msLCwgNu3b4uEZPvgd77zHUREROzzWXd3eBVYu+OkeykBJaAElIASUAJKQAkoASWgBJTAISHwvAKLlSdtbc0oKrqP0keFYIZTbEwiLl18H6Ghx2Bra3dIZr5/w9ytwGpra8Nf/MVfwNPTExcvXpRVB9mOptvhIMAW0NbWVty7dw/Nzc344z/+Y6SmphrF4FVgGcVl0EEoASWgBJSAElACSkAJKAEloASUwF4ReB6BRXnFVrfy8iKUlj3EysoyJqcmYW9nj5zs00hOToe7u+deDe3QHme3Aqu+vh7//t//ewlt/+EPfwhXV9cv2jAP7dRfq4Fvbm5ienoaV65cweXLl/Fnf/ZnkmFmDJsKLGO4CjoGJaAElIASUAJKQAkoASWgBJSAEtgzAs8jsDY3NzA3N4P8/DtoaqpHTEwCpmemMDk5Bi8vX5FYwcFhX1qJjdJra2sTi4uLWFpaxMbGOvg1thoy8Nre3lGkDVdv49dZ1cL9FpcWsL21JfM0N7eAvb0DrK1tnhA821L9tbi4gOWVZWxtbkp2lKWllexrZWX9OEtqR7ytY2FhXqQbJRzPx+Pa2trC1tYeZmZm8jWuMreysoLFxZ19DRuPZzgu9/2mbbcCq6qqCv/m3/wbXLhwAf/sn/2zxxz27OLqgfaVgEHofvzxx/jZz36GP//zP8eZM2f29Zy7PbgKrN2S0v2UgBJQAkpACSgBJaAElIASUAJK4FAQeB6Btby8hI6OFpSUFGJqegJnz1wEv9ba2iih7mfOvInY2ARYWFg9llisUqH0Kit7iIrKUoyMDGF9fR1ubu6IjopD3slz8PXxh4WFJRgO39vbjUflxVLltbS0JAw9PDyRl3cOiQmp8PLyAbBTCdbV1Y6S0kI0NNTKOSijQkKOISfnFGJjEmBpaS3j4PlGRgdRkH8XTc31Itwo0Ly9fZGclI6srFw4OzO/y0yEWGtbEx4+vI/GxtrH1/DYsWjk5Z5BdHQ8HBwc90RgVVZW4ic/+YlkX/2Lf/EvviT+DsWHRwcp0vVXv/oV/uqv/gr/9t/+W5w7d84oqKjAMorLoINQAkpACSgBJaAElIASUAJKQAkogb0isFuBtb29Je1SpWUFaG9rgY2NLc6ffwumpiaora1CQ0MNjh/PRVJSuqxIyGooVmxNTk6gvr4azc31mJqZgpWVFUxNTLC2vg4rSyup4oqLTYSbmweGhwdQWVWGzq52rK2uyb4UYBubG3B0dEJaahbi45JE9FBe9fR0YGJiDAuLC3IuroDIVRE9vbwRERGNyIgYyeSiNOP5OzpaZV8KMIoHVnB5enojJSUDUZFxIrUGBnpFng0PD2JtfQ2mZmZYW1mFuYU5/P0CkZ19Cv7+QVLh9XXbbiuwnhRYbD/T7XASoMD6y7/8SxVYh/Py6aiVgBJQAkpACSgBYyTAJ9Bs4VheXpabdv7hE2z+csA/vJnnLwX8pYNPofmHbR38BYJ/uNIU2z3Mzc31KbExXmAdkxJQAkrgBQjsVmCxBW94ZBC3b1+VVrxj4VHIzMyRnw2NjXXIL7iDwIBgEVjBwaHSnsfqrLa2JnmPtY0tEuKTERubKK2Avb1daGltlKorVjV5enihquoRamor4eziglMn34CPt5+83tPThfKKEgQFhYjA4lgePLgtrYNJiWmIiIiCnZ2DtP21tjWjtrYCVpbWOH36Ary9faSSqrKyTGQVhVlQUCjW1lbR3NKAkZFhEW5JianyM5Eirry8GDEx8SLk2JLI+TK4vn+gFynJGQgJCZPz8Wfm07bXXWDxnmJpaRmzs7PC1NXVRUSiufk3t14a2jfn5ti+uQInJycJtbe0tHiBT/are4sKrFfHWs+kBJSAElACSkAJHFECFFKGfAbeTI6Pj8tqOd3d3RgcHJRlu/k0nctAU2ZxH96MW1payi8kjo6Ospy3l5cX/Pz8EBwcjICAAAmZ5T4GyXVE8em0lIASUAKvBYHdCqylpQV0dXXgxq3LcHN1x4mskyKU2KbX29uJ/IK70sYXHUXxkwM7O3tMTEygoaFa2gfj4pOQmZEDV1d3eRBCucWfP5tbG7C2ssHU1AQKCu6I8IiIiEFSUppkTvHnGPedmZn+ItfKBH19PSgtK5TXT5w4CQ93T5ibW2JjY00qsoqK8+V4bDlk619LawPKyooQHBSCxMQ0WS2R2+rqilSCmZuZSVsgq64o0erqKmU/VltRtvHBDvOw+LOS+/FnJKu1vm47CIFleBhleCBlGBt/rpvwwdQXD6fk718j3vbqA8+HZc3NLSh4WITp6Rm8eeENxMZEw9nZ6RtPQb5dXd0oLi1Dd3cPcnOykZSYAE9Pj30f88vMXQXWy9DT9yoBJaAElIASUAJKQG7MV0VaNTU1ibgaHR2VXwz4iwMrq/hfg4R68mbWIL4MN8N8D6u3GKzLCix/f3+Eh4fj2LFj8PX1lePopgSUgBJQAoeTwG4FFsUQK5lYCRUeHoncnLNwdnYWkTM+PorKylLJrmJ73ZsX3pHVCIeGBkUGdXa1ITMjG6mpx+UBiImJ6ROwdoLb2ztacOf2NcmlYhVXSEi47PvVbXp6EtXV5bh1+wrm5+cQEBAkVVKshdoGpLKqv78XNrY2OJV3Hikpx6WFsKjovrQHWtvYSOC8r68/4uOTpWqM1WL8OTg5OS5zvP/gpozJyclZJFlMdAIiI2OkguubxJVhrK9aYLFyqX9gAI1NLWhra3+cHUbxZmNjDQ93dwQGBiAsNEQeQrGqej+3ubk5VFbX4Pr1m5iYnMTvffBdpKakwM3N9RtPu7yygsamZty5cxctrW146+KbyMo6Dj9fHxVYz3nBNAPrOYHp7kpACSgBJaAElMDBEKBsmpqaQk9PD9ra2tDc3IyOjg5ZWSk0NFTkU2BgoMgnd3d3qbTi02Te6BpWgOLT05mZGRFgQ0ND6O3tRXt7u/yd5fysxIqOjpY/Pj4+8ksM5ZZuSkAJKAElcLgI7EZg8YFGd3c7SkoKpEWP0iguLgmWFpRRJiJMeno7UVxSAD9ff7z/3u+KgBoaGkBtXSXGx0dEYCUkpP1WG/pOFtWKZFTdvHVF5Fh6WhZ8fQOeWHHwN0zHxkZQ+PAebt66jLGxUTg7uTz1QUpQUBhOnzqPuLhkqZ5iW+GD/NsYHRuGCUwkUys5OV2yr5i/xXB4Ptxhm2T+g9sS9j4yOiQPfsJDIxETmyBjY1ujs7Or/Nw0lhZCXp9HFZW4cuU67j94gNXVnQdOFhbmsLG1lRa+0OBgpKelIj4+Dv5+Ow+f9qsSi/cQ7R2dKK+okvbLvNxcHAsPg6Ojg/CcX1jA4uISsL0tQs3a2kruQSgNe3p7UVVdi8HBIWSkpyI6KkrE136NdS++W7UCay8o6jGUgBJQAkpACSiB144Aq65GRkZQUlKCgoICaRWMj49HQkICwsLC4OHhIas08am2oQqLN438Y7g55C8TX62+MmRmsR2kpaUF9fX10oJob2+P9PR0JCcnS4uhQYS9duB1wkpACSiBQ0rgWQJrJ5doSTKkrl3/FF3dHSKA+DDD8HND9lldwfT0FCKOReHSxW8hNTVT/l5XX4nh4SERWGwLNFQ7GXAZBBZXMqTA4iqCaanH4e8f+FSBNTjYj4cP76G1vRm+Pn6Sw+VgzzyqJ6u6IFVZO+1+tvIAh22Ic/NzWF5awMBgH0qK89E/0AczM1OEhkbgjfNvS2shK6wWFuZEek1OTaCpqQ7l5SUitlxd3KStMCM9W3KwTE2fnun0qiuwDALr+o1bqKysgo+PN0JDgmHJEPz1DfQPDsq9gYurK86dOY1Tebkihfargnrn87CKpcUlbG5tyvWxsrKUew1WZ9U1NKKtvUPC/E/m5cDfz0/uSwzB+kvLy1hfW5fPGOXWfo1zr75lVWDtFUk9jhJQAkpACSgBJfDaEOANI8XSvXv3pOKKcoltfnFxcVJxZWgbeJmnmAxVZRUWb4RZkcX2xL6+PqnsysvLQ1pamlR06aYElIASUAKHg8CzBBYrZnZypR5IhRVzpHx9AmBLgfXEFCmwGNg+NzsLP79AnD9/SQRPU1M9WlrqRTSlp5+Q9rWvthCycrizsw137l6Hm5s7EhPSEB4eIRLqq9vo6DBKSwvR0FiD4OAwvPHG23B1cZeW+N1slD3z87MSIj8yOoyurjaMj49JS2R8fJJkdFG0cOPDG869r79HKtDYimhhYYW01ExZuVBaF5+SJ3VQAuv27Z3Wu4yMNGRlZsDJ0Qnb2EJPTx8qKqukrS8pIR5vv3URMdFR8kDrVW68TxmfmMCdu/fR0NgEO1tbfOtb7yE8NGTf2xr3c54qsPaTrh5bCSgBJaAElIASOFIEeEPIcn1WRpWWlkrelaenp1RGpaSkiLhitdVeb8zUqqmpQX5+PiYnJ6UlMTc3Vyq+WOmlmxJQAkpACRg/gWcJLLb3tbe3oKKyVNrvzp+9hMjIWFlV7kl5s7S0iNraSmnvYybW++99ICKrr68bRUUPEM1V/TJz4O7uJRU1PC6D2bkv2/k2NjdQUpIvLWfhYVEiu1hBxWQrtigOjwxJxQ63wcE+FBc/gI2tPU6ePCcrInI8O6vfLUhl1framrQhMsOKuVkUUcy0cnX1gIODg+zL0PmKihKpLuOKgxRi3ObmZuHu7gFPT58vxNi2CLbKqjIRdAykT03JEJllTALrzp176Orpwfkzp3H2zOnHVVajY2MoKyvHzz/8CJ4eHnjzwnmcOHEcjg4OwnZqahqj4+OysMvK8gosrSxlBUBmZzFA3VZC682kQor3HLNzcxgfn5CQflZUbW1vw9nJSe4DPNzd5J5jamoGvX29YK7VsfBwONjby/Fr6+uRn1+Int4+EWhZxzPkIVigvx/8/P2k8ortg9Mz01LZ7eTkKO2GjDKg/PT29oKXp+fjfDTKz8nJKfT1D8iqlGEhIXB3d5PXl5dXMDY+Lg/eZmZnsbW5BQd7O7lH8fb2hp2d7a7F5zd9J6vAMv5/53SESkAJKAEloASUgJEQ4CpOlFaXL1+WmzTmUp07d06qrpiB8WR74F4OmTf/FGdsJSwsLERVVZVUfZ05c0bkGX9B2O0T8b0clx5LCSgBJaAEdk/gmwQWhQVlTnFJvqw0yKyo7BOn4O3t97hKyXCm9fU1sL3vxs3LInrevPAukpPSsbyyhPz8OyIf2KLn5xsocoGiihVNvX3diIqMkcwsthE2NNZK219KcgacnFzAMq+Z6Sm0tTfD3t5RKsD4OsfE1kQ/vwDExSbB2dlFMpQoqurqq2RYOdmnJay9ra0ZNTUVcHZxFUnl5emNra1NTE1PoauzTd6Td/Ic7Gzt0NXVjubmBvgHBCE6KlaqrChoenu60NXdDm8vH8TEJBplC+HXCSxmWlbX1OEXv/xIpNHJvFzk5WRLRhZFUn19A5pbWiUIfn5+Aba2DLr3QlREBFJTkxESHCz5VQZ5xRUGa2rrZKXAkZFRbG5tITDAH1lZmUhOSpTKr7r6Bnx2+XOMjU/gj37wfQmQ7+zqxtXrN1BbVy+rE3L1Rw8PdwQHBSE9PQ15udki0+7cvYuGxmZ859vvS6XY8PAwLn9+VQLpjx8/jrycEyLYKA9nZ+ekuuzuvQci1n7nu99CQlycSNK+/n4ZZ2trG4aGR2RBGjdXF0RGRiAzI13aLFk1bqi42/13zZf3VIH1ouT0fUpACSgBJaAElMBrRYC/XDQ2NuLXv/61PAlluyAFEkPWX0WoOs/PG0Keu66uDjdv3pRfUk6cOIFTp05pO+Fr9WnUySoBJXAYCXyTwOKKfgMDfbh6/RMsLS4iJ/uUrNzn6Oj8W1Ol3GAVVllZISZNmTwAACAASURBVIpLCiXMnVVUgYHB6OnpREVFKVraGjE3OyPVT6y6CgwMlVa8iGPRcHFxlYosrgJYVV2G9o5WbGysS96Wg4MTkhJTkZScjpDgcJibm0n7H1cjpCybmprAxvq6CBa2LbIVkDlVERExUsXFEPm6+mqUlRXtBLOvr4m0sLaxRSgzt9KOIyY6HtbWNhga6pcqMrY+TkyO7ciNbUhrI1cjzMo6hcDAINnX2ELcv05gURZV19TgFx9+BAdHB5w6mSerAg4MDKCgsEiEEiuo/Px8RVRRCvX29WF1ZfWLh2KnER0ZIYKQ+xY8LEJPTy+CAgNFQJED7wVY1RQXGw0Pdw9UVVfjF7/8lQiuf/qnf4KE+DiRY5RNJaVlGBgchI21DVJSkuQ4QYEBCA4OQm9vn8gqiqc/+P73RDTNzc/j008vSzVVbGwM3n/3bTkXK/J4/Ju376C2tg72Dg744Dvfhr+/nyxkk19YJAvRUHZ5ennK54PZoLMzcwgKDsSZUycRHRUp90svE6+gAusw/sunY1YCSkAJKAEloAReKQHeLDKH6uHDhyKPGNSenc0b9oh9aRl81uRY/cXgeAbI8+n6m2++KWPiCoW6KQEloASUgHES+CaBRYE0NTWJhoZaaR+LjIyBp6fXU7OpaHl2BMEAevu6JKw9wD8I3t6+WFpmm3sj2tubMT01Ke2Cjg5OCAgIRnxCMtxcPaRihnlbXGWwta0Rra1N0mbIjZVYFGeUTRRdHAvH1tvbjcbGGmkvNOxrZWmF+PgUREfHS8sgK4H52ugoJVYVhoYHsLy0KGLKzs4BIcFhiI1NhKurm4x5cXEBHR2tMobh4cHHF83Tw1taJyMioqQS7Ju2g8rA+qrA4uqDvCadnV0oKi7B/fwCRBwLl/ZCtkg+LCoWoUQWbOXjin9Ojo6YmZ2RCqrq6hrMzs3j4oU3kJN9Qiq2HuQXoKikVPLBLr75BiIjIiSgfWFhUV7n6sZcnbKyquqxwPrxn/4TpKUmy+emu6cHd+7eQ2tbu1Rqv3XpIkJDguSBl4W5BVpaWvHp5c8fCyxWZW1tbePW7TsoLXsksQjf/97vIiLimMjNzs5OfPzpZWkRZLXWubNn5HP0qLwC5eWVCAjwQ1xcLAIDArC9vYWW1naUV1SK2OK8Tp7MlVbJl6kYV4FlnP+26aiUgBJQAkpACSgBIyGwc5M/hitXroi8Yn7ExYsXRV69zE3Yy0yPN8lsU/j0009RXl4uWRjvvPMOoqKivgjtfTLu92XOpO9VAkpACSiBvSLwrAws/tvOiilu/PnyrHYr2X9rUwLeWQ3F/Z9c3ZYSgRsrXvgaV/178piG821ubjyeIvflfjz/k5UyOyvmboikeXKjDOP+T66uuyO9DPtuPzEGsy/NyzBWthg+eVwGz/P8Xx3D067DQQmsW7fvgu19KUmJSE9PFUFE0cT2QFZOzc3NS5te9oksTE1N4VcffyYV1Pza2bOn4e/rK9difX0DXd3duHv3Pm7fvYeM9DRceOOcZE8VFD4UObSxuSlZWxGREZI5JSscW1iIiGSlVXlFxW8E1j/9J8hMT5NKqJHRUVy5el1aBJ2dnfDB73wbx8LCYGVtjdWVFdTXN+KTzy4/FlinTubC2soajyoq8Olnn2N1dQ2//3sfIC01RdCz8upXn3wmx+LqinGxMSLs7hcUyn8p5qIiIyTigJ+94eFRGX/Zo3JcOH8Ob711UdobXyYrVAXWXv1rpMdRAkpACSgBJaAEjiQBhqYXFxfjzp07crP4R3/0R7LioI2NzYHOl1VhDFq9desWHjx4gPPnz0tLY1BQkNEvg32g4PTkSkAJKIEDIvAsgXVAwzrUpz0ogUUxRMHEyiSGn/P+gNtOxZsDjmdmIDfnhORbVVXV4P/8/EMRcj/4/vdEeLl8UTFNMciQdlZtXb5yTfKtWLUVGxOF9vZOkVqs0OI5mF8VHR2FmOhI+Pn6wcHBHszmpCQytBD++J/+ExzPSBeBNTo6hs+vXUdDQ5NIp9/9ne/gWHiYPOhaXl5GfUMjPvn0NwLr9MlcyTfr6e3Fx59+hr6+AZkDxdbmxiaKS8pw/0G+tBZevHBejllS+gjXb9xGQ1OjhMfb29uJ0DTEHszPz2NjYxOX3nwDF9+8gMjIY49D4V/kg6cC60Wo6XuUgBJQAkpACSiB14IAnyBzxcG/+7u/k6fJWVlZ0q7HG8OD3nhzyKe9DHRnqDxXN2IWFqvDDlquHTQbPb8SUAJKwBgJqMDa+6tyUALr2rUbIp2Y6cTVBm3tbCVQ3c3NFf5+viJ5KKMobwqLivAP//vnsLG1wZ/8Pz9CUlKCSC5urDxjmDpb9j67clWOxbwoVmJRMrW2taGpuQX9/QOYnJrC9taWZFIdP56BhLhYOX9l1W8ysF5WYHHVwKnpady4cRu1dXXw9vHGG+fOSiZXcXEpBoeG5dynT+ZJ9d+9+w9w/0GBSLioyEh4eXvCgjLvi1UsOUcrS0scOxaO8LAwyfFioPyLbiqwXpScvk8JKAEloASUgBI40gQoiNg6yOqrDz/8UOTVe++9J+16zJ0ylo15WKWlpRIuHx4ejt///d+Hv7+/UY3RWFjpOJSAElACB0lABdbe0z8ogXXz5m3UNTTI6oEMTWdelJubGzzc3eDi4ixtfqy4Yqh72aNH+F//+/+CrZE/+P7vISMjXSqw2Ha5U4E1jsKHrMC6itDQEJw/exppqamSd0VxRHHFHKu6unqpmqIsSk1JlkottuTV1dfjw49+LSHrLyuwKMcozijUiopLRWax5XF1eQVVNbVg1ldudhaSk5Kw+P8/OHuQX4jCh0VYWVnB25cuIjExQSrDnmw/5f9TWu20m365NfV5PxEqsJ6XmO6vBJSAElACSkAJHHkChlyO/Px83Lt3T0rh2aLH4HZmN7zMCjp7DY+VYVzd6B/+4R8wPT2NtLQ0nDt3Dp6ennt9Kj2eElACSkAJvAQBCqzPPi5CYlIk/AO8XuJI+lYDgYnxGRQ9rEF2bize+1bO1+aGVVZW4ic/+YnkRf7Zn/3ZCwOkcHpUUQmGuHd0dkmmFfOgKK8onChpdvLGdqqMFhcXpYLq//78Q4yOjUlA++lTJ2X1Pu67vraGru4eCX0vKHiI3JxsXDh/VkQWf77z/gMwEZE1PTODmtpakUYUQnm5ORLY3tzSho9+/fFvCyzmd167IZlcdnZ2+O6335cWQlsbG8neamxqkqwrwyqEbCH08fHB+sYGurq65TzFJaVITIzH2uoa+gcGJecq63gmQkOCsbKyKgHyd+7eR3tnp3A4cTwTAQH+sOCDvu2dxQY4hSfZvDB8ACqwXoaevlcJKAEloASUgBI4kgR4gzo7O4u//du/BSUWq5pyc3Ph5+dnlPNlxgRXJLx//77cLP/4xz9GZGSkUY5VB6UElIASeF0JUGD94v/chYW5JWxsrV9XDHs6b4qVqelZXHr7+CsXWF09PRKuzkootg4acrCenCDzKkdGx3D95i2palpfW5dQdAags2qLOZts1aOE4sqCXCkwPS0VpiZAY2OTyCSuMMxogMWFBZFND4tL4ebqgrOnTyE5ORGNTc345a++LLD4nonJSdy4eRv5BQ8xv7CA82fPIDw8VALiXV1cRJx9fuXqbwmsJ9saP796TR7c8WvWVlZ49523kZgQL5VYnBulFldLZAi9tY014uNikRAfL62CvJdiRhf/Gx4WKnlgWoG1px9/PZgSUAJKQAkoASWgBHaemDY0NEhbHpd/5tPa2NhYCT41xo03kVzdiONlO+Ef/MEfICMjQ26OdVMCSkAJKAHjINDZMYTionosLi4bx4AO+SimJqekKsnHxxt5eSlITY/82grp/ajA2o3AYgUVW/K4OmFJaRlq6xpgbmYKRycnqYRaXVvD3NycZFlRDLG6iRlanFdhYRF6+/qxtrYq7YesyOIDq5XVVRFgxzPT4ePtjZpathD+6ksVWC4uLrJvZVWNVEjVNzZKe2NISDAS4+Pl/UPDI7hy9dpvCSx+LFhd1dDYKBVaHDslVmJCHL71/nsIDQmRiipKLbYRcjXGBwUP0dLSKtFXbq6ucHB0gJWlldw3ebi7IyM9FcHBQSqwDvn3nA5fCSgBJaAElIASMEICo6Oj+OUvf4m+vj6EhITg/fffl7J6Y2odfBIbb5B5I8kVCW/evCkZWFyRMCVlZ+lr3ZSAElACSuDgCayvb2J1ZQ1b21sHP5gjMIKK8gqUl5cjIjICERHH4OPjBQcHB6mE+urP670UWA2NTbL63sDgILIyM0QkseLJ0Db4VbT8+by8vIK+/n5p56PwGRgcksVXuJJfSHAw4mJiEBcXA09PD8mwZBU4ZVdVdY0Euc/NzYvk8vX1QUxUpGRQBQT6Y3trWyq1WOE1PjGJ3/+9D5AQHyuLzfDhFr9WXlEhKwgODg7KvQxXSExPTcHU1BQeFBSipaUN77x9SSq/WDlFdhyzobqKGVd2trbIzc1BXk724304T+43P7+Ant4+VFRWyrFGRkewtrYuD9HYahgfFyNyjhVYbK98mU1bCF+Gnr5XCSgBJaAElIASOHIEKIO6urrwH/7Df4C7uzs++OADxMTESH6EsW/Nzc3SRlhXV4cLFy6IeDNW6WbsLHV8SkAJKAElYNwEfvGLX+Av//IvJScqOTkZJ0+exPHjx8GV9Ax5lYafgXslsHgutsXNzM5idXUNTo6OIqGeJs2epEfRw2qr+bl5zM3PY3l5SVYo5Djt7e3gYO8g4eeGcVM+8Tyzs3PS/rexsQ5TUzMJh+d+jg6OsLa2EoG0sLAo7YJ8j7e3Fxzs7WU8HCu/xvMxI3NpaVkqojhe5y8EF1dAZBUVxRXn8uQiNQxmZwg9Q+SZuUUhxYB6jvGrc+O+lG5z8wtSccZxWVpYyuqMXHGRY+axX/aeRAWWcX9P6uiUgBJQAkpACSiBV0yAN3lVVVX42c9+JhVMP/zhD+Wm7euerL7i4X3j6WZmZlBRUYG/+Zu/kZv473//+/IU9mm5HMY0bh2LElACSkAJKIHnJXDt2jX81V/9lfzMdnR0lIdN0dHRiIuLkz+soKbwYdXPXgms5x2j7r+3BFRg7S1PPZoSUAJKQAkoASVwyAm0tLTIyoNNTU3yNPe999770hNJY54en7a2trbiv/7X/wpfX18Ze1RUlNzA66YElIASUAJK4CgRaG9vx9WrV+WhDSunuTHsPCkpSX5+MwsyODhYqqk7Ojrwr/7Vv8K77777UqsQHiV+h3EuKrAO41XTMSsBJaAE9okAf/ldXV2XpXV1UwL7QcDKygKWll8uPd+P87zoMfk9UFhYiM8++0xyIngDzCqsw1B9ZZjzwMAAPvzwQ8m24JPoS5cuaZj7i34g9H1KQAkogT0kwHYutlcxjJstVrq9HAG2rbFl/j/+x/8oVVhra2tSbcVqLIaYe3t7IzMzUzIh2br2n/7Tf8K3v/1tFVgvh/1A360C60Dx68mVgBJQAsZFYHl5FWUlTWht7TOugelojgQBC3NzpKRFIjEpXFapMbaN8oq/VHAlPwa4f+9730NeXh48PT1fOrPhVc6VLZBFRUV4+PChtA7+6Z/+Kfz8/F7lEPRcSkAJKAEl8BQCbW1tstBGZ2enBHjr9vIE+DOvpKQEXHxlc3NTcp8osSismPcUGBgoEsvNzU3Y/+hHP1KB9fLYD+wIKrAODL2eWAkoASVgfARmZxfwv//XLVRXtMPdwxXm5mbGN0gd0aEksLa6hpmZebz17nG8+36OUQohyqvJyUl89NFHspofWw2YI3XY8qP4RLqnpwd///d/j/7+fvy7f/fvEB4efqiqyA7lh1wHrQSUgBJ4BoHbt2/jv/23/yYPS9jq9rKB1gocmJubQ2Njo/z8ZlXbkwKLYeOswkpLS5M2wgcPHuCP//iPVWAd4g+OCqxDfPF06EpACSiBvSZgEFiD/VPIzUuBnb3NXp9Cj/eaEpgYn0ZxUS1yT8YZrcBiW0dNTY3c4PJJ7j/+x/8YsbGxh+4XDN6884b+v//3/y7Li1PEJSYmwt7e/jX99Om0lYASUALGQeDTTz+V0PF/9I/+kVQFHab2dOMg+OVRsGWQ8uq//Jf/gurqaqyurkr1FX/eOTg4yGqE5Hz27FlZOY/7fec731GBZYwXc5djUoG1S1C6mxJQAkrgdSBgEFhjI3M4f+E4HBzsXodp6xxfAYHR0UncvV2GEzkxRiuwKH24olFDQ4Pc9L7//vsICgp6BXT2/hSswmIFVnFxsQTWZmVlSai7bkpACSgBJXBwBD755BP89Kc/FYHCXCZKFd1enEB3dzdu3LiB//E//gfYnskKLEtLS3lok52djfT0dISFhcnPP+77r//1v9YQ9xfHbRTvVIFlFJdBB6EElIASMA4CKrCM4zocxVEcBoHF9oOf/exnGBkZwalTp+Tmly0Hh3HjU2nKOOZgcQWmc+fOyWqEuikBJaAElMDBEWAFFmXLP//n/1wEFmWLthG++PVgS+b//J//UzKwmHcVGhoqLfNchZALsERGRko1FquyKisr8ZOf/ATvvPOOVmC9OPIDf6cKrAO/BDoAJaAElIDxEHhZgcVMh/n5OczPz2Jrexsuzq6ws7ODufnr+YSRTwJXVpYxNzcrXAwrDpmamcLS0gpOjs5yY2VmZv7cN7BsE2NYKVlzVSN7ewdYWVnvezsC58DrzLYHQ0jqbj7Bxi6wOK/h4WFpL6D8YUYGhY+tre1upmd0+/AzwfZBrqi4uLiIt99+W5YT100JKAEloAQOjgBXuKVw+fGPf4zTp0/D2tr6uX/+H9zoje/Mv/jFL/AXf/EX0jrIqis+fGJ2JXOvyJYZlrxX4aYCy/iu34uMSAXWi1DT9ygBJaAEjiiBlxVYU1MTeFRejNLSQpEcp0+/gaTENLi5eRxRYl8/LQomrjDU3d2O0rJCVFU9wtraqrzB0soKPt7+yMrKQ0J8Mlxc3J67jYDyam5+BiXFBZiYGEdqaiaCg8NgZ7d/OUeUPMvLi5idnRFhxnPt5Hc8e0lBYxdYlFYdHR34z//5P0tuxp//+Z9Ly4HhxvewfYD5+eAqVxRYFFkffPCBPO039m1nJcidVaR0UwJK4HUkYAJzc9ND+2/vs67Y5cuX8dd//df4kz/5E/k3mQ9JtALrWdS+/nVWXnHV3YiICISEhMDLywtOTk5PrWw7igKLPyt5b8af+bxfMTXlw8Vn35PtlviTx+fn1PDwcrfv34/9VGDtB1U9phJQAkrgkBJ4GYFFYdXf34Or1z5GfUMNtre2kBCfgnPnLiEsLFKegr1ON2kzM1Nob29BV3e7VGDx93EzPgU0gVSnUZgsLs7DzycA2dmn4OPjL+Xvu914szI1NY7r1z/D4NAgzpx+A9HRcXB0dN7tIZ5rv62tTYyPj2FgoAdT01OIOBYNP7+AXVePGbvAYv4VA9yZG+Xj4yPtBa6urs/FyJh25k3n1NQU8vPz8fOf/xw/+MEPJPfD2LeJiVmUlzVjZmbB2Ieq41MCSmAfCNjYWCEp5RiCg7334egHf8grV65Iq/qPfvQjqcBiFfbrdG+011eAC66w/Z8/tx0dHb+xCv0oCqzp6Wl0d/egta0d3t5eiImOlnsXCwvzPUG9sLCAnt4+NDY2ycO9+LhYeHp6wsrKck+O/yIHUYH1ItT0PUpACSiBI0rgZQTW4uIC2tqacPX/Y++8g/LKzvv/qCEkgQQSvTchOgIESAIhVEBtqzfrzdqeOLbHHuePOM6kzST5I3E8Y+c343gmjlNnnbis+/bVqoNoovcueq9CBSSh/pvPc3VZViutAAn0Stw7w2gX3vfec88599xzPuf7fJ+P3lE4s2zZUv03M/N5iY9LlDVrHJ/ZHdV7uwO7Ye3tLZKbe1KuTl6RiPAY2bJlq6xevUaWLFkqV69e0b+/9fYvZXzikjx36BWto3XrnGfcsxYaYBGSdvZso9TWVagCKzUlXTZtinxmABaT4NzcXPWM2rhxowIfdnGf5oM2Q4H1gx/8QL70pS9p5iUMg215sdRytkd+8j8fycULV8TB0cqC+jT3P6vsVg3MtgauTd6QO3JLXnt9j6TsiJ7t15+Kzx8+fFh+8pOf6DuGcDfeM7Y8Jtt6pZpq3ZnU4VwBFtdgPgvMuXjpkly+fEWtG5jr8U51dHQQp3VOsnato27WLuTR2dklufkFcuz4CYVLzz93SIICA2XVKvvHUoyhoWEpKCyU997/UDzc3eWVz72kkMzB4cklebIA1mNpWuskVg1YNWDVwLNRA3MFWLzch4YGpK6uSkpKC8Tb2089nmpqymXLlm2SlJginp7en3qxA2EIq8MnasofaukylX6jRprunXXr1k31OODzfM+UMuP7xLWmh3qhFjI+e11u3ryhIW78nYmGvf0q3aHj+6aPFNe/dm1yqhGZgHBOyoAc25RQc23Kye8f5FtlTHQmpba2Sk6fPi5+/kEStzlRAgKC7oYJLtFz4F1VWJQn3T2d4u3lK4lbtombm7HjbE6WuB6TpDt3bt8tv516OnBt6uD8+dH7KrCml5d6oD74Hd+j7OZ9mTds1MNNbQdzUmbUr/H5FSvs9G8NDTVSU1uhirJtW9MkIiJaVq82wggfNnm0dQVWZ2enmp739/dLTEyMHDx4UHfGn+aDdi0qKlKAtW/fPnnxxRdlw4YN8+6T9ih1dra5R372f8fEw91VwiODHuVU1netGrBq4CmrgYH+EamtOSvPv7RdUnfEPGWln1lxec/87//+r7z++usKsJycnBbN5t7Mamj+PjUXgGV4mU5K/8CANDY2SV19g3T39AnKpxs3b4qzk5NsCt0oiVsSJD4uVlVKzM+ISuBf5rF2dnPfODLnqTdu3LwLzJZ/YiOqp7dXiktKJb+gUMuxd89u8fOdvaKfuZ9RXua/HycWGBkdldKycjmVdVpcXVzkwP5M2RgS/ET9QS2ANX/PiHVmqwasGrBq4KmrgbkBLDxrbkpdXbVUVBYLSqzYmAQFQLl5J2X9ehdJiE+WyMhY/Z158KK8cOG81NVVypnCXA2n43B0XCtRkZslJiZefH0Dpj4PIAOe1FSXy/kLYwpVXFzcJG5zkkRGxqgnEyAF2MN5a2oqpaGxRvr7e2XJEhEHx3WyMSTsLihy17IAuIaHB6WoKFeqa8qnfHfc3b0kNjZB/amcnNYrBDt/fkwaGmvVjH1zbIK4urqrafq9B5MNYE91dblkZR2RwMCNkpCwVYKCQj4F5EZHh+XipYtit8JO3N09ZNWqNXfh1aQ0NzdKdU2FdHW16fnWOq6ToKCNkpScKp4eXqrkehDAoj0uXbqgZeC+qA/uAUBG21C3+G6Zx40b16V/oFeKi/Klo7NV75EJDPWAh1lQ8Ebp7+uR7NPHpbSsSG7fuiXBIaGybesOSYjfqh5nD0sFbusAq6mpSX7zm9/ofWMAy8+qVU+/AqiyslJ+/OMfq7ktEIuMhNyjrR4ArF/89LgEBvtJfLyVNdFW28kql1UD81EDXV0DUnSmWg4+n/zMAqyjR48qwHr11VcVYBHu9bR6Lc5HH5jPc84FYOFl2t7RKdk5udJQ36jepiQnWrbc8P/kfbp+vbPEREVKyvZtqsIaHhmRjo4uDW0MCPCX0I0h+rnZtrMJrwYGBqWjs0vVXyHBQRIYGCAr70ImVGHDI6OCihwVmJeXp6qjDH/Shx8AupGRUb3HoeFhhV+bNoXKKnt7Le/Vq1dldHRU+voHdE7k4+0t69atXXCl2fQ7sQDWw9vV+oRVA1YNWDWwaGpgLgALdQ9ZzvLyTkllValCFoANUKawKFeVWZtCIyQ1dbdCJpQ6ABaAUFVVqVRUlkhfX48sX75Mlt7NbLdhvauaksdt3qJQB3P4tvaz0ny2Qfp6ezQEj0x+9varxcfbT8I2Rar/k5OTs0q829vPSnkF5+2WK1cm1H8KiuXh7inxcUkSHb1ZHB3Xyfnz56S6ukKqq8ukt7dbVtjZyR25LSvt7MXHJ0DS0zMkMCBYX9R4WtXWVatyCkWVu7vnAwEWQIhwu6zsY3Ll8ri4unkojCMro5eXr4Kk+3mCGcqsS9LR0SqtrU3S1dUuY+fPqSpqhd0KWe/kImFh3Gu0Ktooy9Gj73/CA2vlylVy7tywNDXVS2vbWRkc6pcrVy7LrZs3jcmHj5/ExiZKSHDoXTh3U3p6O6W+rlpq66v0+viX0U60R1hohF7z5q1bUliYK2XlRboLGBy0UU3oE7dsFxcXANZnQxFbB1j4X73xxhtqBMuigtTbtgx6Zjoo1dfX62KJjExpaWmqLkPFZ6uHBbBstWWsclk1MP81sBgA1rFjx9Rr8eWXX9Yx2dXVddZgY/5b4tm8wmwBlhFdMCxnCovkoyPH5MrVKxK2aZNs3BgiTk7rVKHPfIjPubm6qAIK1XpDQ6MUFBUL4GlrcqLsTNsha1avnnU7m2r8quoaKSoplbFzY7IjLUW2JiXJ6lWrZn2++224spmMf1b+mULp6uyShIR42b1rp6x1NDaFbfGwAJYttopVJqsGrBqwauAJ1cBcAJahYhpQWNPa2iy70jMlOjpOFTmNjXWSn5+lSqmMjEPi5uapv5+YGJfGpjo5fPhthSv7970gQcGh+jeAV3lZofpBAWrWr9+gGfz6+rvF3c1L1Vaooq5dvyaDA31SUlYoV69clj27D0hIyCYZGOyT8vIiVYKFhIQp3GKCAczq7evWiQaKsHXrnNSHKuv0MXFz9VCw5ey8Xj8LLGs52ySRUbESujFCd0j5nhmOByT6LFN6Pouyq6ysUHJyTkhHV5vu1Hl4eGroHddatWr11A/eWHiGIVPv7GzTulxlv0rCwqLEx9dfVtqtVIh3tqVJzjbXy8aNYZKcnCq3b9+RkycPfwJg0R719dVSVFygsArvLVRt5KQB0tXWVapMHEVcdFSc/yyXvQAAIABJREFUTF67Knm5p6SuvkbDHFFoAceov4aGWjk3NqLgLSpqs8IwwkSBXFu37lBvL8LsHhROOb0b2zrAItTuRz/6kWaFOnDggJqULrSXxXw89i0tLaosYyc1MTFRUlJSnqj0/2H3aAGsh9WQ9XerBp7dGlgMAOv48ePys5/9TJ577jnZuXOnZs2brTLn2e0B83tnswVYxnywXY4cPS7lFVUSHBQgzx06KH6+vnc9pphZ3RH2SLUN79yRCxcvGiF9+YVy/sIFBVipqSnivG6d+p3Z26/UeSbzycnJazJ57Zoq5Nk0ZNMMMMVmI+djPjc6ek49qM4UFuscMTVluyQlbhFnJ+N8hkpqUjdv2ZwihNE0cGezmL9dnbyq5zI9u1br/NNe/x9VV3lFpeTk5svwMBmt4yQ9bYdsWL9elVaUieteGp+QFcuXq1E+Bu6mDYcRdWBYgXAvbLjyN+atKNW4XzZD+T1qLs514zrWGHd005j7JRMnm9gPs6Iwe4cFsOb3ObHObtWAVQNWDTxVNTAXgAWAam5ukMqqEpVWZ2YcEn9/vGuWGFkJD78lt27flpTtOyUiAn+AtULoHP5PLa1N4u7mofCJkDxeXrwE+Ts7W7yML1y8oBAMj6bt23dKgH+wgh8gzCV8pApzpa2tWRVOgCGAC79j5yghYZvExSXKElmiZSNMkfMAwFBx1dZWyvGThxVyZew9pEoirguguXjxvJYV8/npfgAzbVAmCyi8enu7pLikQAoLc2RoaFDWrHEQ5/Xr1YsrOChUtiRslbi4JJ104KnQ0tIgZeXFqpBKTNyuWQUBKZS3u7tjCm4BlChvbu6pTwAsMgWihKNdAIDRUZunshsCwYBSlAefsq3JKTq50bIND8q+fc9rdkHum4kPqjMmHEjlCWEErgHAMHHfkbrrmTFxZyJFtr7/9//+nxrrsjPOLupMJ1Mz7RNP4nMdHR1C2nb6FuqrzMxMm/b2sgDWk+gl1jWtGrCNGlgMAOvEiRPy85//XPbv368AC3WsrSpdbKNXPL5SzAVgtba1y+GPjqoPVPimUPmDV17WEL57lcyAme7uHjl+MkvOFBUL797r12+oR5avr49EhIfJnt2ou0Pl2uSknG1pk/qGRmlpadXQPaCQn5+vxMXGSkxMlDg6OEpPT48cO3FK1Veoo5hLb1jvLL6+vhIVGSEZe3cr/Kmrq5fcvAIJD98ke3fvUijKpujg0JBmD8S3q7OzWy5fuSyeHp6yJSFOIiPD5fat25Kbf0byC84oqGM+6LRunZY3bNNG2bUrXXx9fNT76+SpbHFzd5WD+/dJgL+f3j8A7MrVq3oPtXV1quTq7x/Q+VNQQIBs25YsYWGbdH7bPzAotbW1Ul/fKL19fTrH9PHx1vtNStoiLrPw57QA1uN7Jh54JnPXHjJKmm5+CLfhhwUVHZ4fFjumgRoLM77H5Nk0KmYBgzqBTkGn4YdOy+43PxBRfvjdw7xIFuC2rUtYNTCvNcCzwjNkPlM8X+YzZRJ+85kyjRRNk/B7nymeF3Y7zGeKHQN+eJ7Y3eC/5wIw5rUC5unkswVY+E0RClhUlKfKpw3rXWT79nRxdXVTddC5cyNy/PiHMjTUL4GBIVN/Gxjok9M5J9SQfWNIuIYLokK69wDCoOp6/4Pfy+jokISGhisAWrpkqX6UsbKnt0vBFBnx0tL2qj8TcAz1F23o5x+oCqLgoE3i6+uv4Igdq4mJSxrmd+TY+1oOVFhO65gY+EtAQIh4eWE6v+KRappxnHBCQgJRLlFHxq7bVRkZGdIycK3MjOcUNmGOXlFRLHn5WeLg6Ch+voGyjF29u8bu4xPjmukRhdTW5B1a1oKC0wqwdu3KkLBNEdLV3Sl5eVkKAVGZ4U/FHiHH9Rs35ML5MensbpfIiBhJ2Z6usA4oxXPywvN/cNds/9P3bWQhbFAfsmcJYNFGjBnZ2dnqFfWNb3xDzc6fBXhFm/f19Qk7/q2trRoW+dJLL+lzYauHBbBstWWsclk1MP81sBgA1qlTpxRgZWRkaAihl5eXBbDmv2vpFWYLsJgfDAwOSl5egYKkpUuXSHLiFomJiVaIgzrfVOOzlu/r65fsnDwpKi5WIDQ5eV3c3VzVexLvqrQdKQqp8MYqLi6V7p5eYV536dK4XLlCMqNb4uzsrAqoiIhwBV05eQVSUlqqHlW3bt4SDw/3KV8tQhMpY25envz+rXclOSlRvvTFPxRvLy8ZGzsvhB6WV1Zq1kTmeAArlFdhYaESFRkpjg4OUlpeoSGSLa2tcvnyVXF12aCAjkyGqanbVYlVWFgkv/jlrxScfe2rX5bI8HDlEaPnsNaoUwVXT0+vzsnZvEZNBZCKj9us4A4Lj6LiEmlpbZOLFy9O+c2ivuI6e/fuFm9vL7FbMbM5twWwHvMDQ8MxyQdMMSE2f2isCxcuyNjYmDYcP/eCLBbb5oKbhTY/0wEWC2gzMxcLakAVRNNcZJPFggeJf/k9i3EW5XyO/7b11NmPuSms0z0jNcBzYEhgjeeJZwsAwPODooAfni3zmRof5yVwZQoOTwfDH2e5WzqVkc58pnhOTCA8/ZniRcIPv+N5mv4zF0NGW2+W2QIs4AxhaYc/elvhi59foPpdAZk4AFBVd/2lMHPfv+95VUoNDvbJqaxjmpklIjxWw9nuZ5itcKW2Un77u5+pWgtAhuQYRZV5MO4Sooih+NataarOIlseZQKUoR5avWqNxMQkSFRUrIIqPs/LF0VSQUGOGp2jlGIiAByKIrwuOl4/BwQCrs0VaBgZAXk3kEGGl7uocgzPqRMnD6tKKykpRTIyntPJSkFBtpzMOqL9fC2hfzjQ3z3U0PP2LQ3zS03ZpaDQVGDtSs+QkJBQBX5Hj3+g/wIYV9mv/sT32el1XLtOvatiY+K1jlrbmtXUnvZxdb3/bvCzCrAMA9MROX36tLz11lvyla98RUMIn5UDY1fUZWVlZRIYGKiZr5gn2OphASxbbRmrXFYNzH8NLAaAlZWVJW+++aZ6LQKwfHx8LIA1/11rTgCLL7E5fralVY4cOy4NjU26fggJClIFFF5Ybm6usm6tYWo+MXFZ+vr7NYSwpLRMwRQQJzk5SUP+PD09FNIMDg5JRWWVnsvd3U2V/2Q5rKysktr6BkncEq9KKuAOYX2FRcVSVlEh1yavSVJyop7TOJ+nGqxnZefI7996RwHWF7/wh+Lm6io1tbWSfTpXOjo7JSE+Tr274AeaOMjOTjzc3fXn3NiYlJdXSGFxiYYrxsbGyPZtyar0Qh3INfPyC+Tnb/5yCmBFhIXp2oyyfnj4iHR2dsmGDeslIS5O4dpttdxAzeUk652dtU7eee8DbYPwsE0KtSgDXISDsEV3N7cZC3AsgPWID4yZqpwFFD908uHhYZUNkpK7u7tbdz9RhwCQSF/NYhhVBwtiQJO5cGYxRWPyuekpyc0FPIsHFuPmQp5zslhnIc8C3lzIc0tcw8/PT/z9/XXCyn8Dt4zU78umzj/XBdkjVpv1dasGHlgDPFNm1g2eKXY02KngWWpvb9d/+aHP03/p6/Tt6c+UCXgBIjxTvFT4MT0GeKZM2MxzxTVM6GU+UwAxnimuzSDNs8okg2eJZ4rdFIw3eX7NZ4rzP+3P1GwBFmF2mKC/+as31IjdYY2DrKJOlhrGj2pKPjGuuCkgIFhefOHzarZOVjx8nh4GsFB3oUgimyEm4Wk79ojz+g2yfNnyT/Qh4MvatfgBkI56mRq3j46OyJWrl1XpVF5erNn1aG8/vyDZnZ4pERHRCrsYQ1FCca2u7nbJz89WU3NXF3eJjY2Xrclp+tnZqLHMPgZAwh/q3vAAMzyvqqpMAR3+B/v3v6B9jbLi1bVpU4SCPe713n7l4LhWHB3WyuTkFVW4ocBKT98rgQEhmnkRBRZZBjmHr4//J77PuZavWKEhgfw3SrWm5rpFC7AYC3hf5+bmSn5+vnzpS1+SXbt2PTOjNGMY/l7s+nt7e8tXv/pVHTdt9bAAlq22jFUuqwbmvwYWA8BC7fvLX/5SUlNTFWAxr7RCCOe/b3GF2Sqw+I6u769g4dAjlVXVUlZWrhkBmT+hptq2NVkSE+L1v82sfUXFpXIqO0fXKjvTUjV0UP2gVhqZuI2N+HHDB2rFCv0Xvyyg1slTWap6St+ZJtu2JunfMFg/nZOvUGjvnt2SmrLNEKisXKmhgaeysuR3JsB6/TVxXu8sRUUlGho4cXlC9mVkSEx0lKxzWqfno5yANLgAZSmvrJITJ7PUsD5l+1bJzNijUG6lvb2MjozK6ZzcjwHWV74sYZtC1aA+OzdPsrNzFFqlpaRIdHSkrsdwBWMevHTJEr3P4tIyBWyorHbuSJW4uFhZs3qNbshyYBg/G1GABbAe4Xkxww7YuWVhzQQYWMWil4HIVEypIdvq1VNKKRbCZtgfv2eRbcKr6QttOtf0xTwLGxZfdDR+zAU3IMsMT2TRzQIcyGUCL6AX5cGQFukfC29+2IF9FjIsPUITWl+1wRqgb/MM8TyZEJjdBZ4F85kyQ/54lu4HrniupgNhPm/CJV44psLRfKZ4RriuqfACRPMc8WMqu3jepj9TnANwBtTieQJqubi4qNrxaYZYswVYqJYIHywsztOXEeFwqva827d4iVFv/f29GnaGeTqm4itX2ktO7smHhhDynZqaCsk+fUwc166VF5//vBqTA6xmcgCQAFRkJezq7tCsfsCzmJh4zSTo4+M/ZdSNmgzohXoLc/fz+D9NXpXEhK2SlrZHVq92mJHRKpMdDNzx/6L8QCRUXQCw6X3DCC1sk/LyQunsapd9mc+rWqymBil2lyQlbdcQP+rqfgavXGdsbESOHHlvCmDhqUWmxjNncsTNzV1VVhERMQ8sN2b6+JeVlRcu2hBCxoGGhgbJy8vTMDtSm2/fvn0m3eup+AwT6IqKCnn33Xd1HvAnf/Inuplmq4cFsGy1ZaxyWTUw/zWwGAAWat9f/epXsnUrc4s0nUNaAGv++9ZcARbfM0zXr8vg4KCG2jU1t+h8YWh4RLMLbtu2VcFPYIC/zrcAWMdPnpLz5y8ovAIImVkITWshwu8QvYyMjMrY+TE5d25MwwTPnm1RD6qMvXtkd3qazqnzCgolK/u0mqUf2JchO3akTGUhbG/vUOg1HWChCmtoaJLTubnS2NSsPlZ4b4UEB2t4IOoqM+pBN04rKuXo8RMyMDCkYY4HD+ybykKIWiw7J0d+/ou7CqyvfFk2hoRIY5Phi9Xa1qZZFrlPQhen2xhxr6yjKiqr5XdvvyPnx8a0LJtjYyQkJFj/28VlwydEBjPpCRbAmkkt3fMZFrJmOGB/f7/09vbqD/CKRgJCsZgN1k5iqJ8wU2NRPd+HZhO4eFEoV1dXl4I1HrCBgQHtUCywWXCbP5TLVIRZvlnz3TrW+R9UAwAkU/HEy8F8pvgXeEW/RjnAMxUUFKQve2StwKuFgEUAYsJwTBVYW1ubPl8ABCAW/gXAYZ4r5LymIux+IXG23gtmA7C4/8bGWik4c1pD4zbHJqphOsDFbBcjBfCklJScUWDF34AygYHBqjRC8eTu7iXp6Rmy3tlFX/yAHSDT9RvXtY7Hzo3KyVMf6f+n78xQ7ybUVsTZo1w6d25UQxX5HebjwEjAEedC6ergYPj9sHMFnDpTmCNenj4SFhatIYKXLl3QkEeyHQLGKPvIyKCCpLLyIg2J3L0b42sj28vDDsoEKCMTInAIf6/NmxPFzc3jLiwzstZQnpaWs+o/dX5sVNLTM/U9QRnLyookdFOkpKbuUpN71GeGyndCFWWUE7UZ9338+AdTHlgYsKOEKyzK1XrZkpAs27bt1BBIyk7dEJbJPfM77ptwTsIQR0aH5NDBlyU4eJP+jecOry7q8saNa2p839fXK3V1lTI0PCA7Uveomo6yzeQ5tNUshABWwusKCgp0HML/asuWLQ9r5qfm74xfGKf+4he/0Pf9t7/9bZ0L2OphASxbbRmrXFYNzH8NLAaAhdoXgEVW2B07duha8VnIeDv/vePRrzAXBda9V2XNAmyqb2iQwqISVU0RBgjE2ZWepsqlktLy+wIs5kr4UbFOr29sUiCGQkn9fMfHVQHFD3Bn/74M2bOLTUy7WQEswwPLW8UApeXlkp9/RoZGRhRYeXt6qv8VHlaoplCFMU+fFcD64z+SoKBAhVLZp3NkfGJCDuzPlB0p21Wgc+88mTlWT2+vKsjwwQLWbbgbKRYeHib8+Hp76fx3JnNs2sMCWDN8FqCTpkKDRSy7tfX19QqIODZu3Kg/LK5ZzE5XgJghTDNtlBkW6YEfM0OjTFWJ6RfEgpuFN0CLrAYs/kNDQyUyMlLCw8N1Rxb1CMqVhSrro96r9f2ntwY+TiE7qTsQjY2NUldXp/0T5ZMaHoaEKLQCAqO2MlVV00NtF6IGKOt09RXPFCotoDVjAGnq+aFcjAFRUVH6TAG0zIQLT8vu2kwBlmYeuTIhZWWFUlJaqCqfmOh48fb2/dROIp9tbq5XY3Ky6G3Zsk2VQaiyyH5349ZN2ZGySzw9fbSNxycuKfghtBOPJ0LgKitLpa39rIbFAYSAOphCXp4Yl+rqcoU1+Ftt3BiuxvF4WuE5FRS0UYICQ7SbjI9flLMtTdLS0jilvkJxVVScJ+7unuoHtW6ds04k+wd6pbGhVq5cvaLnBc7RhsC4W7duqxG8adx5bx/kfjGVr28wQvn4XlhYlBGyaL9KlixBXUv9XZb6+hoZPTci3l4+snnzFlV5Eep46tQRBUgbQ8IkMgqptYNmIQROlZYVioeHl2YvpL6yso5OZSEMC4vUd1VFZYkcOfKu+PkGyM70TPFw91ToRVZB1GW0A6b6CQlbFQISNomhfURkjGYhxK+MPo9HGF5aVyevyLZtaXA3LXNdfaXExyerF5ez8/oZQSxbBVi8K1FfFRYWapsePHhQs/U9KwfK0qamJvnP//xPBbp//dd/reHPtnpYAMtWW8Yql1UD818DiwFg8b75zW9+I7GxsarAYp5rAaz571tcYbYAa7pVEHM5c30MFyD7XkdHp6qfUDn5+frKK597Sfx8faSyquZTAAvDcg6+k5OXr1kN2fCOjowUV1cXIxywu1tycvN07ZC2I3XOAMv/bljqxUuX1FieLIGUsb2jQwEaHlq70ndKZESYziOBcDNVYH3VBFgVVZIFwBoflwP7MlW5xVrtXoagijPNyn1BhQD4iTU3n9WysAGKl9ihg/tVvTbTjX8LYM3weYGQVldXqwyfRSsLC9RLqEL4YTLID7ub96OPM7zMvH3M8FsxTOSBBfygboEA83uAGzArPj5eIiIibDrF9rxVknXiBa0BdhsAVjxTQCsW3Tw/AGDAD6EuPFOAVRZdtvZyV2+n8XF9pggj5oexgR+eLxSN3EdCQoJOUmxZ8TC94WcKsFj0d3e3S2npGensbJPduw9oFj0UUPdT4wwPDwh+T/hebdwYJuk7M9V/qq3trMImsvRBRzT8eqW9htyFh0Vr+N26tc5ybmxY6uur1S8Kr6pbt25qse+IiJuru2YgBEABovDcamqq17KhVqKtDCXYde1jsbFbJD4uSSEN8IgQyKamOjVTB/KQZWal/SqFPiinADqonfD7qq2rUgUT4YdcC0XZ/Q42Ei5cPC8d7S3S1FyvwAhVmVFi4yCkMCQkTMLDItWXCzUY/QZ1VEtLk9ZXe0eL4RFw546G+Bnf2SSbY7eoUgpllOmBtXtXpiqigGuDg/1SUlKg5R0ZGdZJASmV8b5ydtqg2QrDwqMVDqJk6+vruuuFVS9j58/JzRuEnq+QdWvXaRZH2iEocKOWu66uWo4de0/rGaP7XemZGtb5oLow79dWARZjD2nN8YnivZ6ZmanZ+p6Vg/tjjP3hD3+ou61/93d/p+OrrR4WwLLVlrHKZdXA/NfAYgBYeC3+9re/1c1OfLBYf9naHHf+W/rJXGG2AIt5FwopjM7Xr3dWdZXpU60ZCgcGFVTl5eeLs5OzvP7a5yU4OFCqa+o+BbBW2dsbPqcVVXLk6DE9Z3x8nKSlpqghO5uuVTU18v4Hh3VD/JEAlr+/rLSz0/mvkX36gmZTJOwvv6BQ55pbEuIlc+8ecXJaJ9U1tTMHWGYIYWOjHDtxUsMpM/YQJrlXvDw9P2XErhAQf2NV9U+q11dvb59mSCwuKdO5+Rdef02SExNmvLlmAazPeH7YtQRcmWFD+PGwMGUhQLgQAw/qJUKZnibFkhl7i9E8KjJ2Zs0QQ8Kf2AlA/cLiG3hghRY+mUH2WbwqgxQhgcBT+h/qJfoeAyzgCtUSzxT972nLmsk9cF+mOhOVI/fLghh5OMosxg3+n50VWz1mCrAMX6seBU8AndjNCeLp4a27Kfc7CEVDcUVoHCbsZPlDTUVIHCFphLzhx8Th6LhO/45PFRkLgT4AIbIdVlaVqZoLNRWH7t5Ebb6rqDK8sZggnDs3LKWlhZq5EBUR4x4HRvIYwfv6BupYzjjf2YUPFeF+9VOf27DBVcI2RUl8fJKqwGhf1Ev1DbUywf3G8qL10J2rzzq4bxRf1TUVCusIjzQPAF5yUqoqr1AxYfbOYarbamurFO4B/+hLHM5O62XHjj0SGhqhsBAVHOe+cP68wisvLx8Fg1xneHhIiovzNAukmYGTcMrAgGBJSk4VH2/fKV8uPo/qrLi4QDo6WrRNqUsgHbCMOgaMESra09ulcAxwiYcYIaFc92kFWEyoPvjgAykpKVFwhYE778Fn5eBZZbz9/ve/r/31H/7hH3QcstXjswAWMG5oqF/6+rpl8tp1CfAP1D5KyOtiPBgXCfFlLCbxw80bN7Qali5bJmscHMTX2183Ax7ko/ewOmPcZPwcGzunizYguxG+PX8HmxM8kyzoWcQZGyIfZ2K935VRsw4ND+qYhCpXjyVsRNiL6wY38fcP1PfKdEhA3fGu4F/mG3Od6xrJZq5Oed8a64HPLu9n156x2cImBO9MNlaM1PSfPNhUQXHMRsyj+NnSxpSfdwRzE0MtbniF8rxR/dQb76eZhIo/as9YDACLcPXf/e53EhYWpgCLfy2A9ag9Z2bfnw3A4tlgjOjtA7bU6rOAuTobobQXzwfqpqKSUo1sCg4KkldeflH9q6oAQsdOaHa+pKQtsmtnmqxda0SS1NbWyeGPjqkx/NbkRNmRmiL29itlaHDYCPkrOKObprt37VRfKZ7LM4VFarIOhCJUD+N4wBNZ/lhHoYQysxB+4Qt/KN6eHnLhwkVVianZu/1Kmbw6KWdbW+XwR0f1vzdvjpbnDx3UtX5tXYN8dPSYKqPi4jbL3t3pCuw4P5v1ufkF8otpWQjDQkM1k+LpnDw5mZUtnh4ekpycqGoq6sgEZ4Q/MrYyDwEE4gO2apW9XBqfkMrqajl2/KR6gP3Rl16XlO3bNCviTA4LYN1TS1rh16+rKTqL0aqqKlWI4IsB3EFJgUKJhSgdygwPnEll29JneCjNkCjD4LhdFWaEcdFRWXDHxcUpTDAzrT0oXMaW7ssqi+3VgNnX8I7DR8pUXQGGkc7yPBGuQ59DvWiGBy7EROlx1xYvOjNTKCG7AOKamhq9bxRYKBwZQ4B15r3a2n3OFGAZmSKNxBKMm0aG0wdPcM2JAL5Pmv3EzsiIaoy51+5OoA3IZPzdTs/5ceY/YyLBhIE6NoEMEwrOxQLNHKMMybeRwRIwQ8ifeaxYsVwBj2mobvZPymVCIj6LWsk4r1FO+JdZ1pncr3k94/xGkgD+vcvR7t7nEi03P/eGmJrX4nvUs/k9ymVvv3oqW4v5ORY4lHd6HZgLK+rX/D7qMiYTK1d+MgTSbE+zzm7fvqOTNdrUCN01Qss/bkcjUQj1+FnhlNOfMVtVYAEx33rrLSktLZWkpCT1JCFs+Vk56AeMt9/5zne0f3z3u999KgEWfY/w4Ly8U+q7x9wF9d/27TsVdD9NG4mPo28xHqIKBYwTMow6lXGMQ5WWzsZGAWG+fn7G+5UMrbM56Ds1tRWqfmWcImw4OMhQYs7HwVh16dJFbWegPnDms94rjH9maDVegoB1vsuxZOlS9fjj3rfEb1UVKefjGTA3JFC7MoZRVw4OjrO+Jd4ZbKag9GXB6eLi/sDQ8pme3FB3X5SCghz1ayRRCvOE6e8I2t7V1V12pu3VDRB8JOcyR6d9gX9sknAAO3m/EOKu3p/DA2oUTb3x+4V4xhYDwDpz5oy+c9goAWAxD7YA1kyfkEf73GwBFs9IW3uHnCBMsLFJM2x7eLjLCjs7uXrligyPjsrw0LD4eHtLSso22ZG6XZOkNTQ0yvETp+RMUbG4urhITHSk+Ph4q/k5mYExP29pbRMvL0/N3LfWca1GFzSfbZW2tnZxc3fT8EFAEgAKgHb8xEkpq6hUo/TIiHDx9/OVqMhItbrIy8uX37/9riQnJaqaCZN2VGC8++1XrdJzXAe49fdLXX2DuLm6qul8asp2jXIhrA+YRGijs5OTxMZEaUhkRHi42K20k8KiYnnzl79S/vG1r35ZIsLC5ObNW+oD9uHhI9La1i4ODmv089wnc0jqzsvLQ883Pj4hDY2NOs6uXesgV65cVTP8rq5uDTt89ZWXJSoqUpzWzWyDxAJY054DM6sgjU0oAZ2cARw1CGorJJ7I7mnopz3T2PTH3zAGvqyhhIQUoiABMqCUYRKfkpKigIF7n+sO1aMNN9a3n+YaYIIHwKmsrFSPGULs2P3nmeKlDRjGj43QloWYHC1EXZpjCeAb1WZzc7M+U4wtvNgwiCb7DOHHtjaWzBRgLUQ9Wtd4tmrAlgEWKc0xct+7d69mIGRceloPM3uxWX7+n3f73//93+sY+73vfU/HYFOVqIv9JUsWRF0xkzp9kAJLjWB7OuWDD34nbe0td60cPCVj70EN9Z2ePGIm13naPwOoqago0eyqvEdQl66yX63tCCwnKUMT2XwQAAAgAElEQVR5RYmqsl568TUFOLOFNDdv3dRrVFeXKahOTk7VkOr5OAA3KOtQrA6PDKnqc1No5GeCGZRDePKhnsWnj1BswngAdZqBdvyievgRkr0jdbckJaVqsg5NLFJ6Rv0A8W4kLBuINdsDhVRLS4P0D/SpYhe/xHuzzc72nNQDYC07+7i0tDYqPKJ8ax2d9FTc17mxUb0n7g1FMRDXxcV1SsU702uitD17tkH9JVHWbU3eIWvXOilEbGtr1jB2rk3m4FWrFmaOthgAFmvMt99+e2qNxXzYWl/NtNc+2udmA7C4Es/jyOiolJVXSFFRiYIa1st4Ojk6OIinp4cE+PtLfPxmiYyIEFcXI3JpeHhEFUaosAA1K5avUCUWmQU3ODtJbX2Dqpfww2JjEc/f8LBNej2uxcYhcAmAxeYD2Q4xWj92/IR6RzmscVBYRUbCpcuWSl7+GXnrLsB6/bVXNbMfoKq4pFShGIbuQHDWIL4+3hIfF6cKLBRPlJeMiBpGeAwVVovOFRLi4zTE0N3DTe/9zV/9WgEWHlgR4WH63sHXis+XlJWpxxbXgSs4OjpIYECAqqqoo5HhETmRlSVdXT0a+QCwXbdurZrBx8ZEqyeXywYjG+FMDgtgTaslFFeokJjE4mtDeAmqEFRIdCyUSE+LEfNMGv9+n2H3nXogrNAMLaQjUg9ky2CQBeBZh1UDM6kBBnkUSITm0K8YmIA2hAoSqoMS6WEhWDO5ji1/hkUXEAuTd+AwocioalBkofYADtvSYtkCWLbcm57ustkqwEId+tOf/lQ3rV5++WV9Lm3Z5PxhvQDrA97fjDmEBjDeomj8x3/8R/0q/zIGoRBlrkMCGkJYsEOwheNBAIvFNnDj6NH3FdKsXuMgff09kro9XRfw08NwbeE+5rMMKHC6utrk5KkjutCICI+RzZsTNJSSJBEArKGhQTl67D1pbTsrKdt2SmLidk3+MJtjoQEWQKa6pkwVTYRXx8QkfGayDMK6SWJB+CQefUlJKeLm5q4Ay1AyXVL4RhZb4FZyUop6MKJUO3nyI2lsqpe0tD0SGRErGzbMPjMnAIwQbUI4E+KTNUHJ4wRY9G+y4KJ8M8sHwGJzrLKyRI4ef1/CN0XJ9ruZfR8Uwv+gNic0tLKqRJOmEB66Z/d+BXnAUfwTCwtz1Vty1y48Ky2ANZtn57M+y5wYgMUc2BQJWADrcdXuZ59ntgCLswFcAFKdXd26CT92/rxcu3ZdwZKHu6ta7hA2SFTJsqVL9f00ee2ahsY1NTdJZ2e3KtYDAwMkKiJCnJ2d1P+q+SwJdXo0WoD3b3BQoL6rOzq7NAjZ399XwxJZJwHMjIRXTdLV3aM3CfwhZG/5smXS0dEldQ0N4uvjo0BozZrVCt7a2zulq7tbwwmXL1+mZURZBXRzd3edsmvh/OdGz0lTc7NenzkCIhZM3lFFUU5UYOuc1smW+DgVtdjZrVBYhbqKv3d2dWk9XZ00wha9PD10foFvGNFdjc3NqgBDfQXQc3FZL/5+/hLg76fhirMJhV70AEuzCFy5omojQgVRiLDARBmye/duDfcB2DBBeFbUIZ/1aJs7t3RIJsHEaWNui0IrOjpapa7APB4AK1vhwgy2T9tVmDQyGLMwOnv2rGb3Qn0EsEHdsG3btikYbEu7/vNZz9SJEbJwQceZU6dO6eKSgR21BxCL+mHAf9KQ3AJY89kTFve5bRlg/fd//7c+m3/0R3+kob68457Wg3H3o48+ElRl5rjr7+8vP/nJT/SWvvrVrwohzidP4j0xIl/84hc18yIqc1s47gewWLT39/dpOBtAwt8vSJU0+QXZmsxg29Y0CQwM1lBX8zDDg40Qr+Ep/zk2UlCbODk5a9ZPM4yb8DUSLRCWxzuMOR9hIk7r1uuuNXDA+KxhwYD3FEoVQrD4HeCCkDUUM2yAmhCF8+IjRXiIGfqMWozrE3bGf5uhxgAXFg78HsXT/d4Hho/ppKqOjh77QDONAk78/YM+sQDgug0NtapWc3RwlOjozZrplbJyDhYU3O/E5XG5pQkilk+VHxDG/T8IYBmhxEYdnL8wpqEp3Bv1z33xM90Tz/BTmlQwgu8hymzOb9SDk/pTsUjEDxHV2IUL5zTZRlxckri6uGld3DsHZ/5O6NuHH76lCSXw4iMb7nSPLsqJlxSZaievXdV+Qz9B4QX4AogCh2Ki4zTUcM0aRw3ZBuzQZmZ70acM9cJ6zVTL/Bf1V11dlZRXFKnfIIox2sHNlYWdvYY2cg76B3Nqvk+9AojwL3zQmmK6Aut+AMvofzelvf2sJkUh9IhkGiQyoQ1Rb3FtrgF0MhUNJtAjQy79lP6Jn1xRUb60tjUrIEtN2SVe3r4yPDwoFRWlUlNTLhtDNklq6i71O8RDkUUw/Z++Q//nWhzUCe3I/ZkLUdocDy+uBaDB55L60PBzTShCfRp93XwOF4MCi3D1d955RyEAAGvz5s2WAmuBXj7TAdaf//mfz0h5bK6Nzbm88f9qszfFB3ie77UE4fM8++Y4wmemG8Abf8M6A8sG/oZ/nqH64jDZA+edvj7/+O/L9Dv8nXPdun1bli5Zqs8oh2GncVt/z3+rm+CSJZ8o8/RqN+/PsN24o58zy2veixnOPH38Mq9jfN+4H3z0UJZ9+n4/tvT4rLI8jFUAsP793/9dk9KwtrSFY8md6br2eSqR4fdxS+NQ8X3KysrSMCd2XVEasRuJKoKwpie9oJynKnjoaZlgsOA2lWkoaYB9DLQMuIRWLub6eWgFLsIPGCR+XD3VTHAFAKbPAEDZpSBccLHuNJn1QzgPCgkmMYxBSHIxjmbcYTI/UwntfHQxC2DNR61a56QGbBVgsUHDRIgw529+85s6Xj3NSmPGYEJUUFoBqoBxSP0JYWbuw66qZgI6f17/G1N3QprxobCF416AZcISPJ6KSwr0HkiiwOL3dM5x/f/IiM2SmLhNF+bmxB3AAbxAqZJ9+pgutk3lFt5QqHXCwwjdsdP54MBAr5SVF2qiCRbwLLCBUfgnKZhwc1fgAuA4d25Uk0RUVWPe26Wee2scHCUkeJOk78zQcD7KAuTo6+uR3NyTUlySr9e5I3fEZYObJCQkK3jz9vbT7wO4AC34DiUlbtfMngCIew/ulxC45mbUaO8pVCHhBRlNAWfcj/mOvXr1su6GAxDWrF6jgInyAxEaGmqkhEQXLU2aDILwwqCgUNmRukvDxoA5LEjw15oeQrgxBAXTNU2UQXhhaVmhhiveuH5d64v7SkpMEV9f/6mQNq7X1d0uubls3jQpJKR+ySCbEL9VYmLiFPZkZR9XfzPgGL5mW5NT1efJy8v3E3CSOqF9R0YG5fDhd1SxFROboCAKgMI7lHpg/o4aDWhGNtdlSw3AQ7/Jy8vWMrm6uGvfAYBRh7RDfkGWqo/MpBvUOXXHvRFG6ePtr6qrU6eOSG7+KYU4Xl5+kpS4TctLGYBCZwpOS2dXu/4dSOPnFyApKbtU1QQ8vR/EehjAMp8HAFZO7ikFdlGRm7XNbt2+qYk42tpaJC4uUfsjMNHwSpyUysoyqW+okYjwaIVphAkeOfqe9PX3KkiKjIzR9iBrbk7uSRkdHdZ+QZjlC8+/KqGh4QqqqG/6P0AZjy4WqxtcXCUqIlZSUtM1oQsL8oHBXsnOOiZ2K1fKeucN6tdG0hQAIc8HqkD6emDgxinotRgAFpE+7733no7NbGKyabJY58UL/c5ho+pv/uZvZP/+/fKtb31rTt5xC11m63of14DJb/CQ+5//+R/527/9WxUc2cKxIAAL+o/SilSmmOkxcLB4xLic0CYyDFiDiUFvmaiQ4QAVDeSaTAvIJnn4GXRtOZuRLXToxVQGwAwvZlR7LJDY9U9ISNAwXPrJxxmFFlOtfPpegcMsHgkpZNGMYoJnbefOnbqQZFH5pCCWBbAWd9+cz7u3VYCF1+W//uu/6rP4F3/xFwrb2Zx5Wg8Wqyg8uSdUVmxC3bsvCMhhQ4GdSybxqEFtRWV+L8AC+kxMXJKCgtNSWnZGwsNjNDvoWsd1CldQIgEhMjMPyfr1rnofjLFAqJzcE1JXV63+QGQWJSPS5cuo7odUjQOQcHPz0Ayn+A1duHhB7ABAy1fIrTu35drkpG7csfGyfdtOzbZ5afySwh8W/+xso25aIkvk4vhFuXH9mnh6+Eh8fKIaa1OG4uJ8GRkd1vOyaAdgGcqVqwpOgGmoZVCr4KmECgvQgdLnQSFhQCjA2OnTx6WxsVau3bgmbq4eGiIIzIiIiL6v6bbCtzEiDkpkdGRIVQQr7Fborv31G9cVbHHvoZsiFAattF+lPkjTAZavj79Cu9LSM3JZwZeRVh6VHPc0OXlFvL38NCsqYXv8vqGxVqqrymTs/DkFLuvWOsmNmze0XlbarRR/v0Dx9vaVltZmKS8v1vYOC4+WLQlbVQGEL9O970TT7LyoKE+/A0Tj3NR7UGCIqrdo83szDwKwKM/p0ye0DVEuxW3eoko+FAPUzeDQwFR78X3uk7ZhPkzdELbK76kbwOTY+TH1BsMrytvLV728uns6NHqBpCHU6VXUSGPnxMPdU5ViwCCg1r3HwwAWfwcA4l1VU1OpIZGcD5B57dpVhWp19TUKIiMjN2vfN5TxVyQ/P1sB7ZbEbdr/OU9u3inN3gh0S0rarvUAzMUQH9gIYE1OTpGY6AQFLsAu7hs1HWDKEdB5N1slfZhnJHHLNu2L9NF33v219mnqxdPLR8UZKPfGzo/q7ykjZTUN9hcDwGIt9f777+tGCQALX1Rrzbkwb1zEGOamzVe+8pWpjIILc3XrKo9aA0bm3YuaORoVI3M2Eu/YwjHvAIvJCPCKHUp+CHXas2ePpKen6yTuSS0cbaHyP6sM7OriEXb48GGFWUAJQgrZrQZOWIOvrbfg/JXPSPk8qICTsFMWT8DgAwcOqG/a07wYnL9aE11kYfBOSCGKNZ4jQizx4AFisZu+0IcFsBa6xhfP9WwZYP3gBz/Q9xu7ebzbnsSz9zh7AspOlOX/93//pxsKTPrMdzQbeACHjIwM+eM//mPdvcQry1aOewEW4yQL6vwzp6W1pUl279qn4VqooTo72yUr64iqa/ZlPq/KJ6AAAARwdezEh3Lp4gX5wutfUVDB30ZGB+VMQY6qkoKDN4qzs4sqr1jEY3SOlxEQhBC8wcEBhWD8LTV1t8ImFv2ohFBXEbq1JQHfo2XS19crnZ2tCrhQdhHiiArn8EfvqJoqY88hcXf3VBUYqhyADmFZKGeMbHuzyxDI4h94hVKmsqpU4cjqNWskPi5JAR/KmXVrnRXiuGpYm50Cpo6OVjl27ANxXLtWfaaCg0NVjYOfFNkGyXyHHxJKMuqhrr76EwAL5RtKMUzQAwJDZHd6hl4DcAjkKSzKVeUbqhoUVAAslFc1tZUSHRWn0I52QpVE+Xt6u2Slnb3ExsYr2CCb4Ew8sOivKKS6uzu1LPn5WdLR2ablCAwIVkWVu4enOKxx1PoFVLL5SogL/eNeDyz+RrlRlAElye7H94CIlAuIl3X6mKxetUZeeP4P9B643+keWEAzPnvi5GE5PzYqERGxEheXrOCH+qUuaTd3Nw8JD49WuPVZAKv5bL2G5QUGhmioIAcwCpXYwGCf1uHOnRnaL+k/AMiZAKzEpO2qqiLsFRXhTDywCIsk/LCk5Iy2MWUCVIWGRmiZmprqtO5QZKFCA6qhqnv33d/I6LkRBW0H9r+gYaxscHLN9z74rfa1A/teVMUdStHFALDYLAFgYRsBwCLyZzb+P7YyVj+N5WDO/cMf/lA3cA4dOqSiFdrBOp6OGmA+0NbWpptzzNlQzQOAbeGYN4BlZgbjxpnQETrISwVwxY4rXhFIY20trb0tNIr50gT+EZKABBPlGvWFwgblCCGXFsSyldZauHKwI4nyisUSgwkLJWg4AIvQOCYktrKzv3C1MrMrmQpHwpepu+zsbF1gsIAGqpM8YaEX0hbAmlnbWZ+afQ3YMsD653/+Z004QdgdHphP+2ICSIVy+kc/+pG88cYbGtrN2MzBQpdwwa997Wvyp3/6pzb37v4kwNqkCijACqoZgEX6zkzx9w/UECVCyDB1HxoaUC8j0+wadQiQCQUI8IbvAFmY3xnepxMa9oSHyejoiEIgQuK23VVZ2d/1pbp2/ZoQuogSBUUJoYSM28ASVFSoaDAaX2W/SmGA4WGyRN97jOUAmg8/elsX6anbd2kYIiqsZcuWK9gBwhGaNpeNU9oTiIbHENAnLy9LQRvlU18tuaOgJDZmi+zYsVs8PLzVgwjQAIDw9PTW+iKblYbaoYgaGZYzZ05rPcVtTlS1GxDOVGARdomSDNXRpUuXJCAgSJVHxvOyROsVqFhWUaQhnjt27JHbt25LeXmRDI8Myr59z0uIAjNAkuGLRV/leswnOzrapKa2fMYAy/QOoy26utrldA5z+1ptG1LHcwCcwjZFys6dexW2UDeAmHsBFsCRshB2Sd9iPsv8BpCJSpMMmMA9+1X2cmD/SxLgH/QpgEU2TDzBjh19X9V3wMnIyNi7IGyFzoXMc1OOh4UQEspIhkPqFxWXedBWqOYAohkZhxRaAizpcwDdhymw5gKw6N8A3bKyQlWu7UzPlIjwKFXg0Q5AwdraKq0j6huARd198MHvtb+jdiSsETUdzzH1+c67v1GIB4TDhB+QsBgAVlVVlSpIaFcAVnJy8lP/zpn9jODJfINQ+l//+tdqkcNcm432p9nz8snU4pO7KqpW1krFxcX6zHz+859XCGkLx7wBLCYtmLSz0Ma4FGUI1I5FIvLwuUwgbKHCFroM7Jxgeo+HDyGY1CUTfkg2vljWsbhqgN2Mo0ePKhBGNcTLGDNgdvSf9QyDj6ulDUPUC+odxqBMnZKtEYiFGmshoboFsB5Xq1rnubcGbBVgAXe+973vKcD6/ve/r3YCT/t8wNywwycCFRabTsjuOZjvEP6P+uqVV15RSL6QY8zDnozpACsuLlTNovPyT2lWPbyQ8MwhLApggpolL++UNJ9tUECF8oNQNOABBtcslEOCw6YUSfdeGwULvjxvvf1LDYtSnyt7ew0J1INwp0sXFDQQHrZ71371FEKFgsqGv2Ey7urmIYlbtku8LtDX6YIdOEOoHR5DLa1NanTOAj0sLEp9hgjzu58C52H1c+/fAVnUESo11GHMdQl5wwcJU3Ru5cD+F2Xr1jS5c/uOhjSiCkOtA7SZDlHY3SYULyhoo2TufU4AMu0dLXcBlr3eI2q34ycOaxilen9NM8I3oNQ1uXZ9UhU+qOUAkLQPbbF/3wvaPsCQew++O5sshNO/z3fx+hro71XVD+2KAT0+VU2NddLb36P9Ji0tQ6HS9YdkIcSDizBCPKyamusVqBn3dU0iI2IeqMBKSNiq1y4tLZKi4lytu1X2qxV+osojWyZKsPvdv3k/00MIm5rrFBABCgmZ1S55547cuIkqsV/DZ93dPCVhS7Kq2wgJzc4+Oi8AC8UifQpjdyDd3j0HtJ+YYa70w46OFsnPPy1r161TUMlz8NFH72g47LZtaRqeyDPAnIcwy3fe+bXYrbSXtB27p5SAiwFgmdEsjLvMmVHeP+2bJrMdt57U57HvgAUcO3ZMx75vf/vbunaxpXfgk6obW78uYx9RcyTdIdIH+JiWlmYzVkaPHWBxw0zcmJyiGiIFJsAF1RALbdMh39YbzpbKxwsWCkoqWMIwgVio2NhFIAzTAhe21FrzUxZ2+gAttD8wEwUeL2IUeba2IJqfGni8ZzWMWW9qanvCCfHFwkOMhAnsEqGYWIgX7KMCLO6BUAkWIhOXJyQ4aKNO3u9dqDHZZRcc7xkWRPiq4APDhPdpOjAHHhjo00xfE+MGIJh+oK7w8PQSX58AcXV1n3WY0PRzMelnEWhmdDJDjqhzFlxmFjBbhS+2DLC++93v6hzhX/7lX3Q371lQjdIv8Nl79913VYWFFxYHoROor1566SWdC9laf5kOsCIjA9RQGqUGC153D54lf1l9N/SKZ6Kjs1WGhgdlw3pXOXTwZQ1VOn9+VE6eOqJjZnhYtERHx00ZvE9/pgBgqLs+PPyWqqwABavJ0LbEyAZlHng2RUbFqr8UgIqwNdQxKLwMhc64AjQyAQLZWLy7u3so9CATIBAExQnKIHyo8BsihIzrMTYAzh7n2AdEIVQw+/RxOdvcIAGBwZKZ8Zyqj1DIFJzJViUQfkzLli4z0mlNOwgPQ9VDWFdjU50CLL7L7yavTap5fP9Ar4ZkUjfTnxf+m7A31GmYiBNm19rWpG2RsfeQhpDdL1zyUQDW/d4ZvGNQ5lVWFktefrYqmDBgx0Sd2yXUrrGpXtLS9khkRKyamBP+B3QCBgLCMBsHjOFtBoi7cPG89q/nD71y3xBCU6FHKCLKvdr6KrlyeUJhIc8ZJvF4SpE5kr5iZnucXv6HeWCZJu5d3Z2aHICQPeoauMr75vTpY/MCsOgvhP3V1Vep8g846e8fPDV+oCgkhPPMmRz1NQNuoUT86KN3Zf0GV81wiHKSPrPYARbvGjLF0keZNzPPswDWwsz8GJPxckaFxTz71VdfVe9ZkrhZh23XACwHqxq8rxhP2YSD4yx0pMqDaumxAiwGepQNLAo//PBDjbsGtGRmZoqHB7sgyxdkUWjbXWJupTOymlxXeHH8+HGNSWUyvG8fLzV/m+lQc7s761ufVQNM5GjvI0eOSEdHh0JLTP2Dg0ljbqYat+pwtjVghEOwM9mnzxTjFuDqhRdeUFUIhp/zDbEeFWDRN1pbm+R3v/+5LtgOHHhJJ64sWqYvclAnkCIcI10WgEy+MS6+n6ntbOtxIT/P4qy4OE+OHf9QFzdk+jLbiBAeuxUrdaFD+MTm2C1qtDtbYGD2CwyQL5w/p+EoLLZYrAApxsZGVIlC3fE3FkW2eNgywPrOd74jtbW1anzOeDbfz9lCtI+pwgKIY1rLookjJiZG/59Qb1vcbJgOsIKC3FQZ9fu335Se7i6FR9PfMWYIGWm/N2xwkf37XpTNmxP0uQDe3L51U0JDI9XPyMxQOL3ujc3NcgU6qJMOHXpZPMl4t+KTCiEW7xrGtcJOxzHOzxh2/QbZ+EaltOSM1NZXqvILT630tL0abkiZmCsxrgO7gQ2UC98kFvn4T23flq7m2UD+mfQ7IwvhdVX6MHZyX3z33rTmzHcx+q6oKFYgs2vXPnFwXKsm5SjDoqJiJDlpx33D/FEImWGB+GuZAIt65D6ys48psIuNSVCgc++YtmTpUgVG3HdjY53UN1TpYh2fMhRY94N1swVYtAEgxYRDpvJteh0aEKtfTd6rqkoVGmVmPqdjJ/cwHWCx8crGy/ETH6oqj3cvqrXoqM2qIOJ9lp1zXEMLHxRCSJtzb0abX1fYd/XK5btm7wUK1Pg+5ySc0tOT7IqEX358PAxg8Un6AGb09fU1kl9wWlw2bJD9+1/UfpCTc+K+AIvwzrz8LDVxT07eoZkQZ+OBtWTJMn23E67K+2bP7v3qg2WoyYy5C0rD3JyTCmjxk+N5QYFlAaxPjvj4CAOwgCmor1CRWABrId6KxrPDBvzp06d1s5jxAh9INt+ZY8/Wi3BhSr24r0KboZQn0od1J+2H/zbrTjK3z+S9uRA1+NgAlvmSp4MiFeRlh0KIgQLSavk1PZ7mNGEGdYw5PkocwhKAGVYdP546tqWzMElBefX222/L8PCwqhXIZEUoLrtt1vHoNWCYFg9ITk6OZnVEck+ILuGE8w0IHx1gXZampnp585dv6ESXzF0Y3hIus3Llx6FKZnjNiZMf6kJwX+aLqkZ4HCE1j94CMz8DC8HyiiKpra3QnXXCOMyFHynNL5wfk6rqcg13YtFCGBKT+9kcRrr4Iamrq9JFFGEoQDEWB5fGL+iO99DggGbdCgkJVfWDLR62DLDwvgJg/fjHP5aQkBBbrL45lYl5EJtMpJsmAQsHY8nXv/51heK2MvGbfnNTACvIV9w91mj2QRRMqJRiY7fcVV8ZiiEgMeoYwAMG2ZiikzGNsCp8njC7xkAdSAT0NQ8gAXUDjEF5dSrriExeuyqfe+l1VY5Mh8DGZ2+rYsmsL37HgZLnxo2b6kMFYO7qalOowFgA3OFc0zdKAS6jo8OqSurp7ZTW1rNqOE4GRSenDTNaPHFtQBheVijAYmLjJSLcGF+nQyyUXj093Qpu+CxKow0urpq5jvA/VGmoaBgvzEUbdUJYIOMV5wIAkenRBFgY3ANm8Axj/OH/8TUCCJlghXNQX5wDwIavFWGLFy6OyaFDn1PvqE9+nvo1WtMMUUNRRztShwCS+/VT1GzcF55XAKbtKTtlvbPLp2Aa4ZWo7PILstUTDHCEmowMjg2NdZK2Y49ERsaouTv+W5WVpRomynjq4+2r52YM5r129Pj7CuZefOHVKQVWdU2ZtgN+YpiaG/5mekPaPzgvsIl2B2BhdI4v2N69BzWcEe+q6cdMABafVxP/pjo1yF/v7DwNYJ3UZyElJV0Vg3jAUX76KPdcXlmigJX7ow21fzTXa1junt0H9P2Eh1xtXZUUFuZKbEycws9ly1aoChIY2NPTIXszDsmmu55ilIe+zXVzTh/XUEHqlOsePvy2BbDuGb0BWFhvsH5C/UNEkBW5MqdX3Jy+xDOGuIX5NV5kbOSggiMxmQmxGHNs8f04pxt+Cr9kvEd4H5FBdVLtVYCORHwBHPEvx7tsthvC81kVjw1gQeuIcyXEiZhX4BU/+DRZnfLxNiE0lFAFMwMdUANQiNrNquvHW9dP8mxMRojdBwrj1xQeHq7yZxZC1sv38bYMCwfTE4uXrJubm9Y1EGs+M6Y8DoB19myjvP3Or3TRww4t3hd4g7BwMb0/niWARRan9vYWzYwGsEMJxbjHi5cwFDx6uro7VLHAgpE04yyGZ3qY4RZk2upob5H9+1/QjGrUJaFSR468J7yvEWcAACAASURBVH39fbJ7V6amrsck1xYPWwVYmFEDsFAo/cd//MczBbDoB3hGYJ/wm9/8RrvFa6+9pmOJrRrXArB+/tNj4ufnKWsc7qiixH7VaomJjpOoqNi7Ks27AOtu6DVAJiv7qIyPX9SsgICulpZGhb5Lly+Tg/tfUuUPC3YW2hh+j0+M6/+jhAJ2EaqIcTmQmbBnE8DwbBMShuk5RuhAGbIIcnh5emvIILAH8+/ms40Kd/x8/PUZBdS0d7SqoTlhXkaY9DIF0iih8Iby9wuQ9PRMBUkzCV1lXMG8vrq6QoqK8/S+tiRslY0bw+8q6hhb7ujGADCNH/ygyAgIpGB8RgWGWpOxGQgBsGOcYbyqb6jRzceNIWEK/QAZhok7Hlgpeo2iojwpryiR8PBI2Zf5goZH8x0W5PhOATpQezH+o0DCYB7j77S0vVOm5rzjgFDAOEL3gDkARcpLyCHhfgAyI7nSp8dLAz42qpLq6uSkJCdt13Y3fL2MjI7AOLyiMJEn5DEwIETBGH8nBJRroYwF5tHeFboZUall2b17vyr+2FAiZBRQBKxCofe5l/5QAgODNQFATU2FQjQyP1JmPo/yjfqnb/BDnfH/hMxjHo8aat++F/Uc927azARgcV/AMNRUwFA/v0DZujVV+zOgjr7F+5aMj6j8UPpQpuMnD+u/zz/3qiQnpeizRB2wCUPfJEsgCQdoF/oBIYqEuuItt2aNo/6+tLRA2573HZ5vhJlS5u7udikvp0/Xy9bkHQqwaFdM3C0F1iffyKyX2PRHAQrA2rVrlzWHfgKTFhIosZ7BVB9IQuIpQtKIImLODcxiXLPWsQvXOKadCokzgFWEexLqSQI5xhm4ArAxKCho4Qo1wys9FoCFPxNSMwxMqQTM2kkZjTrI6ogzbIlZfoyOBdw4deqUKnRIC4u8j1BNSxo7y8q0wY8zAcJDhV182pkwFJ4p4NVMJt02eEs2XySeKTOcEIjl7u4uL7/88rzGfD8OgIWigTCMsy2N4uHuJWscHNTQd9vWNF0Q0V8+C2AZOy5XdZGHgsI8OI/LBlc1tWURyIQDgMMikck3u+pGlrEbupBi15vFATvohsLAkI4zCWeXfM0awm6Wq2cXZsxXr1zR76+wW6GGuevXuz40iyYKrAcBLMpNeAuLaDKooYhgh9vX119fxFwTKEwGM8pvLrooPxN/Mk0tV08wVDQNUlp2RheHZvgHdcni5VTWUQ0RwmCZhRgqFFLCc7BLTx2OT1ySWzdvyYoV3LejLlJM/xUjg9S4Gj+bx+TVqwoDCM1atXq1+tywMDTVZXN5eB4VYBlhWJc1+xnvddqSxaK5UzeXMvEdzvmTn/xEw6L/6q/+ShMoPEsHfY3EK2Rf5mDcJuvyo4zbfJeJPQvzNWvWqDE8YP1xbGQAsH72v0dlwwZHWbp8QoqK8iU2NkENxTHAvl+Ih5khDvUMJunpOzN0DCkuOSO9fV0SFRGrGdtYsPP7zq4OuXPnlsIFsui1tZ9VcAGcIiSOzzIW8By0tDarkpIyAKWuXL0spaVnNHSQz6Gg4tnlGRoc7JPB4QGFIgAElESYyQPJMPHmGQI8o0YCojF2cc6I8BhZunSJPve8a52dncXefvV979WILrimUByowvgFQAK6kHGPcutnblyTvt4efa7J8BYWFqlAZmCwX32ShoeHFGIBsAhDZEwmBJKxys3NU3akEvrtrSDDzEIIoPH08FblE5sU3AvgxsvTR8dfwExPb7eMjgyJnz9QZYeQ0RHgUVtTIU7O68XH209VPkAYxiey7KHqQlmKtxk+S2RC5Pvxccl3xzPHT9UFAIzw6YKCHM2UyFhPlsEN04zpb6G0OD+m8Ip3B5CPUHXqByUU/YXvoWBjTASmoTijPsgeyL+MO4y7hLIy3gYFhcjBA4bXGu+ghoZqbQdPL28FoHyHsM3hkSFtF+ASRve0B8ALUMp4umtXpri4uH9KQTAdYBGSx8bHxpBN0zYm7gj3haKKfu/q4q7heoRHcqB8BmzRl1AA0j+pK/pmcUmBwsXPvfwFhW28d9rbW7U/TFwe1w0YI1PjSs0meeLUYXF0WKuZNoMCQ/RZR+1YVFyg7YeXFwpHyoz/FeUx1Cy7JTAgSN9L7733Owtg3fNCQRULwDp37pwCLBL2PI6x81l6by3EvRihuJdU2ZObm6sZ1TF0J6KEtSvvNQtgLURLfHyN6QALwEhkV2trq264sfHG/IUoOltkOY8EsMywQeSZLLTZeSTbDnIzFn9WSNv8dkQznJDY7sHBQSWkL774onh5edmUzG9+a+HZOzsTOCj4e++9J6SgZYFnZp20FfO8Z6/WjTtigc5LlcUnnljsCvFM4dMzHy/WxwGwmOCSzvz82DmJiIzRBQkLJ3Zx2Q1mgs8CDPhzbwghCzp21pnk5+SclIqqYs0IxtiOYWzK9p0SExOvE28WE6ib2N0lPA9lE99nYn/2bJMuIoKDN6rKwEjbTpakVqmoLBVnJ2cNAeHzTPaZ9LNIYWGOcgBT39SUdF18GH38kybHZn97GMDiXtihB+bxwmVhjWICqEQoxqXxi2pKzeLY3Imn/OUVxfoZFg+AKkKcSksL5erkFV2IkZ6ehXp9XZWUlBbK4FCfLiJZMLII2bhxky6EgWelZUXS3n5WPXPWODjqQoTvY7BM+Ar1gtE04SjAM+pkeHhAf0dYlYe7t6pfCElhwW5mnZrtMzdXgEXbcy9MZpjI8BwAmwizZfLJ3x7lYHHHTh+LUd5Vz9qGizkhnJ6F8FH9Pxl78Ahiks97nkQTjElsEqLUeRQ4BsD6vzc+kmXLb8rSZRPS1dWhfQ9FB8/x/SauwFYg77HjHyg04Dkj5BAgAzwpLMzRcYVyAW5DN4UrHEFdAlwASrW1NklhUb6RgGLiktGllogqkfA2IhwLAMWYDHzCTwg1E8/wndu3FRJg3L4rfb+OUfhfXRq/JNXV5VJSWiCtLU3GKZcsUbUV50U1g7E3dQZw4LNDwwOaMQ8wsGrV/f3sjGdiUkZGhqW+oVp9vAjVAwSZB20UH79VlVeENBoeUcv0e4C18rJCDScjXOzmDSMJxKrVa/TzZEkEiPAsYNrNOAKgwssvwD9Y4baCpsJcBX9AdurWftUqBVSUPyIiRjcBuCaQDQVWYVGedHa2KbgCfhHepkqe+GQdvziAUUeOvKvvAMZ8YBHj+L3eftQBmwKcC5UcXl2oiSjb9IN7pz8o3NrgKitX2mlYH+2M8g51FqCO8D+u19RUq2HfPb1d+t5hjOSeAgM3arvzJkhMNDYLqB+uTXlJJuDu7qVm+ZSVMb+snHF8VG7dvCnLV6zQ6wO5+OE9YG66TC8v7cA94G1FeDhQjbq9F9wC3FBRxW7echcgGmGc9KOzLU2qXEQVxbycTZ/ELVu17w4M9uk7gnrHkxE1H4b2vHMY2yk/f5ucvCJZ2XhxVitcycg4JNFR8WK/yl6VZLy/AJm8Kzgc166T0JBwDeU0w0R7+7rl6JH3xMl5g5aVzRvumTklQA1/rBV2K2Xb1h36PuYduBiyELLJz5yOdRIAi0W5BbAe5S0+9+8aStBLU0of1D6sd7BIYaOMZ8Y6FrYGmJ8Ay9loQxXH3AJlHBF0eF7ZUtjg9Jp5JIDFRBYfCzPEiYEBgzyIqq3e8MJ2i/m/GrvZ5uCM5M+MK0aSaR1PZw2waMzPz9eskwwi7BbhE2PBq4VpTyZ77ELQBmTgQPWGATOLxsc9rj0ugJWbd0pTlaem7pGurlbdZcefZEfaHvUVuXnzlk7M7wVYLDLxhWERwcTCwdFRQR1KpUsXL+hkgp1x1AZq1Jx9TG7fuSNhmyI0fAQ4xiKDhVVZeaEa1RLi4uy8XhduwKSiknwJ3xSlC8yx82O6I73Czk7WOa67u7M9Jrdu3RBPDx8NwQDamOqoe1v8swCWqRAgfIb7CgoKlcjIaFWEkaKd37OwY5ccdZppMj0yOqxgDs8UFuMoN1gsosBiwRodbSz48PnhXglZIhMiC6q4zVs0bIcDUAeU42DhvWK5nVyauCTnRoc1tXtU9GbZHJsgK1as1MVfbu4J6e7pVB8vwN21yasKh1AvUO8sMvAyQzUwl2OuAIsFWGlpqdoB8E5BXYZChX+Z9FuZhOfSGnP/julLQd/gfY9FA34ibGwQ4syci9CLuR5TCiwXR/H126DPDot9+vCDMvUZqsWLChFW2tmLj4+vLtoBOoT/EWqGYo+DPgOwQKnIGEB4Gp5NfB9oMjjUL1cuX9bPLlm6RBNQ+PsFqlqJsQjAgLISEEMYF8oVDOA5gM0oqgjVAwQzdgOkUUsN9PfqdzlQNaJORQ2E35JpLExZyc5qACenh266mv54jKWUhf83j2XLlylsAkQxtkz3uaK+2ADgfgEe5vcAaYyt3LMJjABc58ZG9fturu5aLiOL7ITWAWMQ/88B0KFOAwJCFNaYz6YZLsgGwsjokKpd+RsbEdyrD2DDbqXWA8pUQqUZ/yg3qimz7h/Up8xQRMAKbTP9cF6/QTaFcg7axDBMN5QXF3XcBFShgmUDhPGWZBx9vV2qAKa9Vtrb67uL8FFUvdQVn6ONgXDAJr2vkSGFMyizgF6oa7q62xWwAbBoD+7XzzdIPD29FFreP5TcMOmnbL19PaoyQz177wEwYjMCaDbdVuDjum4R3iXUNX0eQMTzg0oOJSMqOMprqKE71ceLe+N95OHhqXVEfVKO23duq4qPdyHzPlSMvb09+m7gHcbhsAag7TWVXRGoiSoRAM11+C71QrubzxCecbxb+R5Ql/nMYgBYQJKTJ0+qwh5rG5JfWQBrrm+Mx/M9NrAQvQAVUSzzPuCdMX1MfTxXss7ysBpgjGB8ZB6xYcMG3RhDgQXUsuVjzgDLTI2J8gqAwkL7+eefVzNx61jYGmDSxmI7KytLCTbx3Uxq6YBWhoeFbYtHuRoDN5MwzMRpTwYSdopoS1uUbz7KvT4N38U3AXUjQDEuLk4nPY9bMfI4ARaT9oMHX1KTYxQCwBF2YdmZZyLP5PhjgPWCTnxZUOHfcf6CEbKDtwu7wgCl+oZaKS7KEzJcEaLD4g8g1dHZLuud16tnCXAIJVFe3kmd/BMew24zixPMfAkDaWquU1UWE328S5YvXyYJ+ObEGNnLWAwyoeedAixisv9ZAAtQhnfKhg1uGqYDKOL5wMQdFRVhKoQqkf2KhTBhTOyCzwRg8T0UESwEZuqBxaIKdQG723gHJSVuU0UIC3oWyITOEALFgiQj46AuZGpqKyU7+6j69ZDqPn3nXs2mRr3n52fr7jyLYZQoqOjmcswFYBlZ4vBiyZ2CV3gg4L/HxhTvFMMj5/4KubmU0/rOZ9eAqXQHWhFWTjgMHiK0FYos/C9jY2PnnJZ8ehbC+PgwqzmsGrBqYBHVwGIAWC0tLbo+Ios3AOvAgQNWEqRF1MetW302a2BOAIuFCCQb/yWc6llof/GLX1Rpu5UZbeE7ihlXXFlZKb/97W81jhjFCPGrENVHCS9Y+LtZnFdkh4ydddSMmPOzE/H666+r9xWhI9ax8DWAEoWJz09/+lPdoTXNP1k0Pi4w/LgB1osvvqq752RwAoIsW75c4mK3qGcHKqRTp0glPSmZmc+Lj7e/hsMQ+gcMCg5ix9frLpy4o54zhGUQtkA4D+E3Q0ODGp5DCMyhQy+r0qqxsV7KyosUbAC0gFdhm6LUj4PzsyOO4gmlA2WiLoFq/JBhCuUEUIvdcd4fhsrtwSGE+LUcOfaujI9PyLq1HxsxkyHt5o2bCs4IpTx04GVVj6HSIExovgAWGwiE0hQUZMvG0HDZuTNDTaS5D+oaSPjRR++qwmLbtp0a1gH0w5yX75KVywyPIZlWZWWJQsWV9isVYOHXM5djNgCLdwj9Hb89QpcpF2mTeYfwfqddUMNY6qu5tMSjf8cI37ql7QLoJQSDuRcqXX4PXKet2DGd7fveAliP3j7WGawaeFprYDEALELgAVhsRqJaxZLDWqs+rT3WKrdVA0YNzBpgMZFioU3GQYxYiZE8ePCgmoiz0LZ2Zp9M1wKA4FkCVHz//fd1p/yb3/ymkKHQCj17Mm0ym6sSGoLXzL/927+p3PuFF17QVL+Y5812QTKb61qffXANaHjFxYsaSvXhhx/q8/WNb3xDxzriwh/H8bgB1ksvvabhOmS3QuVDaF9IcKiqigBHObknFKpkZDyn5sAApWPHPlBfFlRP0/2ICHu5fuO6Kph2p2dqam++m5eXrSEuu3fvU3NcVERkWnJ19dDMYMuWLlPDWhRghLzgBUN2K9RWmNqeOHlY/aEICfHy9JWU7ema7Wy6sfqD6pYQQjxUMHLH+BgIZrcCBZbxjStXr2jKepRPzutdJGMPqdND1RtnvgAWGXhRvAGlAFF4eRmZEQmVuqNtkZV1VKE04Tn4AWG8X11dqqEehodW2NTnq2vKFSrSHoYXUOycutpsABZ9g36O8gpZPxsgTPTxsnzcYbNzuhnrS5+oAaAVYRcosQiNIaQJpS7tNlvZvwWwrM5l1cDirYHFALDIMJ2dna3qVd5rRAtZAGvx9nnrzp+NGpg1wGJxza7f0aNHVZ1A5jt+8MiwJrpPtlOwM4tE9uc//7mGf6Smpspzzz0nPj6GWad12G4NsENEOC7p16OiolR9hZnes2ZwbLstcP+SAV1Y0L/zzjuaOYW2QX5OsorHccwHwCIMDqNwABIZ865fu6bZi9w9PNUI9ubN67J3zyH1TiHjWFb2UTW8xZMKr5jpB+GEri5uEhm5WTaGhikEwy+qt6dLQw7xTBk7f059XXx9AtTfCg+apOQUNdvFVwUFEQboht9Guxr5jo4My9VrZN67pN4teO6gCCMEETNoVFn32wx5mIk7XiEYPZ8pzFGvlYw9hxQqkZFqvgAWoV0ANWCdZn/cljZVfrx+CM88ffq43itp5SMiYtU4GeiFKgsjeAzeOQBeCw2wDIPfQVXvAtHT09M1DJ3xxzpsuwYww2dcYnHGZseXvvQlDfWcjb+LBbBsu42t0lk1MJ81sBgAFusixkkSjgGwSMxjAaz57FXWua0amP8amBXAMj16WMyxW8uOH5NdHOstlcj8N9bDrmCGgVRUVOhgTTa11157TRfbljruYbX3ZP5uZMAZV3D17rvvajpZnik8TQzTUctr5sm0zMdXpY3ww+KZ4tmifZCgo8J61FDC+QJYwKLxiUuqRiovK1Lz9NDQcOnsapOVdnayZ89BcVrnrKCHcLWtyTskOiZe3N08ptRMRg0s0bHdDB8jzAwAhUnzBjVZXqmQFWNkPLWARxg7k/GLlOS8M9LTM6e8qMhiBWhH3YUJMlmy6uoq1bsKBdfevQc1Ax9Q637vlIcBLMPseFx9pDBVJ+yRTE6379x6AMC6o+ntUaYRMonR9Gw9sAjnIu0994shO+npTcNgQCLnP3rsfQWJhDQC8/isrQAsVIb0a8Yf2uvP/uzP1A7A2pB60iPPw69Pf+c9/1//9V8KIT/3uc9pqDMK7JkeFsCaaU1Zn7Nq4NmrgcUAsEjKg7oYmxUA1ssvv2wBrGevK1t3tMhqYMYACziCwTQ7fWQoYnKLSsTKjmZbPYbFNkbuABFUcqTFZMFN2NNsdmVt666e3dIABIDBeF+xEEbanJCAsmX2XibPbi09+TujnZCfo1IBrDAJIsQTiPUokHG+AJaRSfCGKqByck6qkfjyFcs1jI2U26ToBlaVlJzRbHuREbGSkLBVM+qZ94N66Nat26oKMtKKL1UFVkNDrcIXPLU4yLaE8sjL20eaGuukprZCP0/WLfy4njv0smbZAvZxPpjs0qVL1Gwe9RbwqqWlQVpamjUjE+buRganZZ9q+IcBLCPb0sQUwEpOTlGodOv2Lf0d4Xxk7ErZvlMzNAHUyAZFWOPExCUJDg5T6HV5YkKKS85IR/tZ2bfvBTWLx6ydFO1Hjr6v90aq+PDwaLl+/ZrU1VVLcXGehIVHKbBzdFir5ScrG+b573/we836hTrLPyBIPcpsBWBhDM6mFP+yGfXSSy/pe8M6no4a4L1BsgkWZ25ubro4A0DO9LAA1kxryvqcVQPPXg0sBoDV3d2tAKusrEy2bNkir7zyimWt8ux1ZeuOFlkNzBhg4dGDCgHfKzyVzOxoj8sLZpHV+7zfLiGEmBaeOHFCFVif//znNTUmC1vrsI0aAAb09PTIm2++KcTo7927V3bv3q2Z7qzD9mqAUEJAI54zHF/72tce2WNuPgEW4AnPKuBKbt4pIXsfwCYuLkmeP/SK+PoGqJKquDhfJi5PKMAig97q1UYKeHyxCIsbnxgXby8fCQgIUp+m/v4+qagsloIzOXLzxnWJj0uWXbsyNdU52fjOnMmR+oYaVWbhfbVnzwE1Uic9OOnt8awioyFQC+BEeviqqlIpLS+U8E1RGvKHEfz9MhE+DGDxTPX1damqrK+/V3bs2C0bQzYpuEM5RhZElF77Mp/TNOP8vqGhWt5651dit2KlhvNt27pDVWL4dTU318nuXfsVVOEzRCr4U6eO6H0kxG/VsrIxQD0ePfq+ODmvVwXXpk2RGh4IQKyuLpf8gtPi6+OndeHi4ia1dVU2A7BIMf7jH/9YoRVjEIkjZuujZHtP6+IpEX2V0E82FwmV+frXv64K3pkeFsCaaU1Zn7Nq4NmrgcUAsJhnM3fDu5nN/FdffdUCWM9eV7buaJHVwIwBFhJMgAgG4XgrffnLX7Z8r2y4szCpRTHyL//yLzpQE/NNyKcFHG2n0VA05ufna+gOIUff+ta3JDg42PK9sp0m+kRJCK/CyP2NN95QtQPhOgBHb2/vOZd4PgEWhTJMxM9JRUWR/Oa3P5NzY+ckLi5RXnn5dVU7kbGvtrZCSkrPiJPTevWgwnQdhe3ouRHp6elUmEUWQjNTHiGvVVVlcvijt1V9lJyUKpmZh2TduvXS29sl+flZcvjIuxIcFCr7Mp+X+PgkhTxNzfVqTn7p0rh6Xvn5+ivAwhuqv79HQx4JZQwJ2SQODmsf6IFVXlGk8AcARkieYeJuhNreQHU2MiyXxi+KwxoHSUxKUaWZkSShWnLzT6mBPCovdzdPVYp193TJiZMfahhk2o69GgLI2crKiqSk7Iwq1lCo+fsH6udRs5F10NHBUevE1y9AJq9ekfyCbA1DJDNjUOBGWbVqtYyMjkhbW7Nek88CtzB4r6wqsxmAVVNTI//0T/+kqkKyCeOlZG10zPmRXvAvmobuH3zwgaqu//Iv/1LDCGd6WABrpjVlfc6qgWevBhYDwEJdTHZvIBYKLKxVrORWz15ftu5ocdXAQwEWCyBMXnNycjQTFym1MXhNTk7WSe5cw2c4LwtCQnOALUzC7j04Nwt7doNZUJnXYtHDTju755yDv7NAelQ/ms9qeq5DOSkvZWE3nvu3Ve8v6ghAgloEfxPqEYNXAInlbfLkH3L6U3Nzs/ziF79QyMCuEDDkUUPSnvydPbsloJ0mJyd1IoQcHShCuA4L/7mOhY8KsP4/e3cC51V13338x+ICyKICsm+y74i7oijuGmMSk9SkMTFJs7dZ2qZpmjZdkidt0jZ9fFpjYsxmFhuNcV9YxF1EUEAWQUEBZRtkU3AB9en7TO50RISZP7P8Z+bc12te6Mxdzvnde88953O+v+8BRqikmLFTV51z7oXR44heKd2t2DxrANHMe6bG4iVPJOXR+ee+JwGZNm3aJqUVlRCItWLFstSmaWsPPfTwGDZsZFpREMTp0KFylVlpcQzaqbqce8zo8TFx4gmpQ8jAnbpoxt13JGNyKwz27ds/mMFL0bNi4X33zUjXAa5s2v5BAwen1DtAqnPnQ9+xLZe69+ijD8Zd026NLZs3JUhU/RvkO9C378CYMP7o5OnV9fBuCQhLXWQ0D349+uhDKWauK2Wyf/8jU9qhWPDxOu7YE9PqgPzDxGz5imUxdMjIOPXUM1IcpATyDlu4cF7an2pr5IgxCVItXLQgqclWrXomGMorn/qfeOLkGD5sZHTpcnh630FD98LfJ048Lgb0PzLFwt9c1wqS7sP48UcnqFjKVtNVCOfOnRtf//rX0+IEVq4Vr3L9rpUSh+Z+jGdGf+j666+PX/ziF/E3f/M3ccopp9S42hlg1ThUecccgWYXgZYAsPgE6rdRqQJY7G8ywGp2j3KuUAuLwD4BFmhDfTV16tSYP39+yh02YGMSWiq8EuPKVI/nY8aMGfHEE0+kJaF333SiTzrppDjrrLOSyqHwcAKRlIXP04YNG1LHW9qDlRD3p0x7u/eUF0AQFZpV/QrzeiCrXDcxFh/+JspOhQU8SiXMW+NFwIDDjBA5sxnzE088Mc4777ysfGi8W1LjKxdgWNtDjUrpAOj37w/S1D49d38BFoAEDDEK51nFhBwU2R1AgCnr1q2JFzZtTCvkUT9ROVX6NO1M3lBW7avYsC7e/EM0rDBIvdSnT7+02qD0wUrIUrnwwLr1axJwObTLYcl03bm0OVu2bIrn16yOzp26RPfuPVIqnfJU+vO9mODOxhc2xMs7dlRdC2iiCKMC2xtg37Fje2zYsC6l8Ek93H1z7GGHHp7UWVYzrLwnleosgG/jxopYu/a5qKhYHzt37UpqKWUv6ta+Xft0nPNs3rw5rapYsXF9gmp9+/RP/wJVYqn+4tKrZ++UlqiOUgZBthc2VaS4+mbxAevfb2AVmBMHoI+xvut069ot3Yti4wm2afPG9C1jlO+apWw1BVg8Lb/61a8m7ysq0Pr6hpZSh3xMzSLgPfzv//7vZOb+zW9+M/VParplgFXTSOX9cgSaXwRaAsBau3Zt6m8bxwJYlMYZYDW/ZznXqGVFYJ8AywpFDELN0lrJzovPuH1/t0rvkcXxgx/8IKmEeDbtvhkQSFeUqmOQaIU2ZSgAFqJeACyeD/UJsJ5++ukg0b/qqqti5MiRyf8GeOjcufP+hqLeXKSqxAAAIABJREFUj7/rrrsSKFHWs88+O6US5q3xIkD5QcrMn8yAn3F7bWbMG6/k+cpFBJYsWRK/+c1vkgrU++S9KsU3aH8BVr4jOQLvFIHaAixqQgArb00zAgDWlVdemQFW07x9udQ5Ao0SgZYAsKzQarEkY1kASzZKOYsPGuVByBfNEWhiEdgrwDK7z/xOp8jKdhdccEFSHABF+7sVAMu5pSdSYAEs0hdsReoiBRjF0B/90R8lpdXw4cPT38yOg1fOQxFFEWY22/7MlqX3FJv0uUMOOSTBr0IloW5W73E8UOa6jnWcGWiNW6dOnapWg9sTwDJwtY9zAH1FSqPrOqe/SQmjTHBeP8qunuh/oUrwe/H1N2U0EK7LdEgG4VKeyGeZ9AKCxfX39z7m42sXgUrPnxfj2muvTf5X55xzTkyaNCn69etXuxPlvRs1AtorKixQW/sDaGunavveFgDruVUvxIknj48OHdo1ar3yxZtPBF7YuCVmPbwgTpk8Ji686OR3VFYVCqwMsJr2vd8fgPWLn90VPXt0jxGjar56YdOOVi59jkCOgAisXVMRC+Yvi3dddEKcPGlsswyKDJrZs2fHTTfdlADWpZdemgFWs7zTuVItKQJ7BVgGaWSXvK/69u2bjNt79OhRUqrM7kEtANaPfvSjoGYw+API/FuAKPBMg/PII49UUXOrH4JNFGGUW6ShF198cUprBJ34CoEDGqtis6Q0SADeWOENKKqoqAjKJCowgEsK0FNPPZWWWTUItXKf/aXcgV97AlhgnmOlQEon8i+QZZM6AripEyilPAYK1Dd+P3r06PT7tDrWww+nwbD/njJlSkycODGBr7ryIXHehQsXxk9/+tNUfymZrp9nIBr+VQcqpb9SxIGwn/zkJxOU9RzlrelEQHqYpZmtygpInn/++akNqi3cB7B+9YtpMWf2k9Hl0MqUvrzlCNRFBHa+titNmlzw7pPiwotOygCrLoJaxucoGWAtWx0/+dFtsW3rjuhwSPlaIpRx6HPRcgSabARefeW1ePPN1+ODH57SbAGW8Z4x2O9+97s0vrrsssvy+KfJPrG54DkClRHYK8AClq677rrUCQZySk2T2VOwC4AlJY/HFqBiMA82AVQGiBRWjEl1zAz8Ge9ZPQJQ4kX1q1/9Kh37xS9+MaVgSceiiPjtb38b8+bNq7os6AY2UXHx1DriiCOSB9HPf/7zBMHUjzk9oz9LigNH0iTV1zFSBhH86imEH//4x2PChAnpmDvuuCNuuOGGBM+kN9rUAWxzPOJvpScgUHmlYfobXy8NqzryAgOtijJSb9UVwFIefmO8sCyzLRVTHK02lbeGjQDgCrC6H54xqgfPY96aXgSK9GorEhbvrvarNtsrr7wWj81dFiuWP1+bw/K+OQI1ioDJoDFjj4yRowbEHxZqfNtxWYFVo1CW/U6lAqyNFVtj1qzFsWVz5aIKecsRyBFoWRFo1+7gOOroYTFwYI9mWXFiDN85Y0PiBIr5PIHfLG91rlQLisAeAVax2hZV0DXXXJOUBZRBBmelGBXvKZ77AliOkeZHnaRjBjRROXzsYx9L4OWee+6pAlh8O6ziBkoBYsCbVC2peiCQH5CAosrPkCFDqgAWqENJ0bVr16SIsimbBo/qTENHRQWOAVCFBxaCP2bMmKRsUjbADGQrVkg0uAXFgDXACtgCwKTxMexmmKscy5cvTyCNogxc+8AHPpDOW33Vxbp4HqlEKMSANsAO9LMiYV3dz7ooY3M/h2foySefjMsvvzwpGZnqg6OleCc191g1hfpJOfb+UtNpB7QVZveoL2tqhF25GuvraZW8vOUI1HUE2Ne3adsm2rZ9Z2VfBlh1HfXGOV+pAOuNNypXhPZv3nIEcgRaYgTeTNkhr776SlKUV18d3pimqW/sYmTbyLqR8aDvnbMe6v6u6vfKIiDgEN/CEsd/5+yCuo93Sz/jHgGWzoyBGUhEdvn+978/Tj311PRA1nRgtq/A1gRgaTgL6IKcSwOUxkhBxNOpUGAVAEvK4c9+9rMEkaijKJ9QdjAIJACpeGV5uQoF1o033pgaa4okpuzUXerOoJlaSUP3oQ99KNWd0urHP/5xgg4UWFRpti1btqRG34DWj3NTVDkPbyPKMjBLPEGsESNGJOPuUaNGpfhKQ1J2cA6kGzDAbHnlyll1tfk4vfDCC2mZbTHlg0WVltU/dRXhfZ+HWq/66nWeKw18btj3Hbty3EM788orrySABW5rn/wA/XWpnizHuucyNZ8IZIDVPO5lqQCredQ+1yJHIEeglAjoxxgDyQqQRbJo0aLgmys7xKS8sUNT34xp1ZFtB/9fY8HcR6v7u1r4RxvvEoAY6xovs+iRVbS3FabrvjT5jM09AnsEWAZlVkizyh+gA+JQBdXlVhOARZ2gMQWZfv3rX6fVvj7ykY8k5ZJV3KqnEFqtsAA0vKw0Ul4asApxB6ekbAFa0hMLgMVI28tGPUFpBlT52y9/+ct0DYNR1+RtIyYFwNp9FUKNI+UXIEVN5b81/iDVZz7zmXQeqUYUUD4IzLsBNtfg86WB/exnP5vqqHGtj60YbLuv6kxZJnUzbw0TAc8FCAp2WlWTGjA36A0T+/q8CgBw2223JZWm++on39f6jHg+d11GIAOsuoxm450rA6zGi32+co5AU40AUGVi9bHHHkuT8cZ8JvyNneo6E6SpxiiXu+YRML7VFzbGN9bxDBkHG9sOHTq05ifKe+YI7CMCbwNYaLxGjJKJbxN4Bf7UtVKnJgBLWRhegz58oqjArB5BoVRdgSUdDgywgUygkJQeIEpdxo8fn+phYOkFQoL9jRrJ+YEtaX5IsZdN+p8BqXMhyv4mbZHvVnUFFuDlRZVu6BgqKpCKEbzZDMfKt/7c5z6XXmCzGuri74VaA0AT5+7duyeINmzYsHrLzQbJwD1KMDCF35aY5o9U/bYTxYqa4BVYKVVUaqkUzjwLVL+xb4iza0t0AKmwtJXFEs353jZE9PM19jcCGWDtbwTL4/gMsMrjPuRS5Ag0hQgYX61bty6NWawEz+eXtQUbBMoZCz6xYZEhUNcZIU0hPrmMtY+AZ4pFjefKwmesdfhKE5QYLxOaUGax2chbjsD+RuBtAItKh9H4D3/4w9SgfeMb30iKp7r2StoXwKr0htkVAI/0QVBK2h2AJQ2Ql1R1BRbDdRAI8aXEAomk64FD1FFUTVLmeE9J/WMQz9+Lx5ZGW5of2OTF2rRpU1J9AVZePANSx0sLLACWdD+NPMWVMqLOygBKFIbvIJpzU1aNGzcugS4Qw2qAFFleaC+4l54aS6pmsQrj/t7YPR1feJuBf1Z/pMCSskiNldPY6iPilef0HLv3VkDxTEl59QzmHPz6i3lDnhnE5q/w7W9/OwFo6cUWaMgf6Ya8C/lapUYgA6xSI1dex2WAVV73I5cmR6BcI2C8YnKf/YGMDOMbE6sm8Smw9E2N+TK8Ktc7WL7l8mwZ87DTAbN4TAOkBB59+vSJiy++OFnr1DVTKN+I5JLVVwTeBrDAHw0alY50O+ohJL6ut30BLC+AslCsgEnAGp8qAIpiiDqqOsCSkmfQaPMCAQYUT2ASaawfm+NBG+l90hIBJY30F77whTj99NOTJxFyDFSBW8ASaGYmggFgAbBALdej1HrkkUdSuqLf+QBQZIBUZjbETgzHjh2b1FqzZs2KK664Ir3UJLqAG7DGk2ry5MlpNbP6nO0AsZSLwk75KbAo1DJMqesn/H/PB6BSvGnEPdNgqeekPu9z/dUmn3lPEVi5cmV6r23eY3Jp73LecgTKPQIZYJX7HapZ+TLAqlmc8l45Ai09AvqhRAAm+o0JjInYibBKyf3Slv501F39PVvGP/ygLXZmTE7MUSwKV3dXymdqiRF4G8ACVq699tqwaoMGDRiqj4FYAbAogaikACIwRaoeoARgmSEAhzz0Vhm0Qp8UHTALTKpu4i4lz8agHJwqNuex8pvfA0bvec970iqA9nG8lD6NuRcKZALtAKipU6emGEizA86U6fbbb68CWAy4zVpYxRDwU26qGv+CZlROzit1sABYwJuyMG13frH2wbjkkkuSUTyo0RBLu1LYAW/+1ZiAemZd8lY/EfAcS4GVvkl5p7NgJiJvzScChbqS9x1Fo3e6PsB/84lYrkm5RCADrHK5E/tXjgyw9i9++egcgZYQAUDBOEQGCpU4OwvqK2OwvOUI1EcE+E4TTshAMdkr+8eY3bgzW23UR8RbxjnfArCkskmF+X//7/8lnymgh2eUNLq63gqAdeWVV6aZgLVr1yYVUPVUNuXxO2UAkgpqy2+K9LU6wJL+58WgfGL8Xh1iocBgE4XV+973vpS6BzJpwG+++ebkV8W0sFiNg4LLLAS4Ix3Icc7H4+aqq65KoIkvlgEqqOUcru0YLyQI5Zo2+wJY8sqpu6xEB2ZIJ1NO6ZlWVgSR+Iw1hKzSShwGLcohH1mKo0F3nnmp66c80nPg2b788svTTASA6lndU2fBvp494LQwP+TX5tlsrEbeO+FdBeH8C2Z7jktNjwOUvUs+aJ517wuw6zokx9J3yY7tZ9P2iEGxgolnVIycQ5ns590Wo8Y0Tldm8ErasvTkL33pS+ndbqz7VvdPcj5jc41ABljN485mgNU87mOuRY5AfUZAKhfbE30VanFjqwwS6jPi+dyFfY0MpJ///OdpbH3WWWelPjJhSd5yBEqJwFsAlkEYTyeDbQ+X1ffAmPoYhFFRgWW8tnhLAUC7b2DWmWeemdQM0uz4QxnQFgCLUoyK6E//9E+TesvmXMzZKbeKjQ+V46UCUnLx0CpM3CmlbFIApQ6S1LouyMD4HViiltHoUy1dffXVyfsKdKKuouwCgvzNgBqwYlQnx5exs8EsQAS+AV7gkVSyoowUZeLMhF7d6iPWu8fVoP+ZZ56J73znO+maBtvFio2lPET5mHeOAChDefW9730vQas///M/T8/TnjzH3Jfi+ShUfZ5rzyzY0xiAsZitA4wtscznzWyd56WUTf28F1a+AWyLVDvX8f5JGZZuaT/1Ba/NEHp/qBtBKoBPei9JMuBFIQkQg7CNtQFwygVwq99f/MVfxIQJExpEUdlYdc7XbR4RyACredzHDLCax33MtcgRqM8IgAgyQIzBjDssbtUYfcv6rGM+d/lFAMTSxyfeMIZnz2M8kbN/yu9eNZUSvQVgSWlD5vlCMUyXsldfGwWGQSxgJj8W/Nl9A3OQ2iI1ryC1Gl5QQOqhASwIZCVBqhAKJ3Xw92KjGmGuTnllEGwDsJBgjbmBL1BmEAqkua79XRshpgKTDmgAD3Axiwe4CiAFYjFjp1ChaAK4nJPCivpG+Zk7K4dBrmtSihk4AGTibADuug31IQHWvv/976fyMNV7J1VQfd3/lnJez6f7bCGCgQMHxuc///mUNrqnzTtBGSgtlaoP6OKNppPhGWyoZ6N62QA4CkUect4tfmme7+I9qs19BOi0MWIBlnu/dJ4ourQB1IxSei1+QIGmvt4x7484AMN825TJyiZWELWf33tfnacxN8owYBpEB7+BvpxG2Jh3JF+7JhHIAKsmUSr/fTLAKv97lEuYI9DYETBJqK9lYtTkoEnCvOUINEQEjPmNz00+Gw/xA64Pi6KGqEu+RuNH4C0AC5xh3g7WUGAZXNbnBhgZ9Pm3SLnb/XqUKn52VyZVP674uwGvcxko+7fY/N7xxX5AQXWAZZApVXDMmDFVqVHFvgVUUr7i3MW5nLf4vfL4b38rfooyUo0U5acsofpiIG/Q7rp8xgzAG3JTDiCBv9jw4cMTCc+D7bq/A4AN9RKg6vmSQvhOoGV/AJZnHowEwKTXefY8d9SGUuxcswBgnlMQCMQEjl1Xip59/M1HxqwISAUKF8vigkXUjM7n/dBO8H7ybFOX2c+Pc0jpA3p9nAq1GcDLewE4di2puVRK9tfuUDeKk/39XR08p+oBBlkkgZLS//u9uqoHtSMoSKXm/5Xf39XLedSter2Un/JQeeyrXsppH+X3e2VwTnWoqTJS++BeS4kGH7WffPXyliNQzhHIAKuc707Ny5YBVs1jlffMEWipEdD/ArE+8YlPJAW8PmLecgQaIgIyLQqbIuOLr33ta2k8kbccgVIiUAWwDN4MvqgHpAfJjTbgbo7bngAWEkxdYrBaH0oXg3EDY0CDl5Y0IwNxAIvCpKHTnwzUkXAKOANvJvLUZnmr2whQ4RlYUFDpLAAw7+QpVyrAAq/AKACaeos6CcQClaiTwEkKP+nAnm2Qx3OoE3P//fcn8OVdp8LzLEiHBZaYzReptfb14bnwwgtT26AOlJr2BY4cCz6RCFttExS1rxk+AAkQAsuoJsWDmT0jR4qqYrVRK2OCqNSQZgfFA9iiWFQXSkHXBsw8u2YRAbSPfexj6R0Cq6T68naQpkumbCEKZbN57wAl1zX7A95SulGXUWeKozqIDQAHmlFIei/8/742sWNU6drg2rnnnpvKm7ccgXKOQAZY5Xx3al62DLBqHqu8Z45AS43AD37wg9RP/Lu/+7vU78keRC31SWj4ehsHs/3527/92zRJ/q1vfStNEuctR6CUCLwFYDFFt7qfgae0PIPL5rg1NMAyMDZI58tlwG8QjzrzNxJrhvkN/REBMSjAQEvm03zEslqk7p92gJDPG4giFRC4eSej/lIAlmeLigg0AW54Z0lbBZFAM6CG0glM0VmhNKI+nDZtWlLggTdScoEjZQRqQC2eUxRP5OVS+sAl3lR85KTHgWG/+c1v0kIKrq+t8K/nXJmcD/wBnYBh53Vd3lX8F1yLGg2YAqEKfznl9k5YJIHayzH82oA3acLUVmZx7E/FuG7duuQ3Re3k41jUC8xTL755ruVjqV6AEs85gA2QMxsJhPHjAqCUBWjzPoJ+/LUsZvFOvmXVnxiTAIVBqnZU/dUxbzkC5RyBDLDK+e7UvGwZYNU8VnnPHIGWGgGLdLFq+Od//ufUJ6yPCfuWGttc731HQJ+eF7BJ8H/5l39Jfe+85QiUEoEqgEUd9OMf/zgpsL785S8ng7WaqA5KuWhjH2OAbaBqSU++ViS0UibBBQPXum7QXY8iA2SgAqGOKQzsGME3homdwT6FynXXXZegpQaFiqUxV3Jr7OeiLq8PZrjv7vkVV1yRVr+kaKJGeiej/lIAlvQ3XlC//OUv0/NMhST1DbwCcMAsHwodlcsuuyx5tNn/Jz/5SVILud/gk+fefs4HaAJeNQVYFEvOAVp5d4AsHynPuBVuKJ4oDL1rysgvjjKsAGEUYNJqtT8Al4UQQCzvI9BLagxcFasxgmTeowJgfeUrX0nKNvBIGiIoJ8ZFvcA27xxgVSxOUR1gUZfZB6QSO4DMucQD/KOS9J7WpG0QP3Vwz9UPiGssA/66fJ7zuZpvBBoLYOlzrN+wIdat2xBvvvlGetd79uwR7XdbzERbCmxvqKiIbVu3RZu2baNXzx555azdHskMsJrvO5prliNQVxEoANZ3v/vdpHTPW45AQ0aAp64+uzGKZzADrIaMfvO6VhXAYl5OUUFl8Y1vfCOlFDXEiniNEU4dYgDHoJYSqfDcqckAtZTyFjBD2p4BrmsbMANXXuLGirNyAFiUOAbpoAJFTF0DvFJi1tSPoeYBCAFhoEV8QaE9rT5Y1LW2AMtzxVhdGpyVPSiHpIJKfQN9pBWCk1RJ7jWVHUUWVRhY5PlTJh5s4BCgRdlEKSiNr6YAS/kBOufxLEuPtUiBAWmhwiITBs6UBeCSWkiRxmML6KNK9BxSBFJVgT7+BipJvaRkshCC51M9qwMswJ1SDLj60Y9+lMCTslBOAXqAmXopF2XZ7gosUE1HDnCSOukDW5jJu+af/Mmf1Di92H3XhppZorCk4ALIMxhu6m908y1/YwGsNWvXxfQZM2Pa9OnxysuvxrHHToxzzzk7jhw08C2LVninNm3aHDPvuy8WL1qSvp3nn3dO2k8bkbfKCGSAlZ+EHIEcgX1FIAOsfUUo/70+I5ABVn1Gt2WduwpgSa+hFvFwFQPClhWKlllbA3vwg9Jk0qRJSaHTWECtOd0BUAYU5uEEnIAm+/JDqi3AokrgdyUNDnyigPr0pz+dUkHBKQDN4JQqSRog006eVgCLew4MWQETuDQQZLAOhgHZfldTgAVUfeELX0j1A55cE0hSHxBHGqF9gDNAjwoNZJOiB+gBcVRYru95BLHALjE0WKW+8mxaiRBoAuOk/RUKrC9+8Yup7pRPBnHUZsCRY8Asyi/1ku6ozrsDLMcBZCCc2AF/wC6fLSmX4KM0xJr64/E9u/zyy1PKI4hmgQagOm85AuUYgcYCWKufez5uvuW2uPHmW+L5556PwYOPjA+8/30x6eQTo0/v3lWwH8Cq2Lgxbr9zasybNz/B9g9c/N4YPmxofq+qPVAZYJXj25XLlCNQXhHIAKu87kdLK00GWC3tjtdffasAlhQkpsYGh1KN+DLlrflHoPBOoswBLZhe700l1PwjUjc1BG9AGBBEGh84AqzsbastwKIeBLD4UzEfZzZOLVSkwkqF83fpbLyxACkwqFAkgSsA1rhx4xJ4kvYHDDH5lJJXU4AlVY8PFbhExQiWgWbUhuoMPBl0gnl+eGIBWMpbHZYqL/gDdEljpJDk0wYEUl4pD0UXAMZHqzrAojhTR6CKaT2ARU2lPOrFcF4cpDXuDrBcT6qfc0st3LRpUzK49244XntYG4DlXvziF79IwAswE4Pmmo5dN29LPktjRqAxAdatt90ed941LVatWh2HHXZoTJgwPs484/Q4/thjEoT3LcoAq2ZPRwZYNYtT3itHoCVHIAOslnz3G7/uGWA1/j1oLiWoAljf+c53UjodpYQBJ0VD3pp/BJhdSzOTNkixYsCd0532/757l6gaqXtAEP5X4GBdAiwKJSt6XHvttWkFQml6n/rUp2LEiBFJuQQgSc2jhpJeZ7U+Ciz/feONNyZ1FIAFVimjFQSl5gFiAFNdASypeZ4vEIka7V3veldaJKJoY3jhSAukwgJ9CqWT/3cMtZh68sXiqUUlWKRmSjekwGL47tz29RwX9aJ8AubVS1ojn7f6Blg8waQgUsDxzpKOCcDlLUegHCPQmADr9jvujPvufzBeeunF5D/3yquvxjFHT4yzz5iS0p3bt2+XFJr7UmCBXNrcl17aHtt37IhdO3dGq9atot3B7aJjx0Oq2hSQ/KXt29NEXedOndP5C0i2ffuOBM137dqZIHn79h2ibdtKhajf79jxcrRp0zqBNe3la6/tDLYAzvnqa69FxJtx0EEHR8dDOqR9fEcbMh0/A6xyfLtymXIEyisCGWCV1/1oaaXJAKul3fH6q28VwPqzP/uzlC5DgcCbptSlLXUk/egg6rzpHFJZVO/IFX/3r7/7aciOXv2Fs37PXHh3iW0R1/1N96N4mTlzZkodpcCiXskAa//vIwN16XAGhwZivJeklNUGYFlBD/yR3gnEVH9H3Hc/AI4lkQEp1wSwgCmKJAsHUFQV/lg8sKizZs2alWAOgEQZBihRCPG+uv7662u9CuG+FFjAE0jFa4qReqGO4k9FdUaxBEiBfQCq8iun51z81G369OnJgP2SSy5JKrLqAOtLX/pSStMrvL2YQoLwrmsg6vfqRf1ltcL6BlgUd7y+qN+UVQolH6y85QiUYwQaFWDdeVc8/PAjccghHVJK4OLFT8aBBx6QlFhTTp8cPY44IrVzewNY+hHg0sqVq+LxefNj0f+sqmuhh4MOPDAGDRoYR088KkaNHJFUpouWPBmPPfZ4bN26LU479ZQYMWJ4AlwA1Pz5C2L27DnxwqZNMemkE2P8+HHRpUvnZCA/57HHY+ETC6NT587pfEzkn3t+Tcxf8EQseXJpUtn6Pvfr2zcmjB8Xxx13bBx+2KENqmbOAKsc365cphyB8opABljldT9aWmkywGppd7z+6lsFsAwqGSFTRlBkmA0tZfNwUn0YqFp5THoSI2SKEJtZUik9fHh0+qTmgGYG3Hl75wjopFOpSM+SmuZeUfRQnuxPyt8zzzyTgIVBDOUKLyAd/bztXwTMyjMl95x7p8SWIXlNAZbBiHcFyAHAqkNeMEuKr3fLe8P/ir8TFZa0PH8DhyiwvIeUQIUZOaBifybuVE0gFpWQc1ITeB5ATSbodaXAoj6z6idwxl+KOopKjO8WgCVN8JZbbkn+VcqtzgA6YGd/Zdq8eXOCbZ5PbVP1FEIrmvDToiC76qqrkuIK/FMvai73wjmeeOKJPa5CWNcphAbP0hkpwoArKYi5fdu/9ykfXX8RaEyAdQeA9cjs6NWzZ5xy8onx7MpVsWjR4ohWreLdF14Q48eOSRNrG194YY8eWL5V1FELFy6OBQsXxpo1lSDpzYjYufO1pJLq1atnjBszJkaMGBarVz8f02bMSKDsPRddmPy2jujePak/p06bka4hhdi1z5xyeloV0fnvuGtazJnzWAwfPjSOO/aYNMnz8KzZKb3ZNdoeUKm2OvCAA2JA//4xZcpp0bPHEQ36Lc0Aq/7ekXzmHIHmEoEMsJrLnWya9cgAq2net3IsdRXAovKgfjDYLEygSymwAbuUJik0Bm0UJOCYtB+dTYNqA0ZpSrx4Lr300qSUMMDO2ztHwEBfahI1DZNtgKEwnZbOUOoGIgILUqxAFl5AGWDtOZruAYgIvEgRMWB5J+UgGOQZB4t4K0ld2xfEqO6B5VgKHsql3a8hHY1azoqD3luDL0orSiWAUxmplwyyQGRA2nstlU2KMMBjX8otxungqN9beRRoBsJqswrh3hRYfLGo+kAqAImaAoQCqZTPtcEp6i/PNfBDVSYWNs8imKVtkj4otdExUgsLD6w///M/TwbyYqVOfoA7+wFI6gWMaXf2tAphXQMs98N9B+WAQcq3vFRwqS1UPq6UCIAu3gfPvfZqbwrncgBY/fv2jXdkVDlUAAAgAElEQVSdf26CT9PunhkLFixMoGjy5FNi2JDBsVU68V3T3mbiLjbPPLsq7po6LZYvXxG9+/SKsWNGx+GHHxZbtmxN0GnlqpXRvVv3BKwOOujAmHnPfXH3zHvj9NNOjSmnn5aA0/oN6+PW2+6IadPvTmmMU06bHGedOSUGHzkoKja+ELfcdnssWfxkOmbY0CHpmrfcelsC5OPHjY2RI4dHmzZtk1KsVURMnDghuh5+eIOqmTPAKuVNycfkCNRvBIp+o3669nhv/cb6LUnl2TPAaogo52u8UwQywMrPRl1FoApgMTwGRQyKpTrpmJWyGfwaWFrFy8CUabL0RANPA9ECYElhMsjjywNgUWHpvPL1kQrlx/8b8BrEKo9//Y4yRefc34rfK6sPheMMXH0sDB4pV5xTGoBjit9Xph3sqBooO96AWme/OG5v9Xd8cc5isL2nc1TfT9ldH1xQpiKF0vX8FOmARaqg8rqG/WzUKMylAcJzzz03pSZR4ewPwDLbbAADmABYn/zkJ/frfKU8M03lmIqKiqRWA5A8r9LT3Lc9eZ0YQDJDB2nFlNJwXz5IniNKJTAKzAF9PKO7b64LSgGYAJbrUzUyjJcqZ9U916dcALrAK+8f5ZL3wXupXAY8VEKeR/tpA8AXaq7CAwtYdj7PHOUfGK2d8N6B1IAqtdPnPve5dLx3lAG78nvXPZ/O5V2nVqD4ArRAr2JQ7V0QW95c2g3Po+fSpsxiR7WlLdGGKKMUPdf3Tri2a3h3lVG9xEK9qN8cLx4WqhA3KYQUYFIX7eu63iXvlLYPAATICv8y4AwEq+kqhO6ZGFxzzTWpvfqrv/qr7CnYVF7yZlJOKmjPoHbKuyZF2HdiT2rdsgBY/frGxe+5KL3f0gDvf+DB9J6fcMLxcfKJx0erVq1j2t13x7x5C6pWIRw2bGhSjT7yyKNx9z33JnB0+umTY9DAAeld5YdFaXXHXVOTCvWyj34kHLNo8eKkturdq1ecNrkyjfDZZ1fGjLvviYWLFke7dgdHzx494vjjj43x48bF6tXPJUBG3fXe97w7ehzRPeY+Pi9uufX2GNC/X0w6+aQYN25MtG/XPmi/xPiQDh1SW9iQ1ggZYDWTlzdXo1lFgCLbgjD6bUW/UfvU0B55RVAzwGpWj1eTq0wGWE3ulpVtgasAFg8Zg0SrmOnwGgyWshUAS/qUB5Xyih9N4XsDPukw7wlggTXSmgyqKTLAKDMW0uUM1KVGOV7nnAcOFQzlhcGojqIBqQ8F8ONDYVBOgWGQawBtUDty5MikhjG4NgjWybc5XnqVVCSDXMqVvaXmOb7wjzLALzZpYgbMBs4UNzrYlCf8fwyoXd8HzWDeQFmHHThyXYDDNYEMKhSePRQ1Bt/K5odiBjQAJeoCYKmH2PzHf/xHKgcYUOq9L+V5aUrHeL6+973vpXsDdHiOQBX3ZffOiLh+//vfT/feCn3SPfe1Eh1Q6ZmntHMtAzhwZ/fNQJSiR2qh580z493heeVZ9Hz5f/eRabv9Ck+7ynSbhQnQADc6VephZUDvAGgD9BQAixoTkJGe57zaCfV1Te8qyEa1pX7eGRDWc638nmO/k+aqbN4F11Pm3WOhnsCa8lMFeofBHx09xwNp3mWDwiINmZLMft4p7YQ0QfWiAnV+9fIuqpf2xMqABcAC1sRavUBDijD1Uj6xW716dbrP6qnO6lFTbzjlUzYAU/m++c1v7jN9tCm9B7ms5R8BINvz7r3wDnsXQFhQe/fvWrkArA+8772pvarYWBGPPjo37r3vgejarWuccOwxMWBA/3jw4VnJc8q7/YGL3xtDhwxOiqc77pga0++emdqdgQP6V61euHPXrtiyeUssX7EiGbJf9tE/juOPPy61LwCW9//kk06McWPHxOIlT8aSJ5+MbdteTPDJv1IOjz3m6Hhy6bKYO/exeOPNN5OKq9v/LHSz4Ikn4oabbomKDRXRp3evGDdubFJmKWf3bt0aZXCaAVb5v5e5hC0vAvpI3/3ud1O7oy9hVWLKdG1dY0CsDLBa3jNYTjXOAKuc7kbTLksVwDJIpIailjLYrelgbffq7w6wdDYNbj/+8Y/Heeedlwa7Bs67AyxwysAdVKIykkpk8GdAqeNdpEvpkANRBofUL34v3ckGXl1xxRVpQApsMbQGGgyKnZNvDoNoRs7AApWIshQASxn8nVG0ga+0qt03g2rlkt5FLSIVS7pSsRkEu7ZYUqQYzFrl78orr0yDeHVRPgNcHW7qFYCPmoZnj/jYrwAJ0vtABxDCsa6t7I6pC4ClE0+18k//9E8JYDHEzgBrzy+1e/7tb387md6DTQaFgIj75v4Av6AqiANg/fM//3OCnH//939f5fnUmM2FMlM23XfffckDyzMIDnteATHABvwBuLyrgDY45D0r561IQ9Qu8MACpbz33vMCnqmX94b6C0wv/LHqo17AHUXcv/3bv6V33AqvQH7ecgQaKgImkExKAMmePSm4YLv33TfKNx4IB3fLBmBd/L4YOGBAWs1v+fJn4vY774qVq1ZH714949hjj46lS5+KZf8ziVAArMGDj4x1a9fFDTfeHA8++HC8+NKL6Xt68MFvT5mkqDpt8qkxZvTIlBJ49933xNJly+KoCRNi/PixCYy98sqr0blzp9T3mTdvfvLlOu64Y+KJJxbGmrVrk1fWOWefFV27Hp4M3AG1OY/Ojc1bt0THDh3+ANqHJsP4/v36JWP6/V1kpTbPSwZYtYlW3jdHoGEioD+i32gS20QdgKXfaFxU9BuNaxqqrcgAq2Hue77KniOQAVZ+MuoqAlUACyj67Gc/G3/5l3+ZlA6lNqbVUwjJ9iko/BgQgy6UUYDPz3/+86oUQqugmRkuVhYz6C9W2StUGMypDTx1xKkjADCKjVNOOSX5bFE33XnnnanTbvAIRH35y19OyhKQ6uabb04KEsoSg3WdPUouAEf5ilRFnXvqJiue7cmXKy3pXVGRVGLKYHYFpPJ7A1dqFYMDwM55pEAVAMv1xBakKlIYqT2UUR38UGGBVsonXQ0Isb/BhmtQ5dgYbNcFwFJmA/u//uu/TgDL/c8Aa8+vl/vuGSu8msTJj1k1z5tn0X97lj2PAJZn3eybZ6lUKFxXL7vnx/MJ5nj/AN+0WtdBB6Wy6Vx5zryjIC7Ysz8wu67Kva/zFPWiJFQvykWQuHq9KLfcA+mAUgXVq7683tx7MFCnVTn+9V//NUGDvOUINFQETEpQ6gJZJkRAaN8WSl9tFQUA2GPgBFh/7WtfS950JrAaalv93PNRmLj379c3PvAHgAVAbd68JR6fNy/uvGt6MnDna7Vl69akeOrcpXN88P3vS/5U69ZvSKl8FFGUT2eddUZK/2OqXn1jrt65U+cEv/hdAV4z7p6ZlJdjR49KKxda8XDIkMHJlF3a4cEHHZRWFFy8eEm0at06Ro8aGSeeeHx06dw5krpry9bU11i27Kmk4Fq+4pnkgwWSveuC81J6YalWDKXcgwywSolaPiZHoH4joA9gDKDfaJJNv0N7rO2p3m80VtA+1bcqKwOs+r3f+ex7j0AGWPkJqasIVAEsgz3qm69//etJ9VSqd0MBsBgpU0FI7zOIdz6AxOBRh1pjbsD50Y9+NIEewEraA3gDMJ1xxhkpbYdihF8P1QulCAim010YVvPUocKSnkRlVRg7A12f+cxnkpIKbAIepC4BWGCV9ArX9Hc/hcpEHKg2lEEc9rSBXgb+UqgoomxAFIkw/yKDB4MBChYD1wJgUZhJLQTHQA6KHuUyAFc39fBxUzf+OcpXfOB81IrUSdd9//vfXycAC0gDDN179wfIygBrz6+Xe7xmzZq4/PLL4+qrr073HqzwPHoOQREwEsiiXKIGdI/tD8CW+k7V1cvuPMrr/dORkipI6QcE+71NOaURA87e30KlUZdlqI9zKb9UYcpNHl7+1XYU9QIWi3pRodRnvQrILXVQm/B//+//TekCecsRaKgImPiQNkv9aQLHJItvCFWx75vvkm+ktsr3zLNKBVwOAIsHlYmVDRsqUmogj6sXX3opXn3llfTt7j+gf1zywfenlL1NmzbHXdOmx728CTt1ThCMAqpjx0PeFmrtr+M3bd4cjz8+P/77uuujQ/sOMWjQwFi/bn2MnzAujp54VOzYviNuvOXWNHnUt0/vWPbU00lRdcqkk2LE8GEJSlnl8M0/+GBKN/RdeGze/Ljv/gcSAPvopR+OY46emIzcG2rLAKuhIp2vkyNQ8whoy/QD/vM//zMpxI1V9Euo9Yt+I0sDbbE22dijPic7M8Cq+b3Le9Z9BDLAqvuYttQzVgEsDabVvP72b/82NaylbgXAApPAFyBKBxpEMsNAbUVRBPQAMgAWU2gd7GLVNuBKugOARHHE98lAG3wCeUAxQEsqlE6plfOk6kyfPj1dS8eTNFcKEThFyUS+y0fLD2gDYBnIS/syoAVtHEPWW1MPsCKdkJ8VGKecygQwqaeymmUpAJYPl9+BT+oIHKkzsMWnRD1AEYbZVjAjM6YYUQ8wyzX8TT2dvy4UWOoAMH7+859PEM/9qs+PZ6nPVbkcpzPiWaJe8sx6lgyKCl8ZA0OphX6kw4Je//Vf/5WUWeUAsKrDVu+UZ9b7UiwUQJUBsIJX+9MONMb9EmvKJxCct522o6iXQbtUY4AOcKzPzTsFcH/jG99IIA101/blrTIC3gNtO4io3a6+CEaOUd1FwKDJZAhvODEuAI72yjfYd9Q3mjJLOnxhIVB3Jdj7md5JgQVgFYu1UDbdf/+Dcd8DViddHx06tE9+Ux++5IMxfNjQePmVV9JKg7fednvywzpm4lEx8aij0mqEvunaBKmBBx14wB/SCw9OwO6pp56Oa397fRpYtu/QISkfrDx4/HHHxEvbt8ftd0yNJxYujJd3vBI7d+2Mk086Ic48c0r06N49Xn3ttdi48YXYtnVr5UIe7Q5OJvFz5j4e06bPiO07Xo5PfOzStIqidMOG2gAs6cq8P7XfecsRyBEojwhQt1OGG7cUC01V7zdK89Zn1EcxkVyf728GWOXxTLTUUmSA1VLvfN3XuwpgGYAzm65LgKUxBmsMKnWugB6ACDCSxsSfQ6fZfsWqbWATyS0lkgbeANRshf8uVEpUTGAOCGbmk9rJYFUqnE66/f2rY87rBlSzv7Q711JXKYUGl1IADaKkVslNl8anA0gxoVO7p1RKnWLXUy8fI15CoIZBs//W+Vam3QGW2/fpT386pWYBWHLjASkgC+iStkU1UqQPip3zgFviYCBioOEYCpm6AFjK5PrSR4E09S41fbTuH8/yO6P7IE5SR/y3n+rLInvmdD74n1HiGeBQYtVnh6S2UfJ8FqtjelcKyOM87n2RelcuwK029VMfg/Vilc/i2IauF4D1N3/zN0lVCpqVu49YbWK8v/u6F2aZQRTvERCct7qPgAkT35gC5Bar+rqS7ys1VuH1aILJAh7losBSRu3S1q3bYv78Bckwffajj0bbNm3T6oB//KE/SgBLG7X6+TUxbdqMmDP3sdi587VkpN6nd+/oeEjH2PV65Wq/3bt1TYbslM/iAFzdfOvt8cCDD6VUwKOOmhAXnHdOTDxqQuoLAGa33X5nPPGEb/OAuOjdF8YZU05L6quKio1p0gdc0753aN8+tu/YkVIInbdbt65xcbJLGBod92MysLZPhH4DaG7iQT3zliOQI1AeEdAGsT7xvSv6XNX7jdoRk5xFlokxTn1tGWDVV2TzeWsSgQywahKlvE9NIlAFsHRov/KVr1R1gEodvBYKLICImucTn/hE6vRZHcwP6GNAp6Nn1pJXVHWARcFUAKzqZTCoBpioGexvH2mIVC6USjqdlCT2cRywRWGlk+5fg1rXItH1seBnpCxUKLfeemvyAbEVyq0LLrgg+YXsvhS2zq/jwC/+ItISndO/Pk433HBDzJ49OwGm3QGWcklrpHABsMCzAmAxkN8dYElBBLCYt/sAgmMGxHUJsNQHwPrTP/3TdF8ARcqIvL09AmJlUChFzWDBM6cz4hkpoI/UQSo/s2meD2ltOgwAVqnvVL4XTSsChQLLZACoTdlK2Za3ygh4D7QxJhKK2egcm7qNgO9Fkb5M6QwSAofi7gfg8K30LfJ9lt7ie9WQAIsRutUAZ8+ZE/369on3vvvCtNIwD6xi074+//yauP+BB+OmW25LMI7C6oMfeF8MHTokeFt5hlaufi7mz38iHnvs8Vj13OrUNh94wIEpXXLI4CPTSoMTxo+tsgXgsSXdj9fVc889H2efdWacecbpKS3xlVdfjcWLFsfNt90eDz88O8aPGxsXnH9uUmd5Zk0yudbM++6PVatWp+v7Bhx++GExZPDgGDduTIwZNXKPKz7W7V1+69l8k3iA+obru+QtRyBHoPEjUGRqGK+wOClSCKv3G/mO6jdqj02672kBqbqqSQZYpUfSvfRNev11E9eRslXqcsK/OL/v95tvOn+bdP7mNHbIAKv05y8f+dYIVAEsnVidVx5IVCSlvjC7AyzARkqezrS0wttuuy3J+sErIIkvTfUUQimAjM7NDPt70ThoKAwCqbdAJh8BJrVgAjhFwcWDSEqi450HMHMt6TtUTDp2xUp/hek6NQ2ljNkRCi5Qyf7UTfy6xKL6suMaL/sBVWCSvHXKLgbRjv3JT36S1FiOrS3A2j2FEBiTQmhWRoMGjBXqLEqxulBgqQ94Z5BNuszMN3tg7bmZ8IyJ1Y9+9KN074sUQoMkHgZAo+dLak63bt3i+9//fkrR86/nti4/dLkhK98IaFuAS/5D4Ln7nz2wyvd+NceSmcDxHQI0qIWKBRpMUvgWUkJrq3y3TCZR7pgcakiAZcLpmWdXphX+OnXsGMOGDo0uXd76vXVvpNWvWbM2Fj/5ZAJTPY7oESNGDIvDDj00DSC8byDShoqNsXLlqli3fn1sf+mliFat49AuXaJnzyPSioLdu3er8r7TdgNoTz39dFJ5DRlyZAzsPyAOPbRL7Nr1evLJ8rfVq5+Lnj2OiMFHHhk9e/ZI/SLXYh5vQmn9hop47dXXkmn84Ycdmvo6vXv1qlrNsCGfreyB1ZDRztfKEahZBIxVTBJb+dmkpvZMm6WPqN+oPS76jVRYxhz12VfMAKtm9233vYqFt5YuezqeX/N8HND2gBgzelQccUTdLAhUpM1T8rKheeONN2PkiOHRp0/vevVsLS0apR+VAVbpsctHvgPAAm0+9alPJZBBHVQd2tQmaLsDLGkJ0uN0GKmreE9JE5RiA0RJqdvdxL3w4aleDuVheOhvZpCBKV5QPKScV8fWykpWHqSGkmtuVtnLAoYVpucgl5RB4KpIXSlglrRGiiwNFeUTFZYyVPeEAnwYYJtJcX2QqTBll67B7wqsc2xtAdall16a6sa3hMG265qVAZaUkbePQYnBsRUZ6wJgiaMZegMY15FGmgHWnp94z5L7YoGCpUuXplkyP1RXhdm+AYyZNUqB//N//k/quPjXDFt9rXpXm/cz71v/EQALQAGrUGrnrEKZVyGs/7jnK/xvBIpvrW+UNl475dtJGaqt8k0sBkqPPvpofPWrX23wVQjz/arbCGSAVbfxzGfLEaiLCJhMMNGu32hC05jCT+FBqD02Zmmo/mG5A6xiPGbCeOu2F1NmTTFZbEwkRfrwww6LTp06Nmi2iHEh70Pp6o8vWBDtDj443nPRhTF82LBo377dfj8qzq/O9973QDzw0MNBgnXeuWentHZ2C/UJNfe78LU4QQZYtQhW3nWvEahSYGlAP/KRjyQfDIqSUhvTPQGsYjUzM5YUWFRKGnLGhRRaDMmlNOhsA0NmjAsPLDOeGi2zFYCNfXXE/U7HmyyXGsr/Sy2k6PJx0IH/4Q9/mNRS8smlMvpQaCSk/1nlj6dUdYjlv/le8cACvPwL5lRvOAAsqzvxovJBAs6YQvO4Adkoy5SFqox6yoz31KlT48orr0yzt3tLIbzssstS7NWrUFqZvdF4OSelGTDiv92rugBYyk+BxvwVwDIDnwHWnt8Zz6zVuoBOwLeAVjoiVH+egyLl1Ef3e9/7XlJs8UICuRpySfX6bvd0MoAaz49/1dtz6h0oVb1Z32VuqPMDBgC51Qc9B9/61rdSBzVvOQINFQEDJuorkzUFYJdq75vrW1t0iL2rGWA11F2p3+tkgFW/8c1nzxEoJQImtPUbtbPaXlkbfqiu9CP1G+tzVeTdy1zOAKtQIVHRLlq0JBYvWRLPPLsqTQQan4FXg48cFJNOPinGjBkV3bt1q/Jz3cUruVWrqjFbKf3Q5A/75ptp0id5L7fiCXtgGgP6mxW777v/wViy9Mlo1659nHXGlDhy0MBaeZwm/9mdO+P1XbveYqfg/PrTsx6ZHXMeezxde/Kpk2L0qMqxQyn1KeV5re9jMsCq7wi3nPNXASwKEaojaXZ8KEqFGHsCWCCOFxDcYaYOLFnFTSea6uvCCy9MKTZM3sEe/llMZUltbaCOlDyeUGAUyGSgDHSBSFRYGjbnkYYHdvlY/PSnP02KJSDKKnt8IcAfSinXIOctvK9chzqLL4iUQNehpqlutGgfjYwXECBzfqmKUgrEzGqBNvXwYbrooovSTLfVR6Sd7QtggWzioLFWf2ofsEzcmB4biIAFUhXBq7oAWM6tDlbKA7CYuWcPrD03AKAEBaFnwL2gLKSs0SnZXbEIXFx++eVJ3QYKkoo3tVX99tYM+sB7DygdzTCC1FYJpZIsVb3ZXJrdylXOnkopAzpdvLC0JXnLEWioCJgM8i31XSrS7k38mGjZfSY3A6yGuiv1e50MsOo3vvnsOQKlRIA9iX4jIFK932iM0Bj+RuUKsJLyKo1vVsTDsx6Jhx6aFa++9moaJ6ZFcN6UFd4qpY5PGD8uJkwYl1LDqZake69fX5FWhB0zalQcdtihJfVD3SN996XLnoqNL7wQh3ToEKNHjUqp7e5V5UrX62PLtkqhgnRxC3XUtM9bpCE+vXx5rFm7Lg468MB0fqvVOr/xnUVCNm56IVpFqzT2PbRL52a1MnwGWKW0IvmYPUWgCmBJLZgyZUqCImCWRqOUjapJGh6VCp8N5/QSgiJeTp4wgA7Vj5eZvxPIY+CrcXA8hZR0uQJgAUsM4a3s5lzFxkwdEAOplPfoo49Ohu5SI8AGqYr+rgNv5T+zzxpClBsEYt4OghUb8MXHSNqe8ryTCs2g1EfJIMHx/h/IUBeNsBkXyqnx48cnBZb/N9AHsMTDNUA4qYDqyfxdiofjlaEwilcvCjKQSQwofcTQNcUMbHPd6imOtb1nzOx5azGGB7Cyifs7R5D6Tex1PKS/7m7wX/1I9x+0nDdvXgKi4CmVVnPZvKvAlXdZuhzvBtDXILmmH/PmEovd61F4pQHkOiXScqu3W8213rle5RMBHhrFe6nd2ds3IgOs8rlv+1OSDLD2J3r52ByB+okAIMJKwkSnfmNDqq32VKNyBVjGg9u2vZgW15hx9z2xZu2alJ43YsTw5C/Ypk3bNP5p1bp1WlW2X9++yWtwQ0VFTJ9xT/KNosg6+6wzom/fPiWNi2S5rF23Li0uwncRIHO+Xr3qpl8LkAFjM++5L0GyrocdFmedNSUGDhhQUnnr54mt37NmgFW/8W1JZ68CWFbNA0WAosJAvZRAaAAoEPxQcVVPKypWWACmQB//7+/FCm5F7rNjC6NDZTAgrr5fUS6NmfPYFxwCp4oZZn8rrgM0AEY68fbTUConyGAgXmyuoyzUYsW+e4pB9fQpxzufaxQpYs7td85V+HWBZraiHsqhMVNXZXVtxxeDf39zTCFlVR7ncm2/c2513Vs5a3L/wDNqrxkzZiSlmrTHUtNHa3K9prxPkv6+9lqCEnuDV+ro3klTBVDBU15pzQliFDNJBslFGi2VoOfSOyl1ybMqToU0Wuw8rzpyZPOlqjzL/RlSd1DACqnaHapGADpvOQINFQHfoGKF1H3N8meA1VB3pX6vUxOAVaToaKP1RfK3vn7vST57jkBt+o0NEa1yBVi+WRs2VMQtt90es2fPSRDqzDOmxKiRw/8A/VrLgUkhat26Tfr3pZdejKVPPR133Dk1Taj27dMnTpt8agwc0D86de6UFFSAl4U2dry8I423du7clc5jPKUNbN+uXWoHfS8t3rHkyaVx+x13pUyYAQP6x2mnnhr9+vWJTh07Rbt2B1eOb63q26r1W3y43Gd/2/Hyy1XXadOmdfLKkn1hbGfM+dTyFTF16vRY8cwzSSihvIMHDUyLlnXo0D6NMV5++ZVUv0MO6fAW1bQyaru3b98Rr7xq7Ph6tG5dmTapr6kuxpaV53g5nacY4x540EEpHurQmO1+BlgN8Za3jGtUASzKGwolKiZKnOakFmkZt7K0Wkp1kg4pldJ95zHWmI1babUov6N8PHizSamlHOSX1ZxWovMRlSpLxUiNSB0IfoNTFIe87nxsKQoBWiDPh8v/W+DAs2Y2srkYU1Z/AqkapUhToYJ6FHj1uSx2+T39uURNKQIZYDWlu/XOZd0XwDLA0hazUNB2m6jUPuUtRyBHoOVEoKwBVkVF3HzzbfHI7Eej/4B+ccG558SYMaMToKnuAZWUTBtfiFmPPBo33HRTPLXs6QSVwBkqrOHDh8Vxxx4dJxx/XBxwwIGxetXqmLdgQSxduizWb9iQBAYAmVTEcWPHxBHdu6fVaO974MG4+ZbbYsUzz8bO116Ldu3bRY9k3zIijjvm6BgxfFg8uXRZPL18RQJLp00+Jfr365vg1IsvvpTOv2Dholi6bFmCcQCUYyadfGICVMuWPR3X38DMf1kCXQcffFB0PfzwVN5jJh6VDNutfPvEosWpviefdEIMGzY0pRqafNiyZWs88+yz8dhj81La5AubNqVysAo47tiJMX7s2DRJvHLV6li0aHEsXvJkrFq9Oj3cVF4nHH9sWjub/JQAACAASURBVNnQhGpj9b0zwGo5bU1917QKYH3ta19LjYQXgd9Uc1KL1HcQm/L5eTRJhaQaARX4eO1PSmJTjkVdlt1MDAUODzMfCyosS9Y3l43qiqk9nyfAygqg/OeAGp5q0id9qIqZLSm7ZrQssGCxBX52UmZ91JtbyqF633777QnsSa3kzSftNG85AuUYgQywyvGu1L5M7wSwDPZ8362cKwXeZBW1gwVl2Dw0F3Pg2kcsH5Ej0PIiUK4ASzu17cUX455774977r0vLVg1dsyYBHUGDRoQXQ/vmgzVK7NX3kjw5vF58+LOu6bFwoWLY/uO7dGpY8fo26d3DBkyOMaOHRPjx42N7S9tjyVLl8WTTy5N59y+Y0fyzXr11deiW9fDY+yY0XHiiSfEAQe0jXnzF8RdU6enfQGxzp06Rb9+fWPokMEJpPXv2zcefHhW2q99+w7xgYvfkwDTKy+/koAR83VZLXRi6sPHqlv3rnHySScmSCY9kbrriScWxbYXtyVlVp/evWLI4CNj9OhRCXbNX7AwHrQKYbSKiy48PyZOPCratmkT6ysqYt68+TFv3oLYULExnb9t2zYJbrXv0CHFaeJR42PTps0xZ+5jsWTJEgsZpv2UR11cY8L4sQlmNVa/OwOsltfm1FeNqwCWRm3Tpk1JhiiNLK+aVV8hL6/z8uC64447UkqXFEIgorEatvKKzP6VhmxXbPnBUSuBGDzRmsu2L4D1gx/8IPl/mfGnuiLXJp/mB8GjDsACvKg+m1sqIR8//leeAfec+g6oy1uOQDlGIAOscrwrtS9TdYClzdH+AFe8NgulNWUoH9KxY8fGP/zDP6TvfWPNxNe+hvmIHIEcgf2NQLkCLPXSZvGGeuDBh5ORO/gyoF+/GD1mVIJSvXr2SCp/0Ma+FRs3JpXR1KkzwsqFffv2jpNPPDF5Ax92aJdkvr527bp45tmVCVqZQD3o4IPSZOqcOY8nUNW5S+f48Ic+GEMGD45XXnk5Fi5aHHfdNT02b9kSAwb0S+fr06d3dOncGVOKGXfPjMfn/S/AAp/Wr98Qt91xVyxcuCilFZ5w/PHRo0f3lOqnr9y/f7/o3r1bAkmuOX36zFi5amX07t0rnZ9wpEvnTknxxbz+/gcfqgJYRx01IQGyR+fMjRkzZ8byFc/E0CFDYtTIEWlxoDatW6f6UNP27HFEzH3s8XQ87+RTT5kURw4aFFIZwcEO7dvHgP79k/qsscZ5GWDt7xucjy8iUAWwbrzxxmQYboD56U9/OikH8tb8I0B9ddNNN6UOLYBFJZQ7tPt/381wUyhJz6RQ+uAHP5hMzpvLti+AZaXRFStWpNUJ3/ve96b0SYMoyiSpdeeff35agdQiB6UuGFGusSyUacXCDN6t5lbHco19LlftI5ABVu1jVo5HAFgmDr7+9a+nxWz4E1oQB7SitAaz/BgsWXFaarOVdPOWI5Aj0HIiUM4Aq9Iv9eVk4D5//sKY/eiclDJnIvSII7rHMUdPjOOPOyb69+uXUudALOlyv/v9jbFq1XMxePCgOO+cs1Nan4lRkCb5Uu14udJruG2ld5Z0wSeeWBg333p7Uix9/LJL03kpolaseCZ+e/0NKUVx6NAhcd45ZyWVlMyULVu3xp1Tp8Xjj8+vUmANGjQwpf39/sab4rnn18SggQPjrDOm/MH4vXVK/VNWk7hvvPlmPPf883HjTbekdMKBA/un8h45qHJRKGWdee/9cf8DD1YBLKopKx9KbbRCY9duXeOcs86MwUcOikM6HoKpJUWtujLBnzZ9RoJYbQ9oGxdecEEMHTo4OrTvEG/Gm2lsx5NLeRpLeZsBVstpa+q7plUAi0eNwaXBtnRCnjZ5a/4RAC51fEEGAEvqaGM1bM0p2maOrJJpJck777wzLrvssuQR1Vy2fQGsq666Ks0AgXYGSgCWFJbrr78+PW8UAp///OcTMG1ucMdg8V//9V+T+uqiiy5Kaladl7zlCJRjBDLAKse7UvsyaVf/7d/+Ld73vvclxad2yKSBPp1vkc0g7JxzzokvfelLyZuR8jpvOQI5Ai0nAuUMsIq7IGuBugpMWvbU08lzysryFrqiPDr9tFOTsgiIAYR+e90N8ezKVUmldeEF58WA/pWrsxeLXlFTUWKtW78hQXzZRpRM0vHsd9lHPxKTTz05KbSeXbkyfvPf1ycPqxEjhsW7zj83+vTuncZFGzdujNvvArDmVQEs16yo2Bh3TZ0Wj8yeE7te3xXjxoyJYUOHJDBFZVUsIgaiSSP83e9vSj5Y4Ne733V+2g9cohKbMfPetwAsaqunV6yIX//mv5N3F1+vM6aclry5qquo1FW9Hnr4kZh5733x3HPPx4jhQxOEoy6jAqMia+xVMDPAajltTX3XtApgMR7+2c9+lmbsvvGNb6TBV/ZCqu/wN975i4Zdp/d3v/tdfOELX4iTTjopfSAywNr/+yK+UuYArKuvvjo++tGPJvPyfa1euP9Xbpgz7AtgqbOPLZ+riy++OIFRqXW33HJL8s2yKmNzBFhmwmbPnh3f+9734qyzzkrwzqxeVjU2zHOZr1L7CGSAVfuYleMRvuV///d/nyYLDNIWLVqUZuYNmpIfS6tW6ftz+umnx0c+8pG0UE/+1pfjncxlyhGovwjIuJBt8+///u8phbhct2LV+k2bt6SFJ2Y9MjsWLFgYr7/xRpx91pQ46cQTolfPnrFmzdqkmNodYIE7QBjA9dTTy2PlylUpjc4CS9u2bou169YnQNax4yFx6Uc+HKdPPjW6detaa4DFgP21V1+NJxYuinvufSCeXLY0WrdqlWCY1QWJQfhkdT38sAScaguwQC5pjT/9+TXJs+td558Xxx93XHTu/HZbCqsOrly1Kh548KGYO/exeGnHjrTyoNUZwaxRI0cmZRig1lhtfwZY5frGNb1yVQEsHZ2f/OQnyXj6k5/8ZBx33HHZeLjp3c8al1inlhfG73//+3jggQfiK1/5SlqBMg+0axzCfe4I4Ijtf/3Xf6VZbz8M3Rsr93yfBa7FDhlgvT1YxQyYSYBrrrkmqa/4CXqnGquzUItbmndtoRHIAKt53HgAi3ret11qzebNm9Mkgh9tkzbID68UK8A2l8mU5nH3ci1yBBomAgACHyn90nICWNqoor0SiUJAAb5bsW/9uvUxY+Y9yaBciuCZZ5wRY8eMSt5X113/+7cBLOfj/3fX9BmxYP7COLjdwUm9VaQDSsu79bY7Ys3atfsNsA5o2zaVsWJDRUp5XLJkWSx+8snYtHlTWmVQyt/EiROiW9euqby1UWANHDggmb7/+Cc/S8e/+90XJBUWNdXu/Urx0/Zv2rw5Vj/3fFoVkUeYBYXsO+nkk5KhPFP6xlptPgOshnnPW8JVqgCWl50SZ+rUqSmVzE/2R2i+j4BZCKsRzZw5M9asWRN/8id/EqNGjWq+FW6kmlmRj7LRgIEaaeTIkc3CtDwDrD0DLCk7999/f8yZMyfe9a53xXnnnddIT16+bI5AzSKQAVbN4lTuewFY3/zmN1PKsvRtq1CBWbsrsHyHgHWD2AzWy/2u5vLlCNRtBG677bbUNnz/+98vK4ClnaKQ4sPculXrNNlr1UEbiPXiiy/F1Okz0gqF4M3ZZ52RVt6T6nfd794OsApD+Gt++euUTjd58ikx6aQTo1fvXkmZtWjh4rj2uutj1arV+w2wmMobQ+8C27Zvj4qKF+KZlStj1qzZsXzFihg3dkxKexw5YnhsqKioFcCSAvj008vjml/9JsXhxOOPS3WX1bD7ZLgyFCDQKoqbXtgca9etjccenxdzH5uXjO0nn3pKTDr5xKTCagzBQgZYdfs+t+SzvQVg3XPPPQlo8KSZMmVKnTRuiLDBLgmoFCIdKy8h74VevXrF8OHDk9Kr+ouoAbOqgv38zU9tO1qOlcL17LPPpvpYrQFxpjpiLu1fRvUgnbLU5kVWJ2X0IkoPYtbMMJABn+vJ1dY4gBbqWI4KDOW/6667kk8Gvwy+Gcqbt7qNAN8nPmPeAQo371Vz8HzKAOvtz4l24aGHHkqmyTpjUgilSuYtR6CcI5ABVjnfnZqXDcDivceg3Tdm/vz5qa+zfPny1N/Rh6JqsIAGD6xx48al/kvecgRyBFpOBMrVAwtw0k5Jl9uwcWP07d07Djv0sDjwoD+sOFixMR6Z/WiCOcOHDY0zzjg9KaoArBtuvCkWLV6S0vbOOeuMZPL+5puR0gd/+evfJP+rc84+M045+aQ0nuSvRclltcFtL26rAlhWCmQKf931NyTwRK3qfHys2rdrH7t27YxpM2bGvPnVViEcMjilED6/dl0ceOAB0bFDh3jjjTdj/YYNcffMe2PuY4/F6FGj4qwzp8T4cWPTtW+6+dYElUwinH3mlGT8zr6lbds28cBDD6dVGC15eNGF58eYMaNTHW+59fZYvGRJ8v06bfIpMXzYsDi0S+d0LWNdbf4hh3SIio0vRMSbyaPL+fxtztzHE/g76MCDEkg7/fTJKbWwNuPeunpDMsCqq0jm81QBLKHgmWDwZRWtc889N/3sz1a5osSOZCR6ww03JHUXKaOGCj2WpviBD3wg+W1peHSwQKDFixenzpcX0gpeIFdt0q4MJHlAuC4oZ0lVBtpAlTpaec+/fscPQllq6vfl3CAcMPHwww/H0KFDY+LEiakhAoXEz+81fKecckr6m3PXFsDtT9xrcixASBmkMTHIZqptxiNvdRsB6rbimfAc80QCDJv6lgHW2+8gaA5W8j3TpnmntA95yxEo5wgUAEvK65/92Z+V3beqnGNXLmXT1wKwrrzyypRGqG/l2yOdWR+I2lq/xU+xMuwll1ySJ63K5QbmcuQINFAEyhlgrV27Pu6aPj3mzJkb7dodHId2OTTatW8fO197LaUDgj9W1DvrrDPi+OOOjV49eySxw9RpM+LBhx+OLVu2JgN1huXdunWLgw8+KP1t0ZIl0btXrxg7elQcemiXePGl7cn/yiqHxnSFB1aPHkekBS/uuHNazJo9O8GfCePHRb++faNv3z7RvVu3uP/Bh2L+gieqTNyl+AFv9z/wUFI/dda/bxWx6YVNsXjJ0pRGeOopk+LUU05OxvNSu++eeU/ce/8DsXHjphgzamQ4B28q4O3xefPjwYdnVQGso46akBRjc+Y8FtNn3B1Lli6L3j17JsP6nhbdat0qmb9Lq+zXr2/yCXvxpZfSaoOEFVIb1ZU31uAjj4zJp05KyjV/a4xxaQZYDfSit4DLvAVgMXLX4fnlL3+Z0l8uvfTS/XrAqRAokpgG8lpiHOhF1GBYCQE4AnmYPPvXZsWcm2++OUEgA8Czzz47xowZU5WvW93Twf6Fr0OhciqgmVUVncf1J02alFbZo5Qy8FZPHTmQqVKmelAi0dXPXd0zovq5pd7NmjUreYVRlIFgyug8yuLcGlTn1IBWV4/tqezAXFGH4nnbvRxFPfe0b6nPqCW2v/3tbyeTV55nUtuoxvJWtxHwYQFjDSyoAP/yL/8ywdqmvnmPQFy+eUAxdZkBkXfMu/fTn/40KSi9w9R93jXvIvm6Yyzz/pnPfCYBnuagSHM/vUs/+tGPYsaMGVU+gs3hXjf1ZzWXf+8RkO76V3/1V3HhhRemhRWK70yOW9OJgLb2t7/9bVog4+/+7u9Sf0pfy2DJ4Eq/6r777kswy0pa1Ff/+I//mFT2jTEL33Qim0uaI9C8IlCuAKsyTfDFpBZi2L7imWeS0bp+VYf27VPf0mp9Y0aPirFjx8QRf0gxNCZ7cumytHLfrEceTSbtQM3xxx0To0ePSqsNOt+yp56K13e9nkAP+KPfec+994ex0B9/+JI47dRTomfPHvHSS9tjyZNPJsUSldauXa+nFQVPPOH45B01a/ajVQDr4ve+O8EnaYEzZsxMKrD16zfEzp2vxSGHdIwjjuiejuFZNXBA/zTGeuWVV+Opp59ORutWDNy2bVtSYJ1w/LFx1IRxsXDxk/HQw7PSuNAKiGATEcSWrdti0aLFMfexx9PxgB71FdXYgP7949hjJsbAAQNiwRML4/H582P58mfSeNdYVD9U7I495ugYNmxIHH5YpaF8Y2wZYDVG1JvnNd8CsHR4DD7/4z/+Iw0wP/jBD6ZGoxSzNwDI4H3evHlpMGuQS6U0bNiw9EKtXLkyDYBBLgNfnWdLgN5xxx3pRxre6NGjk2+QQbD/tlGHAUjObQPCevbsmTpkBsNFHZzDQNJ+ZhydQ/qW/Q2kKcGou/g+de7cOZXDuZUXgXce5QTZqKis7KMh9fdbb701dQQ1tlaYOO200xIkAyiUW2fROUGhIi0PMAPwrFCmgbWJrePsQx1WrAxI9s876bnnnkuKNPEHwyx7LX77m7vs+nLgmTi6J1/84hdTqmNNVWjN81Won1oVEFdqh/v46U9/Oj2PZMBNefMuGAh5Tv3r2fc+6RToEPg9EOvZ9h5IVaGK9G4YMFNFGjyV2r6UW+wK+fsvfvGLpHYAKrVZ2pu85QiUcwR803gngR6XXXZZUojmb0E537G3lk07axBE/UnpDkZaUbjYDAyBLMp2fRDtk2PASpODjTEL33Sim0uaI9C8IlCuAMv4R78SDOJZZXXBDRUbEwySXge68Pfr26d3HHbYoVV9K+2b9u/ZlSvj6eUrkgqLcfqRRw5KyqmXtm9PKxD6O0XV4Ycfllbl69SpYzz99IpkeD5+7JgYMHBAdOrYMY0Ft27dlgCaNEJACySinvKvsjGA17cbOXJ4HHboobF9x45YvnxFSj8kYNi5c1da3ZBCql/fPtG7T+8E4QqhxLZtL8aq1asTiHrhhU1pRViAicqromJj8uWySZWkzPI9Fp/Nm7fE82vWpPowg9fvNNa0GuOA/n2TYAJAsyKj/Yz1lNP4USwovLp0adzvewZYzas9aczavAVgKYgBJhWBTix4BN6UosypfNk2J9h09dVXJ9gjVY0aQyOkE1Wk8uk4k7z7HXUGyKOD5aUFbcAtijAQ6JZbbolf/epXadBsM2AeMmRIvP/970/7aSCY0V9//fUJ0gBAfgf8fPnLX04vs5lI5QLOHEc9BVpRijlWDJBr9XZuIE+qIaClk+inGKA7t4H4xz/+8ZQ2RDl2++23pwG6lAzgTKNpf+emRNPY2kAxy1kzegbCdCQN/u+8886UDiAeABzYMeB/yDoVmTgAdfuzDGqSu95/f/I7U7+PfexjCWTlrX4iQJV31VVXpRkTsNMCCc1BmVMsc+xf70Exk1+YSIqmZ7q6grFQF/p9c1J6eKelYnmndCo++9nP5vSc+nmd8lnrOALAhiXV+UH6hjYHwF7HISrr02lvTMrxtNTP+MIXvpD6bdW3oq22Lz9SE4j6LSbo8pYjkCPQciJQrgCruANF/7EwJC9+X5mpop9ZuZrq7u1b9eOq9zvtV6zEWj2zxj7p9xHR5g8rRRfn3b0Mb+/HWtU13ta3fWuZ9X0ry7p7lk11s/WiTNX7yX5X2X+urG/12FQvW9HHrn6N6ueuHrvi/I09YZEBVstpa+q7pm8DWHwTKIyogAAWgIdKorZb9VS+H/7wh/HII49UARvqLjAI2NGAoM+oN6hCAg8uIfHAjY7YOeeck+CXzhllFaUUMFUMhoEuoAjgoXqQ3mcmEgAqFEyUVp/73OdSQ2KQCTR9+MMfTvVzHccAWAahylIMsNFtYApkcm7+NiDa3Llz037qceyxx6Z0S39XB/ETO+XRSeS3BeJRbSHizl00Wsj4hz70oZRGSYXFLwkgYwat7EU5ACuzpXzJLrjgglr5du1+7yjfAD7nV/bmYixe22e0ofYHN/i/UTq4x565vMJnQ0W/Ya4DgIPO/gWFvaPZU65hYp+vsn8RAD9MCvk2mTDyPcgTGvsX04Y8Wj/KpJw+ln6F/oQJuz1t/u6774cqthR1fUPWLV8rRyBHoG4jUO4Aq25rm89WbhHIAKvc7kjTLc/bABallIH2ddddlwDNX//1XyfFVCnU1vHUTNJqQBmKLEoj5zO4swoglVeRZgeaUR8BRFIOwR8eU4AXDx1wzcxhAb6opPz/Aw88kBQtZ555ZgI8rgNIORd4ACz5m/PxrVKWAmABRwAYZZROoI4d+b2ZSZ07KhGyTAooZXA9CivqMefW4VdG/wJh/gZgFQosaim/4ysmLZFflvoWZvWg1oknnphgmplv5XZuajP1FiuqMfQcTAPGnFPnsxTvCh1YHd0rrrgi+RZZKc19yB3Z+nuJ3XfPc7F8sZRNULSUd6r+SpnPXGoEvFParu985zsJxlOZAuZ5ha9SI5qPa8gISHko/JFMlJjokRKc26eGvAulXUvb4/5RrlttUH+Kyjcrq0qLZz4qR6C5RyADrOZ+h8u7fhlglff9aUqlexvAonyiIuCPZFD2F3/xF2kwVkoaoUBI9aMqom5iEM97yjXAGLOEUuLM+BYeV+AZ2EPJZIVCS0L7W2E4R3UFXPGa0mFjkE06L0faeRwDOFEwOQ9fLVBLGqC0SGX49a9//RYFlmPBLsoscMx5gCP76wiCUcXKcWapXQ8Ek4qnfNIuzFi7FmVTAbDUjT+XcoBs4J1VnngFAVjqymieCktaGUim3iCWTilVWeGPBZ717ds3DZB3l6PW9IErVmdUTzEQE7HZX0+tml6/pe4n7lJBPRsglnRT0NIzkweJTf+pKLz+pGEB2Z/61KcSUM8+Qk3/3raEGvgWmdihwvJd/ehHP1q1sm5LqH9TrqO2Z8GCBel77lvCw8xqt81lYYymfG9y2XMEyjECGWCV411pOWXKAKvl3Ov6runbAFZhvi4dhtmyFDP+T+BKKRsVFvNmsEb6X6FcArH4MVAp/NEf/VHyo2Ikzo9jd4AFoBUQAGCisCp8rPhcUWZREQFGtQVYIA4oBISBUgCSMisbwECNJX0QdCrM3qWD1QRgOU76JQWagQGfLx1MQAyQA8Mo3gx0dTjVUWeUAo0BvYGFcvibY8Em9wOgK2UJVOeShgkogpRS2ai8SlFylfIstORjGE0Ch4CldwmcpMJqrJVAWvK9qOu6U5m6txbA4OcndbiU97Ouy5XPlyNQkwj47viu+q6Z+JHmTLHsm5cnN2oSwYbfp7Bo0PboV5nwcr+kLusf5G96w9+TfMUcgaYQgQywmsJdar5lzACr+d7bhq7Z2wCWAgAd0sxAIh0jgAk4KXUrVolgUO7hBW4AI35SgJVBHzNzKX4MRncHWFLmqJ3AL/5N1FHS7XTi+FzpwBkwlqLAUjfpElRdVv1THvU2IAWdQDUrHPLhkiqoc+hvNQVY4NjPf/7zVH4wTD1db08pe+IkdRCQ4/NFteVaOqlSLinRlAEYk0pY25XsxB2YlD551FFHpXMBf3lrmAiArcCkZxYUpt7LqZsNE/v6vAogzHNPWyGFR2puBpP1GfF87rqOAIhlkQn+k0CW75bvMqXo/iwYUtflzOeLqtWK+XXqQ+lTuVcmRSjGs/IzPyU5AjkC7xSBDLDys9GYEcgAqzGj37yuvUeABaQALgZmUuvM6hlwUyTVdGBWKLl4Rlm6GfgBosAns4OUQAZ90qqYHvOAMviTyrA7wAJrKJP4PPASokTiMyNNB2jTICszP6faKrAALIqYAiQASJQUOodglpdN2iOARz0l7REAqgnAKoycr7nmmhQDSjLpY8zYXU+MXcPgAdQC5aQzik+RGkAF51hwzQ/g9JnPfCYpssS0phsfJnVRFjFWDmCOqixvDRMBKaaee0DTM0B1KDWUx1neml4EKDWpQXncAZOApMUm3NOcGtr07mcucaRvnYki3yWTQr7ZFpwAZ0EtMAsgyc93wz4t2hqTbL4h1NO+4Sa29FfcI/0z/+YtRyBHIEdgbxHIACs/H40ZgQywGjP6zevaewRYqggIgSc/+9nPEuBhDAp46NTWZANlABoKIisLgk1mCakTQBqdMOkKFEEjR46MP/7jP06DP75WAJaZRYoqyicAS4fawB/EAa94RulIK6Pf86i66KKLkq9T4YEldY/qC+yRXshDivrld7/7XZUHlv35VDFkl85HpUSBVniBAVkgnhh84hOfSMql2bNnJ/gGzpn1ZMzu3GIm/a/wwHr3u9+djnM9JvEUU0zjwTBlp8hxbhBJB1SMwavq5VAWKjjgw8y4+H/2s59N+9ZmlTMdX/5fBtqAiaW2C5hYk/uZ99n/CHgnDDz+8z//MwFMz7dnM6/4tf+xbYwzGFCC3doqbd0nP/nJBCZrCvkbo8z5mjkCe4uAbxjfSouL+D77bwDL5AqI5Vul7coAq+GeI5OBAJY+iv4Mb1LwSp+Hal26Z0tRXm3btiO2bH4x3nijcpn5vOUINMcIHNzuwDj88E5xwAFt67x6GWDVeUjzCWsRgQywahGsvOteI/COAMtRltemLgBawCueSTpNNem86nQBMQDTlVdeGYsWLUqdMMeDNACRv/sBdT72sY8l2CNFkJks6APWgFuuzUsK7AGUmJ7rSBsoGkTq1Jl9BIwKTyupEFdffXXa3yb9zt9tOubFKoT8anTIndvvzEArp/Iro/Orr3Q76X/K6Phrr702/asMoBb1F08j5wCwQDeKDL9TFjEAocxiFzF0bsCMCTzlmHpJX+TDJfbgVdF55VGiHOCXgbKYFMby+3rGi1XSqK/4ak2cODF1ejM42Vfk6v7vYKRnTQotrxmGyeBnTd6pui9NPmOpEShW//rNb36ToDt1pdReSsq85Qg05QiAWNop3yCp7J5vae1glu+Q7+L+bMU3DdA3mdIc2z51FEebPsL+1rHwyTQRaMINVKQGp8jWN2opqegPPbgwZkybGzt37trvmJb6DL/xxuvp3rrHrVu3iTZtWkerVq1LPV2TP04c3ni9MiZvvPlGqk9aaChaRes2rf/w/JceH/HWVrRu1TpatRbrVvUeM3Uq6lHvF9vtAuo6YECPePd7J0XXrnWfNTPVdwAAIABJREFUIZEBVkPf0Xy96hHIACs/D3UVgb0CLHCJYokiitm6ND/pfhRUNdl0dMEls7lS7sAdnWCAyAbYACkUVdRZzMp1lK1YSFWl42xmcdKkSUlxBAAZ/FM+SYkDtwAiM5OupUMHhOnc8dKi7rruuutSRxx4kgII2lBNFAALPAOCnLswT/eCOb8NKKMCU0blsK+YUGABQsprdUEAShmduwBY4JhjqDOUW71cF7iygVn+Lo3RsT7MwIaV6qitqHUAJ5vYUGkpr3/FpaadVuorIBF0Y/QKmFFf5dS1mjzFdbuP+8lbDaCVDnvppZemZzjDxLqNc32fzUDe4F475T380Ic+lFb/KnW11voubz5/jkBtI+AZr6ioSO2V77jviN8VEzy1PV+xvzaQEpgK2ySP72Bz2gr7BAvX2LTv+k+lDrwdB4LpA1CXA1gWgqHANgnSkrbbb5sVd9z6SPTt2yM6durQ4FXfufO1WL362Vi6dHFs3LghhgweHkcOHhqHH969hRrnvxmbNr0QK5Y/FQsXzYttL25N96RN6zZxyCEd48hBQ2P4iNHRpcuh0bbtAbW6Xwl079wZzz+/Kp5duSJ69eoTPXr0jo4dazaJXquLVdv59dd3xUsvvZiAmXeudZuGS5kGAZ9dsSY6dj44PvWZC6Nnr8NLrcY7HpcBVp2HNJ+wFhHIAKsWwcq77jUCewVYjtSB/eEPf5j8k5iQA048Xmq66ew6ByDDU0tnmLLIphMGikkrBLPMPOjcgi0gkLRBHT9/B22kD1In8YQCgaQRUkY5P5UYZRc4A7LxkAKLgCYAS6ePd5YOH3AAQqmLNC7XBqycG2jy9+qQifKsMEjVkSzMbi1drWNfpFhSYpH2U2aJkWOonWz24y0ilRBws0nJUF71EAv1p8iiGivqrx42cbAvmOa42sAnUMyAQTylUjpPqZ3pmt73vN87R8A78dvf/jY9DxMmTEjPMAiat6YTAe1hsWobkF7A8aZTg1zSHIF9R6BQIhT/Fkfs/v/7PtP/7sG36R//8R/TN/iKK65odguJ6DtQkptAs1GFm1wzGC5l2/1bXfx/S/yGA1j3zZwfp04+Jnr26lpKOEs+phJMvhgPPHB33D3zrnjuuVUx8ajjYvLks2LMmPFx4IEHtah+lX7M1q2bY8WKp+KJJx6PBU88Hi++uC0IpPTF27XvEP37D4qxoyfEyJGyKLrVqt8qTfSVV3bEnDkPx0MP3Rfjxk+McWMnRo8eveoNFr766muxdeumBM2Asj59+qf72lCrer722s64/77H03OWAVbJr2o+sIwjkAFWGd+cJla0fQIsAEUKHLgDvEh5ki5TU/VPkS6g00rRBV4BNTYpgiTxhTGs3xVLem/ZsiXBLB8Of6d8cmzhD2WmAoyikKK+An506ChZeE35u7IzWQanlLcwoXde+zunH39zXfsrp78X8n/SfTPErlV4f7iemWhpFsqkHs6jg+paymhfxxSKDMeIn1ns4twglBlVcKoAUtXrr4zV0xCU309NPUicS/luvvnmBEv481B6SafMW+NFwH0BFfnDgaVSz6SgNtd0msaLdN1fuUgtprQEsKXvANW8aGqqTK37UuUz5gg0nQj4Dv7DP/xDmogCsPhrNZdN+0AhTvltsspGZWYSjK1AS4ROdXlvKwHWgjj1tKOjV69udXnqfZ6rcjJ2Xdx5583xxKJ5VWlyJxwvQ+Ds6Nz50Bbjf+g537ZtS8x+9KFYteqZOPCAA2PkyLHRpcthqc++63ULnGyKuXNnxdPLl8YZU86LoyYcG92796jxO1A5of1yAlgPPnhPjBt/dIwfd3S9AqyKCgsrLYjlK5bFoIFD4thjT4yDD27fsADr3sfixQyw9vk+5h2aZgQywGqa960cS71PgOWjDbpQG0gFlPLmh+qooWYlyjFwTaFMZoIp0+64446kXqN2q413VlOoY1Mso84fUCpt1Sw9xSA1oFl68DVv5RsB7SETZV51wD5VJ4AFRGfz9vK9b7lk5RMBEzwFwLKghfavuWzaBwrqb33rW6l9sB1//PHxjW98I0FuE2J5Kz0CjQmwXn55Rzz77IqYPv222LxlU/Tq1TfBjiFDhsdZZ74r+vTpGwcd1DK+39Ls1q59Pm6//fex6/XXY9SocTFu7FHRuXOX5AcGPu3YsT1mP/pgPPLIA9G7d/845ujjY9iwUTUeNzQGwFqz5vmYN392LFu2JEYMHx0nn3xatGvXocZlLv3JrjwyKbAywNrfMObjyzgCGWCV8c1pYkXbJ8Aq6mPlPWltlFGTJ09OK+9RHGSIVZ53nHJLQwGQSNtk9moWOJtMl8/9Kmbq/WsRAv5mfE0yCCmfe1S9JDrUBt886qzoKU3Yyqd85fKWI5AjULMIeIf+6Z/+KRYsWBCXX355AljNQZmkffDNZUPw3e9+N3lY2gYOHBhf/epXU/q/72/uM9XsOdnTXo0FsN5884144YWNMW/enOT11PGQTjFkyIi47/7p0b59hzjh+FNi9OjxKe2s+vbaa69WekSteCql19l83w8/vFv07Nk7pdUV3lD23bBhXQJDmze/wAk9AbFuXbtHnz79okOHjn/oG1SuSllRsSHWrVsTmzZvjF07d8UBBx4QnTp1iX59ByQlFEW3yTJK/g0b1sazzy6v8naVNXDEET2Tmsm+lfDk1aSacm3loig74IA9L7JA2b969TPx+99fW1n/EybH0KE8IA95S/3XrFkdTz+9LCmyBg44MgYMGJQAl3hSYvr7hor18crLLye426lT5+jdu29SajHIfycFlvaCH5nYrn5uZWzbtjX5ZamXY8VWvYp2pYBh0j6p6MA1sVH2rl27JxgppkuXLoyHHr4v+ZwNGHBkHHfcpBgyeGh07nxYjbNOSn+6M8Dan9jlY5tGBDLAahr3qSmUssYAixE5TynG5VLQmBaTxGfFSHne5kLh84Mf/CAZtjOKl/qZTabL534ZyEkllIomJfVTn/pUgiEtzZi3fO7I3ktiIGBxCG2gwSnfq+OOOy6lQectRyBHoGYR0O59+9vfTgDr3//93xO8bw5Qh32AVH0rk06bNi0tWGOTZkxhe8kllyS/Q4PsvJUWgcYBWJUrUgNAvK8qFwwaGYMGDo5ZjzyQzNz79O4XkybxUz0iQZPCOgOMmjd/Ttx3n+ehItq0tWph2xjQf1AcddRxcfTE45PBOXiyfsO6mD9/TsyfPzel5TlPh0M6JqP4Y489KQYfOTQ6duyc4A/Q5Lxz5s6K51Zb1OiVOPCgg6Jnzz5x8kmnxcgRYxKEct7Vq1dWpuE9dE8CN9Eqon27DjF06Mg44YRTYszo8Qke8V1atuzJWPbU4hg1clwMGjQk9UX2tMKiGKxZsypuueV3CTINHjw8xURd2rVrn2Cbc1JqFZ63rC/AOpOrzN6fWfFUzH3skVi6dFFs3bollb/HEb2Sr9iECcfEYYd1DSsQzpkz6y0phADVrl07Y/36tbHkyYUpBuvWPZ8gGCClHEdPPCFGjBiTgJq2Zfv2l2LV6mfioQfvjaXLFifvLvcI8BPfE06YlIDhY4/Njhkz7oiNL2xIgE/a4xlTzo0BAwa/Dc6V9gTv/aiGVGD9y7/8S1rVPG85Ag0Zgf/P3nsA15WcV8KHIAiCBEDkSCLnnAkSYM6c4eTRSLJsybuu1Wp3tWXZsr1aS/baW16vqqSyZXtHI60s2+NQtZY1gROYM0Ei55wIgCCIHIic8f/nA+8MyOGICO8BD+DXVa8IAvf17T59Q/fp852P0UDf/va3hTvgRs9iPLVXsp16LstHYMEE1twLvEky2XFiRuNiqg/04rPMQaa/CLMqUn1Fk/jnn39e/MLWw0LBMhFffKuMdPXMTslwQu7U857igk6L5SHAnSNmU2X2QSopSAqTHNawIMsbK22R5SJAAut//+//LQQWF1EMnV7r9xAVHlSU0NOLm0ZMLGNkMiZhxUQx/+k//Sf85//8n8UvU9/DS7s+V4PAmjNvH0BZWTEuXPxQyIy0nRnw9PRBY2M9ikvyMDoyjJMnX4afX6Colkgckdi6cfMysrKui1qLGfm2OTpiZHgYVdVlmJyYFGKKhAu9l0pKC2QjiwSNl6cXaGL+YOCBmMXTWHxPxiFERERJyB6JLpJcZKMCA0Ngu9lWwhpJmFGJRDUYPanoU5WdfRP3Wu/C3y9I1EYbN1qJmqyyqlT6Qg8vDw9vWFltEJUY+0pihyTU53ndEpP+/l5kZ2fidtY18bmy22ovmQJptM7QO2ZmfPy+FvJqoA9Z2ZlobmqQ9nh4emPrFvrHjuF+Wyt6ujvh6OSMffsOY5uDo6je5ntgOTu7gKF+xLW9g1nAY+Hs7Cr9Yvvr62tEfRYWGoW4uERZKNfV1yAz86qQdFRbkUDkPdh8t0nIL9ZJvGamZ5BfkIXm5jsICgoTYst3R4BkVFyJZ9RKEFgM22ZyKz6DGdasz6KlPYv0W4tHgM+NlpYW/P7v/754RvP9z6gTLYrAUhBYMIHFymlyzkkndxmpyHr11VclRbQqEJYCvXm+M7czdl88epgNkVkQSWAxTEND08yD+XJq5XgxYxXHi6QjTfbT09Mla6aO13KQNe13mXmUJCNJYV9fX8leSkXjUjOLmbZ1WpsisHYQ4DyCE1eqTxlKyAysi8mqa4k9JSlXXFyMn/zkJ/jlL38pBIaxMCS5xcUvQ8S/8Y1vyJxJVbZLG8XVILA4fm1t91BcUiBkSnLSTqSmposih0qomzcvo76+Gvv2HREShMohqpKqqsqRlX0Dbe2teO7Ey+ITxe+MjpLAKkdfb6+Ey/H4mtoKlJYWIjg4DLExifD1DRClFZX0JKuoMiJRFReXhC22W4QYI4Hk5xeEvXsPwXGbk6iYmD2P5JSXl7cQbK33W3Dx0kcS+v7SC18QVRUJVYbeVVSUYOtWewQGBguBY4QyLnRkSNASFxJvVHjV1FRidGxUVFQxMfHih+Xs7AbfHf4IDg6V8EASNAwbvH79EgaHBrAn44B4iNnbbxPMmpsbkZNzE909XaIkIw51dVWPEFi0LikvL0ZFZZmotg4fOgFvr+3YtMka/f19Mka1dVXSnwMHjgqxRq+y27evIyQkHMnJu6TPDFEkXndbmsSzi4o6Firg+P316oH1s5/9TDbiqIKhglyjMhZ6xetxy0WAakxGMfz5n/+5JCT7H//jf8jmjhZFYCkILIrAInvKlxaz2lEiT/UBs6clJSVpBrWloG/i7/AlTMP9y5cvi4EsCZCvfvWropZbid0jE3fnmamOi52CggJRN3LRwyQJNAZXxdzqXwLGM4/3E4l7Zh5l1kj62fCeWg/ePauPsrbgWUKABNYPf/hDIbD+6I/+SN5Pa9mKgM8IKp0ZWkw1bXl5uSyI5xNY/JnWCy+++KK8k/38/PTZsYSLfuUJrDm/qerqCpSWFUooGlVTDNEjATI+PoqbN6+goCBHyKGUlN3yL4+jQqixqQEuzq7IyDgovkzzwwtJUPE6IQlGoouEUkJCshieU1HFIoqFe81CwNjabpHQuu0+vkLG8PckiRITd0ronr2dvYQYUgFmbb1RyKLm5gZcuPgxOjrvY3faPlEfkayiVxfD7Xgs54lLUeGwbWw/ze2pBrt27QKqJRywT+obGx8XZVV4WBSOHn0OISGR0qe6umrpLz23UlN3w8lxLnMh8RgZHRUCqb39HuLjUwTn1taWeQRWshybeeuaqNbYbxJgDIlk4YYgQzXLKoowPDyIo0dOwW6rnZyTRNi+/UcRGxMvxuwcCyrCGKbIQhza29tEUbeeTdw5z+RGHNX+3CxVX9wlPIj0K0tCgIQ8M3j/8z//M3x8fPCtb30LLi5zHnxaFIHFIrAoAouV84VFBpUEFrPb0dCdSiySWWt9F3Wx4Fna8dxlo4rnb//2b0WKTp8yqq9UIWdpI/XZ9lDReP36dfzLv/yLKHx+8zd/U5QJuju2umM3NjYmkmf62uTk5OCVV17BoUOHEBQUtLoN07MrAmsUARJYP/rRj4TA+r3f+z3ExsauaSUjd5U5Kf+TP/kTUWGxcJHN9zEL1VacN7FQfcXjEhMTdb60hOt3pQksIVVGRpCdcxPlZcXw9PJGQnwKfH39pfUM8zMUUhzztLQ9SExIlVC1q9cuoKuzXULRUlJ2idLq8cJrhyqgs+dO4+LFjyUxki2TI22w+uRQEj2zAOJiE7F/31FREdXV1Ug4I0k1hvuRyIqJTkR6+j5RI1EZTIKGiqSbmVckjJAhjSRsGOaYkpwmSiSayXMjhr5cS92MmdvkGRPzdxJ3JJHGJ8bFM6wgPxt37zUhbece7N9/BF6e21FUlIszZ9+XsENnp0fN0XmfDA0PCTF14tgLQmIRHyOEkH5d0zPTuHDhIxQW5aK3t1tUbRutNgpehvfYBisr+PsF4rmTL2HDho1obKxDT2+X4BcWFinqrCf191nIQsiNOK7dSCBw/UYBwlLHfgm3sH7lGUaA/lfnz5+XTR5uXH3xi1+UkHotisBSEFg0gcWTkBypqKiQDHd8uaekpMjOIomSpezkLKXh+p1HEeDEpKGhAe+88w7q6uoQEREhWQdJLH6ej4FiaDkIUNnIbITcHeO/HL/XXntNEiVoKOHqjBMn0yQW33vvPVlsUxFH3ysSi1xoaFEEFIHFI8D5w9/8zd8I2fPNb34T8fHxazqkjuqrCxcu4M0335RnNedDXl5eko2QhWrN9vZ25Ofni5qHfaZynSosLYtDYKUJLGa6Y6a/jz5+F5m3rsLJ0RnuHp6wt3P4pOEkhrq6O+V3NPym/xNJnGvXL4gaKCI8GgkJNCX/bLIPhs2RjLp2/TzKyorEK8vd3QPWG60fAYbZCHfs8JfMeK6ubhJaWF1TLiTR2PgoWu+1YHhkSJRVJIliouMRGRkjqi36YjU135FwP7aH/9JE3cfbF+FhkeIhxdBFmq+bqvA67+npErIqLz9LCNyM9APi98X/MySSpFdYaKSopzZsePTM2xydERYaIX1lKKZBYEVHxUmo4cdn3pOMjQ7bHOHt5QObTTafVrBhg/Tbw91TPL6o1GKIJv2x9u09LIqtzyPsngUCq7KyEleuXBE7GGaTpxJL55imuvK1ns9DgM8AXnP/8A//IKorkqf0YNO5tF4zS0VgSQQWT9bX14e8vDxJKc+X1RtvvCG7i1zkaVlZBPhgoO8VPa+4s0JvHmY7IgmylkMzVhbF1T8byWBOLrhDQTKSpDA9CrgY0h2ylR8fhuPS94rqK5LzDB2kckKfcSs/FnrG9YMACSx6RVG19Fu/9VtyT9EPY60WbhgZnpNUz9LHkOqG//k//6d06Y//+I/R1tYmi0aSXRkZGdi3b5/4UmpZHAIrTWAxDK2iogxnzr4nih+GAz4eaTAzO4PpqWnZvGVWP5IkVEXdzrqOzs42BAYwtHBO7fR4YWZbZuHLyclEV3c7Tj3/upA8CyWTqBCj0q+oKA/5BbdR31CLyYkJ8eg6eOA4/PwChMxhYea+rq5O3L59TdRhAwMP4OHpheTEnTh8+DkxVF/oBjQ33AYHH0gd9vb24nX1pJD61tZ7KCrKEY8s+nfxw+yJjY0N8Pb2wbGjL0i2RIZjPl44ryVZJRkUb11DfMJcSOHI6AjOnn0fJPWodktISPncDIEkEmnqXlZWICQjFVjE91lWYHFew7XbP/7jP0rWa2OjWyNoFvcs0qMXjgDvZfrI8j1J/zVm5eUmDpPAqb3NwnHUIx9FYMkEFhU/fBByUsaHIVnUF154QcIBSJrogntlLjWOA3fjuANMAstI2U0yUcdhZcbAVGeZm7CNITc3V+4rTkzphcWQNU4SFzq5NFV7ntV6GIbAhQUVEySESdDTK4I7RpQ7627ls3plaL9NgQCJ+p///Ofi+/flL39ZFEtrOcydi3mGRZKYo9qZz+r+/n5897vflXkQDWtJevN5zgU1w8J5DM20tSwOgZUksPgeoIqIyquGhlrxc9q1e69kvJsf4scxZZgbjdU5/gx7Y7hfZVWZhK7Rl2rvnkPw9t7x0OtpFlR28XuTJJU6O4TsqquvFkPyuNgkCTc0/LJ4LNVKVA3Rs4q/5//ZPi7++OG8gaoqGqTTH4v+VnGxyaI24t95rEFkjYwMSThhU9Md8ayi+OnUqVexfbvfgo3cSYRVVpaIX5Wff6BkMmSb59T+hpxqVjylqCwrKMwG1VMkoegvVVSYiy1b7XDy5Eti8m5js1naSD8q9oXvXN4f09P0B815NIRwehpXr56XrIs0tidhKGMiPlpz2DI0kz8TLyq1iovzUF1djr37DotJPsMODQ8sGYfJCWkDx7u0tEBM9qmco0E+je5Xau61ElkIiS2JdEZrUBlKOwRuztELS0msxT2P9OinI8A1Kt+H165dE29mcgWnTp2SjSv1kX06fnrE5yOwZAJrbkdnSh6AvCjp38NdRy64OSHVB+HKXHY0lSb2HAMSIC+99JKYxTo7O69MA/QsJkeAY8qQNaobOYnbvXu3GLuvZZWCyUEyY4Ukr+h3dfMmfUO6Rc3IbJ5Uwq3URNaM3dOqFYFVRYAEFnf/SWAZKtP1lEqb7+HW1lZ873vfk+cF09Xz2aFl+QisJIFFxVJLSzPOnTuNjdbWiI1JQkxMnITpfUrS0AdrGgw9Y7Y/mpnTZP3QoZOiTioqzkNHZxuOHXke4eHMWmsn8+aGhhrca70rpMmO7b6inMrLuw1PD29RT0VFxcrijuTKnTt1YvDu5uaJoKAQmROUl5dIxj+Gz0VExEi9Y2MjQkqdPX8azo6uSEpKlfqrayqF8NqVtldUT/wdMxYWFGTLeWlyfuTIc3B391zw+21oaEBM0c+e+0CIIIZIpqbsljDJOTXVrPhtkawqKMzF5MQ4YmMTERYWJSGMV66cE0XUztR0Mb6n+ot409C+sChPSKekxFR4eHg+EkIYH5ckRFxJaaGYxvM7b3zhq+JrNYcBMxneEcKRf6PPFzdyy8qKRXlGrJKS0iQckxtR9Ajj8Y2N9QgLj4SzkytqayuRnZMpXmMMCWX2xCcpxJZ/NX+2hpUgsHhWznHoZcww5+rqagnl4kZpSEjIgq8Bc/Rf61xfCPBd2NXV9Ql5xWcF16hU/ukadX2N9Wr0ZlkEltHgpqYmMXXnopuePUwxHx4ergbUZh5RSjLpI0JTRk52du7cKSoRJTrMDPwKVE8SiyosqoBY6FVAr5i1rFRYAdiWfQqqJBjGyecZX7zcJaLUmeS8FkVAEVg+Alw8MSyXzzYumqhuXE/3FxfuVDj86Z/+qShS/uzP/kxCJbQsH4GVJLCYTY/+S1eunkNgQAj27j0MDw+vJ27O8tiCwhxkZ2diFrN48dRrcHJykex3JWWFot6ifxbN1WdmZ8WPiYs5X98AUfpQPVVSnI+7LU2iDiKZRGNyKrQe9PdJpj96VZGo4eZwcUmBEFskuHx8dogHFEmqgcEBUGHFOqOj4zE8MixtampugJenj5im8/sTkxPo6ekWRXFIcLgQO7xW+TuandM/iu0n2fWkaAoqo3p6u5Gfl4Xmu41CVpGE2rplCzY8NKCn2TrViSx+vgGilmK/SH4xHLOyskyUT56ePpJBcWp6CoMDA+jt6xEyKn33fiF+eZwRQkgDfZJkHR1tuHyF5Eu5GOp7eHgLxiQHHwz0YXJiUrzKmDHS2ckZ9+7dRX5+NgaHBqTubQ7bpJ08noqvWcwgPj5ZDPBJAl648KGMI9VwJN5Y/0rYcawUgcUx4bWTlZUlG+C0hAkICJB1G5VY7u7u4kvIPuum3fKfW89KDVQ9Uv1IRTIjtGhtQzuUqqoqee5wDcP5tK5Rn5Urwrz9NAmBxZcAdxwpSSWZRR8ILriDg4OVxDLD+HGyMDAwIKFmjCnmw4K+G1SKcIKkLxwzgL7CVRpjTD+szMxMIa6MjDGcWOgYm3ZA+OJlCFBtba2E4/J5RrN27hZpnL5psdbanm0ESGC9++67Yj1AZSP9oLjxtV4KF4acB1F5RbUMsw4qgWWa0V1JAovm7QyTI4lFgictLQNbttg9MYSc5NH9+/ck4x9JoIMHjiEwMFgIHKqnLl46g46O+0IGMayNoX0pybuEHKFfFtVCPB+VP+XlRWK8zsL3EkmujPT9iItLFh8t+l719vYgN/cW8vJvi0k5rzkeS9Lp0MHjoogi2UZSiGokqrsKC3MwMjIsbSCJw+yIaTszEBOTIGE9zCBYW1uN2rpKREfFIygoVEgMg5CaP4Jz4X5zHlUk6RgiWF5eLMTc/BIVFYeDB48LAci6GAbJuQ2JpJrqCgnPpAKK7WKd/Htq6m4JuZxTSVmhoqJUVFmREdGiYiMGJNBaW1tQWJiLGzcvSdZH9ouEG1VmKSnpSE7aCScnVyHmxsbHRPnF8MrKylJ093RhdmZW/LdI9qWn738YQmkt43D58llUVJYKLidPvAz2g5kRzV1WksAi3iTvSDBwnkmDbZIMzA7HsEKqYhnqTKWaWsKYe+TXfv28ngz7DUYucBOH6j4mQgoMDJTNKoosdI269sfaUnpgEgKLnSHrynTzly9fFmKFBqW8YDlB1cW26YabDwh6XnHXhJ5XJK+ef/55wVknyabD2RJq4gSRIbpc6HGCQcntnj175MPJoBbTIcDnF3G+evXqI0bLmsXTdBhrTYoAEeCiieHRDNMNCwuTzRdudq2XQtKCi8K/+Iu/kMk6QwnXU4jkao7TShJYvE5JjNDInWGDjo7OMpd90mKe7+qJiXEhlkhmkWQhScRQOqp6SYowxI+FddAXy9nZRcirOU/FWYyPT6Cvrwf9D/owOjL8Ccxb7ezh5uohoWwkYzgH5KZxf38venu7hUTi+VlI4Hh6eku9JCN4LEN2jWNJlLEwJNLBfpuomVgvQyJZJ/vKPrO/VILR7PxphcSXtLu/TxRV84ujo5MQaY8Tf2wvz0Wv9UF7AAAgAElEQVQvLf7Lc7OQLGPmQaq5aNLOQlJsYKAf9vYO0iYSgCw8F8/JcEPjvMSWBvj04yKZZ5Avc8qQcfG4Yvik4SHGc7D/88/H+7enp1OO41gTT47XSmTzXkkCyxgnXuf37t1DTU2NZDAn8UDSgb5F/JtxbT3tOrDkvxvkCsdTyTjzjdQciWwjyk76MXP+zHc7N4OZdVeVV+bD/lms2WQEFsHjg668vFxUQVQycFeVGXdo7E7jUi3LR4BhgyQI6c/DwhAn+o5pprrlY2uJNRgZJkmsMESXkm76YdGzgKlotSwfAS4wiC2VblRe0UOO9xQX10q+Lx9frUERmI8AF4gMe2f4CokdhhQwY+56KXOZ5Wrw1ltviYLhO9/5joTkaFk+AitJYC2/tVqDIrA4BFaDwGILDaNtEllUjzL0iwQWyc/1QGBxPcqM0pw3M1RSE/Es7rpc6NEksKg6ZtISvtvJAfBDMkt9sReKoh63UARMSmDxpJQyNzc3S6pM/ktiheGEVGRp6NNCh+XR44wdN/oiMfU41VecJNPc24gn1oX20rBdC9/i5IJjf+bMGXkJ8z6iupHEMEkslXgvbRQ5MaOakYtNhg3S84q7RS+//LLsHGl636Xhqt9SBH4VAlQ7cgOGBBZVDcyAxWfZeilURVdUVODtt9+Wify3v/1tmcBrWT4CSmAtH0OtwXIRWC0Ci4gYYaGcF/FjqJYsF62Ft+yDDz6QzLf/5b/8F7HiUDJl4dgt9khD5cZ/uS41PoutR49XBJ6GgMkJLJ6QO6wMfaIJNcNyuMimsTvVQlRiaerMpw3Lp3+fk6ZPSDY04kkCgyoc+l0lJCRIWJnuJiwcz7V6JCX2NEWk8THVWCSKd+3aJS9jXgNcCCqJubDRnUu1PSmeVwxjIiHMRaeBJ9USOsFZGJZ6lCKwWAT4PuNz7NatWxJeRZ85hsCvl0J/SiZX+cUvfiHKq29+85uafMNEg6sElomA1GosEoHVJLAsEhATNeq9997DT3/6U/z2b/+2bP5yfqehhCYCV6tRBFYJAbMQWOwLiZc7d+4IgUXVEB8W0dE0S0wXdcNKZPRYJUxNdloutDkZZlw6d6ypaGMMMTHkhF8z0pkM6jVTEb0JmH6eiz+q8GiOyJBCmm4y7lzL0xGgLJ4+DwwZpPqKxB+l5SkpKSJ31onN0zHUIxSBpSJA8pgKJb7TGK7y+uuvi5p4vRRm9OK8h4pZKtC//vWva7i3iQZXCSwTAanVWCQCSmCZZ1gMAutb3/qWEFjc8NV5nnmw1loVgZVCwGwEltEBKrFo7E7Dce68UoVFpQMX3pTXq2rkyUNtqK7KyspkMlxfXy8meMzYRPzoraHl2USApCbJF37oVUD/GGb3IEFMteNKmI2uReRJqnNxyXuJyiuqJBiOSZ8+GkmrT81aHFVt81pDgGpSbm7RK5NKrC9/+cviObdeCkOROd8hQceMzF/96ldFJatl+QgogbV8DLUGy0VACSzzjI0SWObBVWtVBFYTAbMTWJys0r+Hi0WGwFVWVn6SOpu+FySxGFKoRNbcZTCXmnhMsoDQrJ2YkaTgrgHJq/DwcE1Dupp3jAWcm55YVBFRxcBFIBdKVA4xTJfKPBIxNFLUe+rTe4qqD5JXTBV97do1kBhmCC5DMOPj40XZqJ5XFnBxaxPWPQJ8fnFji/chVUpf+9rXxMtxvRT2zUi6QU+9N954Q+Y5WpaPgBJYy8dQa7BcBJTAMs/YkMD6yU9+gt/5nd9RBZZ5INZaFYEVR8DsBBZ7xAkrF4/MBEHlAxfeTC/NhSN3XjWk8NOFNn15DGKC4U2c+BInhjhRgaXKqxW/Ryz2hFRiMayURCeJGV47VGEp0fnokDHUkjjR64o4kVRnpsG0tDSEhIQIeaVkn8Ve5tqwdYaAERrPzZm/+7u/w3/4D/8BL7744rrpJTN5nTt3Tp45VMe+8MILGt5totFVAstEQGo1FomAEljmGRYlsMyDq9aqCKwmAitCYBkdNLxnmH2IZBaVRj4+PrKYjIqKgre39zNrnkwT6cbGRlGGEBtmR2M4WFJSknyYxUhDw1bzVrHMczPU1PDFotccSS2Gq3DhxPuKKYNJFj+LhckkWltbhRDmhzgRi8jISCGvGN6jXnzP4pWhfV5NBIwkClRg/ehHP8K/+3f/TjJ/rpfkLnyPnz59Wp7FcXFxknBFN55Mc8UpgWUaHLUWy0RACSzzjIsSWObBVWtVBFYTgRUlsDhxpfqBC0sqISiz56KbxBUXlAzpoekpJ3sMgVrvJntUplEdMl9Jk52dLX2nLw/Dm6hOY8YMKkTWOx6reSOs1XMbqY95T9GYnKoGGrzzeqFXGr2xSNTQ64lkzXrPWMkQXGJBQritrU2ydvKeYhZPYkGvK5LlvKfWy4J5rV672u5nFwE+t/ic+su//Eshr06dOrVuPDG5AfX//t//kw0nPnNoUP+sbiKY+gq3JAJrjoidwIMH/RgY6MfMzOxnusv3jJ2dgyjw5jLbbjA1JI/UN2dBMYrx8TH5vb29w8ONz4Wed26Ozuygw8ODssnMfj5etm61g7OzC2xttyxLvcy6OQ9mMea4nOc+/vtnRSGtBJZ5bg8lsMyDq9aqCKwmAitKYM3vKF+QVEeUl5eLPxZl91SOMBMYfXzo6bNeiRtOMowwCoYJUpFWVVUlBFVYWJiEDNLrytPT85lVpK3mTbFWz03ihqRNdXU1SkpKxKycEz96zZHMCg0NFXJ4PZKhBpHHCTcVEDSHJnlFIouht7ynGF5JxaeqIdbqFa7tXk8IMDnJW2+9Jc8memBxs2Y9+NBxTvMP//APshlHiwQ+f1XpaZor15IILKqfOzvpd3YeNzOvYHp66jObjJ6e3oiLS0b67n3w9t7+8PpeKJm0eMxGR0dQX1+D5uY70pbU1HS4ubnDymrjgirj3PTBg17k5NxGQWG21MPfzS9810ZGxuLY0VMIDg4Dyaylbq7Sm/LBgz4As1LP5s1zhBjnMgOD/dhkvUnIXxsb2yWfY0Edt5CDlMAyz0AogWUeXLVWRWA1EVg1Aoud5suLBu/csaS5Oz0juABl6BwX2yRxuPjk/5f6glxNcJ907rlJTycaGhqk31xsU4VFryuSVwz7Yp+5Y/es7DpZ2hit5fZwN5Php0xPz7C5uro62U3lJJCGwrzGgoKCxOh9vYSkcoLN5wifHySE2WdisGXLFsl2SuKKXld8jqyHBfJavj617YqAgQBV2G+//bYoRPfu3SvvPqqP13qhqvzNN98U0pzEHJ9Bc+obLctFwJIILKqcWlqacf78BygozBEyx9nFFdZWG0HNkqGGYp+DgkIRHR0Pf/9AIWXMpcQaGhpEaWkhqmvKZc589Mjz8PbesWDl9czMNLq7O3H+wkeora2UjVYPDy/YbraVoZuemcHg4ANJIuPo6Iz9+44gNDRClF6LnaNzrt/Z2YaKylJs2+aIqMhYODg4giRca+td3GmsR4B/EAICgpet9FrudbdS31cCyzxIzyewmOxovcx9zYOW1qoIrA0EVpXAIkR8QfLDEB9O/BhWwFAoLj656KSXDyeAVGeR5OHvF/uiXO2hIKlAJUh/fz+YYpsLbKpkWlpaZEFNnwzuQrOvJBrYv7XWx9XGWM//KQLGPcVrjsQwFX5UBfCaIjnK64z3Fn3VaGBuZ2e34AmupeDMPnISzXuKCSLu3Lkj9xT/5cSYZB3DcLmI5LND7ylLGTlthyIwhwDJ5l/+8pfyM0PteL+uh1A7Jqr5wQ9+gKNHj0p4pKurqxLnJrroLZHAunX7GtrbWvH8868iMCgEm21sH4bATaG2tgrZ2TfR09uNlOQ0ZGQcwJYtnONZmQiRR6sxJYE1PDyEsLBIxMelwNHRSU7E8MLu7g5Rnd3KuoHDh05g96598PHZsegNV4ZeVleX4+q1C/Dd4Yfjx1+Ao6OLEGglpQUoLs4X5VpKym4lsMxytTw7lSqB9eyMtfb02UFg1QksA2q+GJlFjX5QVI8wBIqG5lQnUS1CkocfLsC5m0kGnR9L9PQxvL7YJyquSCRQbcU+cdJORQxDmdgfhhcwVJAeRSTnVHX17Nx85u6p4bHG642p3Y17imbmJK5IZJHgIZk1J9Ofu694T1kagWp4Yhj3FO8r4zlBco4KLIYG8p5in6jqoIqR/VLVlbmvNK1fEVg8AlRMGtn6+B6kDxbfg2u5UHVz8+ZN/Pmf/zm+8pWv4Atf+IKED1ra83StYmypBFZHRxteOPUagoLCPlER8p3F31MRlZt3G9FRsTh06KRc4wzpo9qJ77GJifFPfKA4LhusrESlRTXixo3W864dem5xTjmOyalJzM7MyN94jI3NZnl3j4wMP1GBxeMY8UDV2IYNeHj8nLfq/DJfgcW6IsKjER+fKvMFltlZemyNoagoF7ezbsDPNwCJiTtFYcZzsD+sY9OmRz0miQX/xjBLtpMEXm9vN8rKinDj5mVs9/HFkSMn4ebmKWGZxSX5KC8rkhDInTvTRe3FOnkO1s8QQ/bHCNsknpy/EAf2yZgvECvDMoHHc/7APvB44ss6LWkNoQos8zyZlMAyD65aqyKwmghYDIE1HwSSWPTHokKJk9z79++L0oIvQL5IGQbFDzOseXh4WNQLiP3gC56eXlSDGGGCfOGSoKLqhYtrEnH8lz4Z6yFsYjUvYj330xHgNUl/LOOe4vVJ0oe/5wLLCC+k2nH79u0Wd01y4kkSjqQV7yl+SMzx3uEzgW2mbx7vK/W5evr1oEcoAquNAIn0zMxM3LhxQ54/X/va10RlvVYLF818JpHA+tnPfobf+I3fwKuvvqrklQkHdC0RWOw2SZqKilJcv3EJEeFROHr0OdjbO8qctaenC+XlxSgtK0RPd9ccShs2SDiev18QUlN3i2/WZgnfmzM7b2ysR0lJIRru1GJkeAibNm8GfbaSk3YhNCRMjORZ5+MhhCSj6uqqkJuXBSurDYiLTUJUVJyE7i2OwGI7plBWXoSsrJvirxUXmyzhk2Pjo0I69fb2IjIyRtpOtdlcYpVRVFaWoa2tFSEh4di61R719dU4d/4D1NVXw87OXkIIExJSJSwzP/82unu64OnhhZ0792Df3sPw9fUX8quvr1cwYB87O9pkg8rN3RPRUfGIi0+Cg/02waqjsw2lJQXSR36voaEW91rvYmR4GI5OzkhO3iUEnbu7p8Xco0pgmfBhMa8qg8D63d/9XRw6dEhDCM0Ds9aqCKwoAhZJYBkIcEJomFLTL4MhQlQzUbFE4sr4l942nPhSccHdrZVSXRi7SoZyjL47/JAY4GKbXlf88HdcVDP7GXeaSb6t9Z3mFb1K9WQmRYBkMJWAVDgyxJDXKMPseE/xQ1LVuKeM+8pQaK2EkoA7pQwP5GLQuKcYJsgFLz/GfUXiKjIyUu4pqsn4PNCiCCgCawMBblQxgQsNz/l+/J3f+R0Jt1urhQt1bgyQwLp06RK+9KUv4fjx42u1OxbZ7rVDYM1ZY9y7dxdlZcVihh4RES1qIhqVk1Ci2Xpe/m3cvUsf1BHxxaI6aHxiHM7Orti75xAS4pPFg4qbt/fb7om6igQVjc9J0lCtZWu7Vcix+LhkeHn7oL6uGtU1FULKHDl8Ugizu3fvIC8vC7X11XBzdUNa2l6pm8qmxRBYvMYZWlheXoTS0iIEBoYgKopRBN7o7+/DuXOn0XLvLg4dPC5G7ww9nLPQGMClS2dQVV0hYZQ+3juEjPv4zHtobKoTois8LArJybsFj7y82+h/0AtXFzchsA4fOokdO/wk4yMJr8rKUiHDSOKR9LPeZC2kX1LSTqmHpF9DQw0+/PAdbLa1lXoGBgfQ1dUuBBhxCwoMwe7d+xEflyTHW0L0gxJY5nnsKIFlHly1VkVgNRGwaAKLwFB5QfUSQwm5s0MFCdUXzLBGcouLXU5+qWZiFiNvb28JOWQ4EXdduDvDD3e85n/4cp+fjc1YmBspg41MgfyXL+D5H7aJ5+WkgmQAF9RUibFt9O/iYptkGhUhDM/ih+0iGUDFCD+W8LJczQtPz716CPBa5rVL9RUJIl679GXjPcXrlySxoRTkfcX7i8QWr1/K9OffU8a9xevZuJ+Ma/tX3VOP31fGPcV/ubClVxzvby4IeV/xZ943VFrxfiIJzPudxBsVZPybhgqu3jWlZ1YEFosAn0F85jDcjhs6f/RHfyTk+Vp9N/LZxXBmqsqoFH3llVfE10uL6RCwRALrxs1LaG5uxMGDx+DnO2fYb4SwkWypqa6Av38wYmLi4ecXKCRVS0sT6uqqxRuLPlNeXtthtcFKwgPp/1RVVSaG5nsyDiI8PAq9fT24ceMS7t+/BxdnVyQlpcHV1U1sN6gsIulDxVNcXBLu3WtCTW2VqLEy0veDvlgVFSVoa7+P2NhEREfFieqIm1KPZyecH0JI9ZivbwAiImKwzWGbDOKcB1Yn6htq0d/fg717jiA4OATW1jbo6+tZEIFFNRXJPM5DSMhl3roiRvP003J39/okhLCiolhUUjtTGULogqmpCfETKyzKg5eXD2KiaRUQIPOY6uoy6TOxJdnl6+snSq73T/8Cg4MDQmpl7DkAx23OGBjoR21dNXJyM0X1dfDAcVGSMZxwtYsSWOYZARJYzHj77W9/WxVY5oHYomvleoNrdj4ryCdw7sFnmbHOt+jGr4PGcU5H/oWcDNdqjEbje3K54dsWT2AZY2f4SlGZQYKIC28avxuKDP7MDwklXpScEHMyzIU3F+Pc2aVig8QSyS2+vLnwNUA0Js18qRqkGS92ThAMA3ael+qq+eclscZ6WD/Pww+VIPxwcc1zcuHPY5Y7WOvgOtYuWBgCvNZ5nfO+4T1Fkti4p0gi8VrnNc+HPx86huqRJDGveSO5Au8pmsHPJ5OMe8ogq/ji4Ll4D/OeIlHFe4rn5LlIBFO5yL/xXqEKzLivDGUY/8/7iedlezSbjIVdUNocRWCBCPCdTquA73//+7KY/cY3viGZh/kMWYuFz8jr168LgcU+nDx5Uvz4tJgOAUsksD788N9w9fpFODk6YQtJoYcG7UZIqdVGKxw7ckqUR8yox0IFFokVhuNRbWUk7+H7mFn5iovzRIFME/PQ0EjJynf2/GnJBrgzdQ/CwiLg4LANJDyYFZDKpLmFwVYxRqcCi0opEmZNzXcwPDSIpMQ0xMYmiKLL2po+VBs+MzDzCaz8/CwJ42Odm6yt5Vj2aWxsXN7PAQFBePnlLyEsNEJ8uBZMYO07LOF+3HAiUXfl6nn4+frjxIkXhajq6uoQEq+oKE8IOPpg8XwdHe3IzLyCpqYGHDhwDJFRsXB2IrE1iY7OduTm3JL60tP3S2ZEhmh+9NG72GRjg6TEnWIGz3BCqt0YvvjhR+/Ax8dXMilu3+77MFTTdNfqUmpSAmspqD39O0pgPR2j9XwE1xzcqGdmdkZycaOeaw6u7/nM1WI+BLgO5HyI6zmKIUJDQyVqhhZQXMstZ8NyzRBYT4KXC2IuvDkJ5oeLXy6+uRDnhNgwen9chWWwgUZmssdf5AYra+yiGQtwXuis1zCD5P85aeDAkCyjyoqqEP7MBb0qQsx3U2jN5kHAUEDxXqL6icon/kyiibsWvKY/T9loKLAMdeP8FhqZEXkvGfcT/zXuKUOBxXuL5yDxS7KM9xJVV3zw8Xeajt484661KgKrgQAJ8p/+9KcymTx27Jhk4+X7dC0Wzke4UGIm5cTERBw4cABBQUFrsSsW22ZLJLDOnn0f2bmZ8N3hLyFz81VNQ8ODGHjQD7ut9ti1e58QMgzbM+aGc+F1g7hzpw71DdXyju3q7kRvT7fUdfDAMQQGBqPhTj0uXPhIiJajR54TBdWTFENGFsKs7Ouoq6sR8mlsbBS+fgF47ZUvixLsVxHE8wksqrYYzkjFF83R58ospqanMDw0JP9LTk5DYkKqEEEDAw9w/vwHTw0h3LcEAmt2FoJRQUE2Boce4OTJl+HvFygYcG4xOTkhpB/DJBnWGBISIUTV2XPvw9PDG6mpGeK9xb5T5cbwxQ8++DfxzspIPyBEnyUQ50pgmefRowSWeXC19Fr5PKUXNe1SqPYmYWWs3/nslScaHy5azIqAsSY0VFhcx3FdRyKL1koUFi2lrGkCy1gUG+F9xoKYO1dUdVDRwYkxFSQkuvjh36jwoBKEn7nMKNOyqDZA5uSCxBRfaFR5UM1FgMkWGqoQKlD44f+N7IFGiKIRTrWUAdHvKAKrjcB8ksm4N/jgJ4k1/57i/+ffU9zlMO6p+fJc3g+8p/jQMuSjJHiNe4pqKt5HvJ+otOLPBgFskM1GZsSV8OBabfz1/IrAs4IAN5tOnz4tu6JMwMBMhNwEWouFamyat2dlZeHXf/3XsXPnTnmmaTEdApZIYGXeuor7rXdx4sRLorD6lOwBOrvaUViYK8QOSZVTz78mhBSz8FE5xRBCGrhTcVRcnC+KrLHxMVhvtJYwuxPHXxRypba2SpRKQYHBOH78BTg5uT5R0T9HYBXgzJn3xV/LYZujqJRo2H7s6Ckhd7ZutfvcAZlPYLF9wUHhiIlJEDJtbrE3IwRQRWUZsrKuS1bEtLQMpO3MEJuPCxc+NAuBNT09g8rKElRWlcpc/eiR54XMo/LLaBdN4gsKc+C4zVFM5Tl3oUm8r28gdqXtEQ8tjo0SWKa7H9dKTe+++y5+8pOfaAjhWhmwZbaT9z7XI1RaURGdn58vwhZ65pIwYbIqrjUMq6Flnk6//isQ4POa7wbyMLSD4VyvqKhIxAvR0dGy0UflPQUKXCcuZo23pgmsJ2FmqKbmUgbPxbryZ+NjKKiMRfp8tRXrm++NZRBShoLLWIRTgWIsxvnzciRweuUrAmsBgfmhtXOpvz+9r4y/GUQy78H5seWG0tEgdnlfGd5ZhkrSiI2eS4W9/NjotYCptlEReNYR4CQzNzdXVEvcWGImQiZkWGuFzzxOkH/4wx/KZPnP/uzPZHdRMwybdiQtkcC6dfsaOjra8MKp1xAUFPbImFP9RAP3s+dOw2aTjXhXhYdHi49Ubt4t5ObdljknCZeoiFg4O7uIVxUVQiST6IG1eAKrENeuXcC9+3eRtnMPRkeHRXlAco1E0/btfp+7SJhPYDHMkVn64uNTZXFhFL7baaBOwq2wKEdM3A/sPyZz7IsXP/ocAusBLtLEvaoC+/cfWXQIIQmsisoSVAmBNYtjR58T1RcJrLk5/xRKy4rE/N3N1QPh4ZEPCawPBT8SWOw35xZKYJn2nlwLtc0nsA4fPqzRMWth0JbYRuNdTD/Kjz/+WKxKqIROSkqSzTEKURiybfjmLoYwWWKTnumvGetBrhlJZFFERGERwzmpjOPv0tPTxZuOFkyLsYVZdwTWM32laOcVAUVAEVAEFIE1ggAXvdyV++CDD5CdnY3f+73fQ0pKyhpp/afN5CSssbERb7/9ttgZ/Mmf/IlMmnVzy7RDudYILG7qdHTcx4WLH4tXU0R4DEJDw1FTW4nCwjwMDg2I/1NUVDxCQ8JFHUUPq8KiXCF06YFF4onhc6xjx3ZfHDny/MMQwk2fAdcIISSxRDX04cMnMToygpLSfMmIyP8nJ6WJQfyTrs2FEFg8Kf2u6NV19eoF8cA6fPgEpqamn0hgsd+9vT04f+FD6ffRw88hJiZxUR5YjPKhWX1hYY5kNGQIoZ9fwMMQwhnZrM4vyEZuTqZ4htH4nvckFVhKYJn2HlyLtSmBtRZHbWlt5pyCqiv6UTJChIorqqGZ/GkucYXV0irWb5kEAcPPnPOkwsJCmfexcMOPvqEksRZalMBaKFJ6nCKgCCgCioAioAiYDAGqObjQ/sUvfoFf/vKX+K//9b9iz549n5ham+xEZq6IlgWcNDN8kDu7X//618W3T4tpEVhrBBbVPi33mnHp0hm5LuJikyTjXn5BlpBSVGylpuyGp6e3KIaYIS8r64Yom+zsHHBg/1EJPTRM3O3tHITUomJryxY7UTpT5UVCiUoCekLV1laiuqZS/n/k8Als2rQZeXm3cO7Ch4iJTsTePQfF5HzzZtvPKLEWQmAxjLC9vU0yCJZXFItKKz39gBB0ly6fQeOdBqSm7kZ8fDLc3T0wPj6GxsYGUaE1NjXg5Ze+iIT4FNlpr6mpwKXLZ+HjswMnjr8AZ2c3MPthaVkh8vOzRTm1c2e6mM7TxP3WratiSn/o4HFERMbAydFZQlG6ujuQk5OJyopS7N5NE/dwqefsOSWwTHsHrs3alMBam+O22FaTyKZ37zvvvIPS0lIcPHhQlD00DFel1WLRNP/xtKGh+v7q1asS8vkbv/EbiImJWbAnlhJY5h8jPYMioAgoAoqAIqAIPAEBLsIvXrwILjIo89+/fz/CwsLW1E4pJ83/+q//Kj6B3PE9ceLEmjWjt+SL1BIJrJuZV9DS0oSjR58XY/H5HlhURN292yiKKvpP7d61V0gmhroxU6CzkysSE1Ph5eUjiqGmpnpcu34RNTWVCAuLxMkTLyE6Oh79D/pw/fpFIaoYOhcbmwjHbU5iXt7d3SWEDw3boyJjhehpuFMjCzZ6RdHwnW24fuMSWltbhLxi5j13dy/Y2FDF9Wk2wvkE1oMHfQjwDxb/LGbvY5FwvZlpCYusrioXxRj/zjpJRNM8vrS0CPb2DkhJ3iUqKfaLhvCXr5wVJdav/dq/R3LSLvGOvXOnHufOn4adnb2ES/r6+gshVV1dgZu3riAsNFIyCLq5eUiYYFb2TclOSMKLGBBvEniVVWWiXON3jxx+Tuq5d68ZZ86eVgWWJd/QK9Q2JbBWCOhVPI2R1Zhqbhq3M6naSy+9BF9fZhg1klCsYgP11J9BgJs2tF64cuWKbP7RD/n48eMyD6TVzNOKElhPQ0j/rggoAoqAIqAIKAJmQ4CmnufOnRN/BBJYa82npKamRvyvqLp68cUXxSyW4QpaTIuAJcAY7BgAACAASURBVBJYH3/8Lmjk7uHhBXsHB2zc8GmIiq3tFri6uSMwMFTC2pipkAut+/fvoby8GCVlhRgeHsKG2VkhtpycXUSZROKLE/sD+48gLW2P/O1+2z1UVpaKoTsz/k1PTWLjpk1wsN8mBuWs38vTR9ROtXVzCiwSWFR8jYwMiSrrypVzQnolJKRgZ2q6EEPzsybOJ7BKSvIxMDgg5JWN9Vy4IvN1sf3MpBgcHCoG7zu2+0uiI5JHJMhIphUU5EgWQIbr2NvZSxhkU9Md9D/oxfPPvYq4uGTZZW9rb5XsiiTsiN2e9IOiOBsY7Bfj+/ttrfDzDcCePYcQEhyOgcEH0n+qzJitcXx0BLMbNkhft/v4irKL5vck8xoaapTAMu3tt2ZrMwgshqhTkaMZ4tfsUH5uw+nzV1xcLGb9DN9/+eWXxU+TRLkWy0WAG5jNzc0S8sk5IMMI+aHJ/tOKElhPQ0j/rggoAoqAIqAIKAJmQ4AKJobgffjhhxJC+NWvfnXNhBFy4lxQUID/83/+D9LS0sSI3sioYzbAntGKSWBdOJuHsLAAODk7rCoKk1OT6OnpRk7OTfFfmpqc/Ex7SP4w3G9X2l74eG+H9SYbzGIWUxMTaL7bhOycm2hqahASi2qm4KBQUWrRnLy+oQahIREIj4iG3cPMgfSBogKprr5avrPZZjO8vLcLGUUVFEPtqDwiQYYNGxAbkwAnJ2dhnvr6e5Gfn4Weni54eHhLiJ+rq9sjBBbDAwcHB0RFxfBA1mWkm5/fuQD/IDGIDw2LkFDHOXJrrl8MmczOzkRjU70QcU5OLmIePzE5IW2OjIjBjh3+sLOzk3OVlRWjrLxI/kZ/LhJQJKQKCnMl66D9Vnsh8ahIIzHV29cjGJDMa2+/L2QE1WRxsYmiZnNw2IaZ6Rkhx2g0TwKRpJiLi6tkdyTx19nVISQbszSGhUXBzdV9UebB5rrw6CNWU9UIG9uN+Po3XoS3j6u5TvVM1asE1vofbpIgN27cwEcffYRjx47hK1/5iiRtUM8ryx97+pbRD+vNN9+UjIT79u3D3r17n9pwJbCeCpEeoAgoAoqAIqAIKALmQoBhRiUlJfhf/+t/iZnnf/yP/1FCADgBtfRSX18vE+fbt2/j6NGjeP311xckf7f0flli+25cK8H5c7mYnZmF1cZVNuOdhYS1jY6NSvjcnD7p0cLFE9VTW2y3zKk+NjwM15udlax9/C6Jr5nZGSFtmKmQxzOqb3JiApskK+/muUXYw++MjY/J34zvkJSh0ovHsg7WNzU9JQ0hwWXFUIxZSFZDhtuRkNpobS0eWE8K0+COOH2rJsbHQZLuSWWT9SY5J+/PDfNNkdnGqSmMjY5I/9hGtn2L7VZRbvH/7A+x4O95ronxMTFh599sN8/VycJ+0kPMaoPVI+di+432Gf0kBuzPZltbOZ4dnuJxY6NCBhKbjVYb56IlH44bsaD67JOsx8bYrOaFPwtMTEzCP8ATb3zpENw9Ps3+uJrNWuvnJoH11ltv4fd///dVgbXWB/Nz2s/376VLl0QJSgU3SRD1vVobg813Q1NTE9577z10d3eLkfvv/u7vPrXxSmA9FSI9QBFQBBQBRUARUATMhYAhI+cig5MZhhFmZGSIJ4Kll2vXruHs2bMSRsWJ8+7duy29yWu2fb09A+js7BPiQ4sisF4R2Lp1C3y2uz70KFuvvVy5fimBtXJYr9aZ3n//fXkPUwVN9U5oaOhqNUXPuwQEenp6xAeLJCStJH7+858/tRYlsJ4KkR6gCCgCioAioAgoAuZEgJn8Ll++jLy8PPGt+K3f+i34+fmZ85TLqptKkKGhIcl4xCw6NIxNT0/X7IPLQlW/rAgoAoqAaRFQAsu0eFpibW+//bZYEPzmb/6mbCK5umr4rSWO0+e1iVkI6SX6s5/9TP7lXPBpRQmspyGkf1cEFAFFQBFQBBQBsyLAMCz6WDCbX21tLb75zW8iLi7OYs3QGfZYXV0NZj1qbGzEt771LQl/XEj2HLMCqZUrAoqAIqAIfIKAEljr/2L48Y9/LO/i733ve0hNTdXMg2tsyLkhSC9U2kjk5OSIpcTTihJYT0NI/64IKAKKgCKgCCgCZkWAYWEksU6fPg2G5ZG8OnjwoGT0szQvC4Y5dnV1ifqqoaFBUnW/+uqr8q8WRUARUAQUActBgM9phqf/wR/8gXpgWc6wmLQlf/3Xfy1zh+9///tISUmxuDmDSTu7DivjnKqzsxPf/e53xVOUm5hPK0pgPQ0h/bsioAgoAoqAIqAImB0BTmKYCps+CBUVFXj++edx6tQp2NraWtSElKGD5eXl+Pu//3vx6XrttdcQFRUlmdW0KAKKgCKgCFgOAvMJLPoUqkrWcsbGVC35q7/6K9AH6wc/+IEQWFrWHgLcFPzOd76D69evg8lxnlaUwHoaQvp3RUARUAQUAUVAEVgRBPr6+sTMk+RQfHw8Xn75ZYSEhAiJZSmFIYPnz5/HzZs3xW/ja1/7Guzt7S2KZLMUrLQdioAioAisJgJKYK0m+itzbiWwVgZnc55FCSxzoqt1KwKKgCKgCCgCioDZEKAXAr2waMjK1MpBQUFCYnl7e8Pa2tps511IxVSI0fvq1q1bEj5Ik3mGOSYnJ8PGxmYhVegxioAioAgoAiuIgBJYKwj2Kp1KCaxVAt6Ep1UCy4RgalWKgCKgCCgCioAisLIIkCSihPy9995Da2srjh07hoyMDHh5ea1sQx47Gz26aDBKj4bu7m4Jb2S4gqOjI6ysrFa1bXpyRUARUAQUgc8iYBBY/+2//TfxwNIQwvV3lSiBtfbHVAmstT+G2gNFQBFQBBQBReCZRoAk1sWLFyVMj8onLjyodHJzc1uVBcjw8LCkdz537hza29sl0xHbtH379md6nLTzioAioAhYMgJKYFny6JimbUpgmQbH1axFCazVRF/PrQgoAoqAIqAIKALLRoChhJzQZGZm4syZM/D09BQVFokjFxcXbNq0adnnWEgFJM9GRkZEEXblyhXU1dVJWOMbb7wBHx+fVQ9rXEgf9BhFQBFQBJ5VBJTAWv8jrwTW2h9jJbDW/hhqDxQBRUARUAQUgWcaARJHJLEYQkgSi2osGrnTc+rAgQNwd3cX03R+zFXYhqmpKRQVFQl5VV1dLSowKq9oLL9582ZznVrrVQQUAUVAETABAkpgmQBEC69CCSwLH6AFNE8JrAWApIcoAoqAIqAIKAKKgOUjMD4+LiQWfaeqqqqE1AoLC0NcXBxCQ0PFf8oc5u48LydUpaWlKC4uRkdHhyiv9uzZg+joaCGvzEmeWf7IaAsVAUVAEbB8BJTAsvwxWm4LlcBaLoKr/30lsFZ/DLQFioAioAgoAoqAImAiBKiC6u/vR15eHq5fvy4G6v7+/khISBASi+GF9vb2QmQtl1TiuR48eIC7d++ioqICBQUFmJiYQHh4OE6ePCmZB1V5ZaKB1WoUAUVAETAzAiSwfvzjH+M73/mOmribGevVql4JrNVC3nTnVQLLdFhqTYqAIqAIKAKKgCKwyggwlG9mZgaDg4NoaWmRTIC5ubno6ekREmvnzp1CMNEbi+QSiSxmBVwImWXUTeKKRBXJK4YMXrt2TfyuIiMjRXWVlJQkBvI2NjYLqneVIdPTKwKKgCKgCAD45S9/ibfeeksIrMOHD2vG2HV4VZiCwOJcYHJqCuNjY4KQtfUm2Nhs+kzSGM5FJienMD09JXMN+nEuZK6xmrDPn+fwZ7Z5oXOklWq3ElgrhbSeRxFQBBQBRUARUARWFIGxsTEhsehHVVtbi87OTiGdHBwchGyiIouhflRlMV360yaWJK2o6GpqapI6adbOjIMkwry8vJCYmCj1sr6n1bWiQOjJFAFFQBFQBJ6KgBJYT4VozR9gCgJraGgYd+404hozH8/MIDwsDEmJCXBxcX7EpqC7uwd3GhvRcu8eAgMCEBUZYfGWApOTk2C7m++2YHR0RPrm5uYqG3KWUpTAspSR0HYoAoqAIqAIKAKKgFkQoEfV/fv3RY2VlZUlflVUSHl7ewvxRJP3bdu2YevWrY+osgxjdn5/dHRUVF0kwdra2sRrq6+vT8ITme2QqisSVxoyaJYh1EoVAUVAETA7AkpgmR3iVT+BKQgsbmTdzs7Bj9/6vxgYHMSunan4wuuvIioqEo7btn3SR5JcWTk5KC4pQ1pqCo4dOwJ7O7tVV/ZxbsMNud7ePgyPjGCbg73MgZj8ZmRkFLV1dcjJzUN//wOcOHYUISHBsLPbuupjZzRACSyLGQptiCKgCCgCioAioAiYAwGR+09OYmRkRBRYVGXR5J1hf/SvIjFFEsvV1VWM3rds2SK7qDSBJ3k1MDAgIYj8Ln/v4+Mj5vAMRSSBxe8Z31HllTlGUOtUBBQBRcD8CCiBZX6MV/sMpiSw3vzxT0VdRSX3qedO4OCB/QgOCvxEhWWpBBZtEHr7+pGdkytzoMjIcMRGx8DDw13mSdXVtcjJy5e5z/HjRxEaHAQ7O7vVHrpPzq8ElsUMhTZEEVAEFAFFQBFQBMyNAD0pGPZHQooKqt7eXvlwojY0NCRKK5JdPI5kFP0fuCvJyZuTk5N4Zzk7O8u//PD35shsaG4ctH5FQBFQBBSBRxFQAmv9XxGmJLCowBocGoLvjh1wd3PD8WNHkJG+S9RMtCWwVAKL6qv7be346OOzqGtowL496di9Kw0+3t4gucVNvZ6eXvH58vb6NPGNpVwdSmBZykhoOxQBRUARUAQUAUVgxRGgyoo7jgwJIKHFiRu9s/h7GpcyJJAkFUkrKq04MVXCasWHSU+oCCgCioDZESCBxSyE//2//3c1cTc72qtzAlMSWG/99G+xjZ6aEeHo7OpGRHgY0nenyf9pSdDY2PSZEEK7rVtlbsHQvY6Ozod2BP2yaebi7Axf3x1ibWBru1mOowqcmZXvttxDe3sHxsbH4OriClc3F0yMT0gdQUGB8N2xHZs22cixbe1taG/vlPBGK6sNcHVxgZ+vL3x8vAX0e/dakZl5G9czb6GjowMx0VGIiYlCTFQ0/Px2YHx8Au0dHRgbG0dAgJ/829fXiw2wgr+/H1xdXaRtbHNbewfa29ul3h07tsu5+P229naxW+jr75e/OTs5y/lJkhl9W+oVoATWUpHT7ykCioAioAgoAorAukCAIYYkrDgZ48/8zC+cqM3/rItOaycUAUVAEVAEHkHAILD+8A//EIcOHVp1ryIdHtMjYEoC66f/9+cICQ7Cnj3paGpsxsDgAAIDA3Hk8EF4e3mhpeXeZwisrVu2CCnV1HwXhUXFqK2pRUdXN6amJkXFxWzJyYkJQgYxsyEJqvKKSuQVFIiiiwrxAH9/eHl7zf2tvAIvvXgKBw/sg91WO9TU1srx9LFqa+uQehkamBAfj/379siGXFVVNf71F++grLxCVOfcnCNRlbF7N1JTk9HV1S3hhSSfnjtxDDSt53dGRkdx7OhhxMXGCglFYisrKxu5+QWwt7fHnozdCAjwx/37bSgsLEJNXT26e3pkbuXu6orIyAhRem338RbbhaUWJbCWipx+TxFQBBQBRUARUAQUAUVAEVAEFAFFYF0goATWuhjGX9kJUxNYzCz44gvPizVB5q0sMUd/7sRxxMfHPvSZetTE3XrjRjQ1NeN2di4qKivFM4shiNPTM6ipqcHo2BiCg4Jw8OB+kOwiyXX1+g1Rhgf4+SIgIACzmEV9QyPy8wtE/fRrX/4Sjh4+KKRQeUWFEEt2dlswOTmNhjuNcp7h4RG8/NILSEyIA2aBkrIyXLp8VdRYycmJSIyPR2hoiJi10wPr6vXr6Ovrx2uvvCRK9KLiUpSUluLYkcPIyNgNZycnMXk/d/4iSkrLkJSUgNSUZAlBzLx1W/ro6ekhBvBUZJEA4/G70lKRlrYTO7b7LDlbsxJY6/8+1R4qAoqAIqAIKAKKgCKgCCgCioAioAj8CgSUwFr/l4epCazo6Ch8+YtfgL2dPW5lZaG6pgY7tm/HoYP7AWwQAooED7MQHjlyCFOTcwRPcUmp+GQdOLAPocHBoqwqKi7Grds52GC1Aa+8/CK2bLaVbIBUOMXFRmNnaooonEhmlZVV4OLlK6ioqMQbX3gdR48cgouLs2RZ3mRtLXYHPH9TczOuXruBgsIiHNy/D/v2ZYg6rLX1Pt774EPU1TXgyKGD2L07TUglqqyKi0tx+epVIbDeeP1VeHl6oqyiEpevXEV8XCz27snA9u0+Qn6du3ARLXdb8NxzJxDg74faugZcuXJVyCu2l+GUk5NTkrWxuLhEvESPHD6E2JgosWNYSuIbJbDW/32qPVQEFAFFQBFQBBQBRUARUAQUAUVAEVAC65m+BsxBYH3117+M7du3o7GxGdnZOWhuaZFwOnpaNTQ0oqyiQggsqqoGBgZx+oOPhOjy892BxIQE8ZSicouEEMkm+lx98QuvSwgria6We6145eUXkJSYACdHR7E8YAji2XPnRQH18ksv4vixw0I0kQgbGh6W0MDR0TEJB6RSq6ikFLt2pgphFhgQIB5V771/GjW1dXOqqvTdQkoNDg6hsLhYyCoSWF/8wmsICQ5GY1MTLly6DHp4kZiiWquyskoItomJSQljZMjjzczbuHz1GpITEhAXFyPhiQwhrKmtR3V1tbT9+edOYufOFGyxtVUC65m+G7XzioAioAgoAoqAIqAIKAKKgCKgCCgCS0JgvgLr8OHDS1pcL+nE+qUVQ8BcBBZJIXpbMdQu89Yt2Ds4wNXFGeNjE6itr8futJ3Yv38vuru68c57p3ErK1vIJgd7e9jY2AjJMzE5KRmR/f18Rfk0OjYuJBEzHb726kuIiY6WsEKSQPTXOnPuPM6cPY+XXnxBQgipurrb0oI7jU2439qK3v5+MX5vbm7B+PgYnj95AseOHRECi6GH784nsDLSxZvqcQLrS2+8juioSPT29uH6zUw0N99FeHiYGL+TGKN5Pc3Z9+3JEM8sEmofnTkLm02bpD3sGwtVYxusrBAaHISXXnoByUmJSmCt2FWvJ1IEFAFFQBFQBBQBRUARUAQUAUVAEVhXCCiBta6G84mdMReBRd+qTZs2CYF0O4u+V6WYnpqSbIQPHgzgwP69osDq7+vHe6c/FK8qN1dXBAYFwMHe4ZG2UrUUHBQgJFVOXoFkSaYXFcP3HBwcxGfqzp0mnDl7DhcuXZFwQ3pLDQ0O4eatW0K8Uk1FU3eqsSoqqlDf0IC9Gek4dOjAogms2JhoUVkxDPHqtesSqhgVFYXCwkI4OTqJ8Xt4WBi6urtx6dIVCW2kaisgMAD29naw2rBB+rfJZhM83NwRFhYKLy9P0A9MQwjX/z2nPVQEFAFFQBFQBBaFADPqtd7rRmtrF2ZnHs2ut6iK9GBF4HMQ8PRyga+fB6ytNypGioAioAisWQSUwFqzQ7fghpuTwKKJ+tDQEKpravHhx2dQW1Mn5uz2DvaSze/w4YMYHxuXUDyamru5uyF99y74+/rCZrON+GONjI1io9VGODjY4+7dFly9fhOVlZXYm5GBlJQk+Hh7SXhgKT2wLl0Wf60vvP6aeEpRHfXBx2cQGOCP40ePwNd3hxin37yVJaGNVIGRRAsKZAhhh4QQVlZVi6fVrrSdYiZPpRQzG155aOJOBVZsTIz4ddXX1wv5xvN7+3iLUXt8bAwOHzoAd3d3PHjwQPy9rly9gcjIcCQnJYkvFvvGEMmJ8QnxvXJydpJQxKWQVxxo9cBa8OWuByoCioAioAgoAmsPgampaZw7k4PLFwtkErFxo9Xa64S22CIRmJmewejIGHalR+PFV5ie29Yi26mNUgQUAUVgIQgogbUQlCzrGIbekVChX5TtAjyVzE1gMbyvp7cPNzNv4eLFy6iqrhE11Ksvv4hjRw9jdhYoLilBdm6ehPdFR0UhODgQ2xwcMDkxicGhQVFthYeFYmx8Qgiha9dviPKKoXwkn0gGlVdUIis7F52dnfi1L39R/kbC6+y5C/DwcBdijConnuPW7WxUVFXh6KGDEkLIzIdd3T346OOzKCwsgr+/H2JiohAaEiIhivS7YrggPbAMAmvr1i3o6OiUkMXKqipMTk3CxmYz9u/bI+bwbDPJr9KycvHPGh4ZRVCAPyIiwsXgfmR0REIsHR0dRQFG36+lFiWwloqcfk8RUAQUAUVAEVgDCJDAeu+dG8i8UY7k5Ehsc3pUqr4GuqBNtFAEhodGUJBXiagYP3zpK0dgb7/FQluqzVIEFAFF4OkIkMB688038d3vfhfqgfV0vCzhiJGREZSXlwt5FRER8Ynn0ue1zdwEFs87Nj4uhuxUWl27dgMkf049d1LIo82bN4tSqaqqBrn5+aKa4v+ZMdDNzRXBgYFifh4XGyvHNjU1ITsnD0UlJejr6xPPrNDQUGxzdJAwwpKSUrz6yktI25mCwYEhyQpYV98g6iaqn3bs2C6hfTyfocAKCw0VsiknNxfXrt+U452dnUSFlZyUIETVzVu3HyGwqAijAX3W/6/kOn/xEuob7sjxNIBPiI8VZRXJxO6eHjlXXn6BZEAcHBzEhg1WcHJyFOKMBvD00HJ2clry5aME1pKh0y8qAoqAIqAIKAKWj4BBYOXl1OLYid1wd3e2/EZrC9cEAv39gzh/7jaCgjyVwFoTI6aNVAQUgV+FgBJYa+v6IGHS1taGf/qnf0JHRwdiYmIQHh6OkJAQeHp6PjFEzRQE1vDwMBqbmnE7Owfenp5ISU4S8okeWCxsF0msWsm8V0NuCpER4ULc0Nyc1g49vb1oaLgj5FFnV5f4Zbm4uAjpRD8tGqOTwKKH1b3WViGFaLxOYoqhgVScMQyRpvEvnHoOGbt3SRg/swrWNzRiYHBAPLb8/HZgZmYWHe0dEiIYFBwED3c3acP9tra54+sbYLWRBuvBILkl/WtswsjoqGRJ9Pb2FILQyJRYWl6O+633xQcrMiIMHh4en2BNY/r+/n7JOtjY2Ch94/kdnbbB388PEWFh8PT0kPqWWpTAWipy+j1FQBFQBBQBRWANIKAE1hoYpDXaRCWw1ujAabMVAUXgiQgYBNb3vvc9HDp0aMkePQrvyiBAM3OSJN///vdx9epVCbPLyMjAvn37EBsbK4SQk5PTI6GFpiCwSP4wVJBZAzdaWQlxRUJpfuExnH9NT0/Jr6lQoo+U4ftEkmtqelqIK/7Mwix99L8iEcX6WMfo2BioMuP/rTbM/Y6kFpVX+QWFeDAwgOefO4nU5CQxTGddbBtJIyurDXJOg1Szmlc3f8fjPm3jBjkvjzf6x3+NvrHd/D/rn5xkm6elT/zM7zuPmev71MN2POzbBiup2+jbUv2v2G4lsFbm/tKzKAKKgCKgCCgCq4KAOQgsTno4KZuemXk42Xp0ArMqHV2Fk85N0iYfmaQ93gxO0ji5m5vkLS3jjqm7xgkoJ5/04mDbjAnuYs+jBNZiEdPjFQFFwJIRUALLkkfns23jO5gZ+jhu7777LkpLS0EjdcniFxwsRNbevXvlZxsbG3kP/83f/A3ef/99/OAHP0BKSorFdph9o2cUfa2aW1rg7OwMR8dtQng13GnE7axs8beKiozEyRPHEBoSDGvrTXiY8M9i+2WKhimBZQoUtQ5FQBFQBBQBRcBCETA1gUXiqqWlGdU1Fbh//x4CA0MQER4FDw8vbNxobaEomL5ZJIAGBh6goqIE9Q216Ovrwcz09GdOZGNrCw93L8THJcPX1x9btiw9846petHT04Xm5juYmJyAj/cObN/utyQSSwksU42I1qMIKAKWgMC//du/4cc//jFUgWUJo7GwNtDLqa6uDv/8z/+Mv//7v5fwNW4c0Sw8MjISYWFhEuoWFxcnqiwe9+GHH1o8gTXzkMCqrKwSs3b6XzGEb2p6SlRTnG94eXmJD1V0dKR4Si1H1bQwtC3jKCWwLGMctBWKgCKgCCgCioBZEDAlgcUdwbGxUWRl3cDFSx/jzp16xMbE4+DB40hISMXWrXbPzASKyqu2tns4ffrfUFSSJ6mxucP7eBjBRmtrODu5ICE+BXFxyQgICIKt7ZbPHGeWwf+cShvu1MoYjowMIy4uCclJuz7x7lhMO5TAWgxaeqwioAhYOgIksGjiTgKLJu5857H8qn+Nvz1+3EK+u9C6n1TX478z6lrMeS21jvntehq+cyFtk/j444/x9ttvo7e3V1TRhvKZCmM/Pz8cPHgQJ0+exM2bN5GTk4O/+Iu/sHgFFsPwaJaem5cvXlrilTU9Lf5e4WEhiI2JQVhYqBi7Pz73sPR7bTntUwJrOejpdxUBRUARUAQUAQtHwJQEFidOfX3duHTpLHLzb89NmGaB+LgkHDt2Cq6uHiLRfxbKfAKLfhSJiSnw9wuS8IX5pf9BH+pqq1BRWQI/vyAcPHAM3t7bsXnz0g1Ml4uvEljLRVC/rwgoAusRgXfeeUcIrG984xvYvXv3J54/hveP4e8z//8kUIzfP+3np/39SfXOhXx/eo6nnXupxz6tbU/7++MYGccv9HtPOt6o80l1PP67lpYWUWKNjo4KyUM1kqFIsrOzQ0BAANLT0yWr38DAAP76r//aogksg5AcH5/A8MiwZA0kocU5l/Uma9hu3izzDRq9cy72rKiviIsSWOvx6at9UgQUAUVAEVAEHiJgSgKLE6h795px9ep5tLQ0ISAwBLW1VXB398BzJ19BQEDwZwic9ToQ8wksSv337TuC0JBw2NnZP9JlqpyamhuE9CO5l5qyGxERsWI2u1pFCazVQl7PqwgoApaMwPnz5/GjH/1IFKn29vaPkCDzCRGDLHj8d6b8/XxCwjiPKevnOCyl/Uv93uNt/7y+zK9/Me27ffs2PvjgAyE3SPQY/o4kwahYork7FVh5eXnilfWXf/mXFk9gWfK9spptUwJrNdHXcysCioAioAgoAmZGwFQE1uzsDPr7+1BcxZZupQAAIABJREFUXICKymIxJI+LTURu7m2MT4wjffc+JCSkwNHR+ZEeTU5OoLe3Bw0NNejr65W/cVLq6uqO7dt94eHhLaF3LDy2s7Mdra0toE8TiSEqlVxd3UTdtG2bo5BARoab9vZW3Lt3FwMD/TJhtdm8GS7ObvD3D4Szs4t4cvHYwcEBtLffF9KNIZAsNptt4bvDX9RQDg7bpE3cue3v75H20tPLxcXtkaxB8zu2UAKLnmEdne04e/Z9jI6MICYmQcItnZycZZd4aGhQ2tXZ1S5tm52ZlfP6+OyAl5fPJ0ot7jaTDGN/7969IyETRmGYouFlxXoNU/bx8TF0dLQJnr293fJ7J2dXjI4M4U5jvWAWH5+sIYRmvge1ekVAEVgbCFRVVeHs2bOor6//NPPbQ3XLfBJJMsI99nvj/+b4/fw6F/PzYo41Eo4Y/Xzad5/2d1PU9yRMHz8v36M9PT1g+OfPfvYzdHR0yPuR6iR/f3/4+vqKFxYVdWlpafjFL34h4YY//OEPlcBaG7flZ1qpBNYaHThttiKgCCgCioAisBAETEVgkVwieXLp8lmMjY0gODgMEeExKC7Ox92WRnh5+ogKiYSQkW6ZBElXVztKSgpw/cYlIZE2Ws9l4iN5lBCfirS0DCGzSNB0dXWgrKwIxSX5aGpqkN9ttbNHgH8w0nZmICwsUoipuQlrNwoKs5Gfn43OzjYxN6W31A5ff+zbexhRkVQ5OQopVl9fg7z8LBQX52FoeFBIIpqpk3DbmZqB8PAobNpkIwQbiTYeHxuXiPCwKNjYbH6iNH+hBBZJJBqmf/zxu9iwwUr6Gx2dIH5hJN7oI5ZfkI26+moMDj4QY1aaqpNYSkneBU9PHyH4RkeH0dR0B9nZN5Gbd1v6RRynZ6YlpCA6Oh67dzN1eCIc7LcJOUVcsnMyUVKSLyTWJhsbwZ0qsdGxUTkuJWWXElgLuZH0GEVAEVj3CPA9Mjw8LATIfO+l+R1/PFTrSaFbnxfOZcrvGptBjw/KQtqz0PY96RzL+a452jw4OIjr168LMXXp0iUZt61bt8LHx0dUV/v370dMTAxcXFyE1GKI6OnTpy3exH3d32zL6KASWMsAT7+qCCgCioAioAhYOgKmIrCoFKquLsfHZ94TZVB6+n7s2O6Hlpa7KC7JQ19vj/hgkdgi6TNHMnUhJycTV69dkPDC8LBIODm7gKROTU0lHvT3IUVC6mIwPDyIgsIcyezn7u4Fn4dE2MDggJAvVBLtTE1HbGyCLC5y826hp7sLdvYOoj6ytbVFT28PmprqhaCJioxDSEiYpNjOzb2Fe63NQmo5u7hiempaFE8kqgL8g5CRcQBubh4y8R0eHhJV1LZtTqLM+jxj1PkE1vTMDPbtO4zQkAghpuYXKp/Kygpx69Y1+Gz3xeFDJwU/TrqrqsqEWPPy8oafX6CorZjd8O7dJiGffHx8xfydaiwaxt/MvIqhwQH4+weJSovE1uDQAOrqqnH3biPcPbxw8sRLQlKRjCsvL0ZRUS7c3D0QFhoJKrU4TqVlhaioLEV4eDQOHzqhBJal38TaPkVAEVAEFIEnItDe3i5k1Pvvvy+qOZJVJK5SU1MRFBQkmfq2bdv2iTL5r/7qr+RYficlJcUkqH7WDJ/+W0LXPfzXJKf5lZXMJ1xN5YdljjpNgYQSWKZAUetQBBQBRUARUAQsFAFTEVhUT5H4yMvLQnRUnJA+DOl78KBfSCoqp9LS9iAuLhFubp4gwUOSigogKpBIlCQm7oS9vQMmJsZFcdTRfh/e3jvg4uKK5rtNKCjIgq9vgKiIGDJI8ojhf1XVZUIAUd3FELwttltx4eJHTA0lWfTi4lJkgsoQR55rbHwMnh5ecHZ2RUNDLbKzbwgx9corXxIjdRYSSzU1FUJ2kXRjXxhyuNAyn8BqutsIVxc3uDi7isppfmEIIdVQ9nYOiIiMFhLNxsYWd+7UoqS0EF1dnUhJSUNMdILsDnPCSGKNKjSSdlSJxcUmS3hhfUONhFCSKGOoJn8m2UYi7MrV80J+vXDqdfj5BUgdVKcRw3ipI1F+ZojmrdvXkXnrCrb7+GH//iNKYC100PU4RUARUAQUAYtCoLOzU1RVlZWVkm0wPj4ecXFxQl7RvN0IqTcabUoCay6xTT/ut7Xh3r1WdHV1y/zDzm4rtvv4ICgwED4+3kvK8rtQkDlnoHKwvb0Dnd3dcHF2hoe727J9NoeGhtDV3SObgG6urvD29npipuWFttOUxymBZUo0tS5FQBFQBBQBRcDCEFg+gTUrpEptbTVKSvNF2ZOYkIrExFSZGI6PjyM/P0tIESqhGJIWFhYlIW5UPlXXlAvZkr57v5BTRnghyRYjixDrpPqqoCAbUVFx8KcaydaWe5dybqqlSJCRYOLfd2z3xdWrFzAw2C/hdqGhEUIekRyjcorhgBs3WomnFUmqrKwb6Ontwq60veJtxdBChiIyjHDu2LmwxsWU+QRWYXGeqMpsHtY1NT0lhNngwAC2OTqJcuzY0VMICQmXMMfp6UnkF+RI+CXNggMDQ+Dh7vWwDfTsGkTz3TuikkqIT8aejENCxllZzeFBQoyYUbXGYzs621BUlCeZiU4efwment4oLMxBUXE+UlN3IzYmUfrNwnaz3szMK3K+5GQNIVzMuOuxioAioAgoApaDAN+BmZmZ8l6MiIgQxRVDCD8vM5+pCKy593AfKiqrUFJahqamZrS1d0h4/jaHbYiICMPe9HQkJyfKfGZkeEQUYtx4cnCwl+yBiy1MpDM8MoKJ8Qkh5+zt7WROQLIpN68ApWXlCA8PQ3xsNHbs2PHUeQ2/yznc4OCQeI5u3WIr9XJucP9+m9RXUVmJmOho7Eylx+mnSrbFtt2UxyuBZUo0tS5FQBFQBBQBRcDCEFgugUXzdu7uMdStqDBXQgCpkAoKDJFJzszMrJBEObmZchx9m1JT04Uoybx1VTyeeCyJEhIrjxced/9+q2Q2/Ojjd2Ryt4WTzw1WnxzKkEF6PVG9tHfPYYSGhqOykqqsq6ipq5TQO3c3T0RHxSM9Y7/8zJBCyvf7+rpx4+Zl3L59XdRcJJd8dwRgT8ZB8Y2iQTxJJJJjiyGx5hNYDHMkJgzdo4qKYX3V1RVCyrHu40dfEKUYw/5IQpFYu511HZevnJPQP060N9t8Opnlrq74eNjZ49DB4+LpRRKQY8EJbEfnfWTdvoHqmgrxDSPuM7MziIyMwQvPvyZkV2FRriiz9u07Ohc66ewieM4pvKpxO+uGeJnFx6eoAsvC7lltjiKgCMw9qyYmqGCdVjjWCQLcWLKx2STvQVMVvi8HBgakOhJXDK3/Ve9yUxBYvDZ5zvzCIly7fgN377YgMjwCPj5esN3CTappTE1OISQ4CDGx0dKe8opK1NXWCwmUkBAHP1/fRUHAc/I8FdXVaG9rR0x0FGJiorHJ2hoPHgzgZuZtFBQVIT42BikpSQjw93/qnIZzq9b7bSgoLMLkxCSCgwMRFxsjGDY13UV+QQFKysqRlJiAvXsy4OzkBGvrjYtqtzkOVgLLHKhqnYqAIqAIKAKKgIUgsFwCi0QNvazOnjuNK1fOy+TMzc0d2+wdP+lh/4M+dHZ1CAlz4MBRHDxwXIgohv01NTcgLDRKwgc9PDw/gwrJlzt36nAz87KohoKCwuDt5QNr603knz4pVEoxhJChhQw5ZLggM+m1/H/tnddTXWl75RcIJDKHnEHknHNGQqHVX0f35zD2zJ2/8vwJLt+4yne+dZXL5SvPuCZ8M9PuJLUSCiAQIJEROeecc5KYWs8RaqVuoQA6HJ5dpWo17PPu9/3tfXT2WXs96xnux9rqCoaGB6SckSKRn2+AiFPR0fEiII2ODWOgv1fWMTI2hKmJcbH5U4xjVhZzpphBRfFpv9tvhbjTjcXcrvtVpRgc6BPhLjurQJxWFNb4tPTu3euoqq6QY3Jdzs6GFw7NvCpmcAUHhUlmFksFm5vr0d3bgdWVZdjZOUjZpLXVSSwuLUjppKubOy5d/ELELgpYFBZ5LihsPd8dsrevS1xp7GpIYS01JeudShwWFpZx43olQkK88Bd/dQ4ODvvnt1/Oup8SUALHk8D6+iYePuhAb8/I8QRghqv28nZDbl4cDAaHj7a6DyFg0T3O0sWbt+6IMGVz6hSKzxYhKDAQp2xOYXt7Rx42OTo4wMXFRVxZd+6Wob6hEUEBASgqLEBERNhbMeAxH7W04n5VNUZHx1GQn4PcnGw59tbWNoZHRjAxOQkvD0/4+HjB2fmXe7TXHWjPfdXR2YXrN0pE7EpLTUZOdpbclywuLmJ8fAJT0zPw9vKCv78fbGxO/Wou6Fst5j13VgHrPQHqy5WAElACSkAJmDKB9xWw1tfXJMvqxs3L0v3O2cnw1N30y6p38USeNm7vbIsYcqboAry8vKVMjllPFJ1YysaOei9vFLAYQl5Tc1+6GX5y8UsRnxiGvh9HFJ90rqwsoqamGjW1lRgbGxH3V1pqtoTKU/yh+MWNTxuHhwfEGUUBh6V3FK7ycoqQlZUvwhg7Be5ne1MXQuZ80SVWVX0PFIw4n4z0bPj6Borzie4rhqwz+yojIxcBAUG/etiVlSXjOSj5Gf393XB385CywqSkVHFbcU3MBFvfWMMnF7545sBqbW2WzpCxMXRgucn4dHGRNx1gFNrUgbWfs637KAElcNgEFhZW8D/++w001HXDzc0gHWx1O5oEKJYszC/By8cVf/ivn8Pf3+OjLeRDCFi876C4c+XqdRGO/Hx8cOnSRfj78X7D+tnaWGZId1RXdzdKbt9FS0urOK+SkxMRHxcr+9Nxzs6Xc3Pz4ura2NyEpYUFDAZneHp6wtHBUfItJ6emUFX1EJVV1ZibnxcXV1ZGOvz8/ODq6oLVlVUsLCzA2WAQp5Sdna2UB3Lc2fl5rK6sgA1nHB3s4eriCjt7O0xNTUvp4d3SMnFyRUdHITUlGWFhISKMra2ti5BlMBjg4WF0q/O+jOMuLS9jZmZW5ry1vQN7Oxt4e3nLXIz5pcuYnZvDwsLi0y7RNiLmeXl6iED2cjbZ21wQKmC9DS3dVwkoASWgBJTAESPwPgIWbzoXF+dRUXFXAsTZXTArM0869lla/vJlgmIOQ97vljJI/Ani45KkuyCdVe0dLZI1lZNThNNBwc9eR4GH4hVDzmdnZ1BbV43m5jrk5Z2VjC0PD+MxOAcKTxR9+P/G8gDmW63JjdRehhVDzpeWFjA6OoTS0hLJuWJAOTv58UaJ43AenB9fOzMzhdbWJoxPjEqAe2HBefj4+L6wrt861W8SsHic5eVFCWovKyuR46anZSM7u0DcZcwHa2iskWMzED8yIvZZFhdvesmH62ZOBt1XTU3Mt6gXkS0rqwDeXj6wsbETF1V7ezNu37mBXeziqy/+TLoWMl+LLiyG3jPAnRy4UbR61NIgGVhkx3JPdWAdsTe1TlcJHAMCewLW+NgCcvOSYK8OzyN71nkfUlfThrX1Vfz13xx9AYuf5xRRKEo1NDbJvcj5c8WIioyAu5urfG7zvoOZVz29fbh67Qaqqh9gdHQMtna2IghlZqThd5c+gZeXJ/oHBtBQ34j+gUFxPHELCTmN3OxsxMZGiyBU/eAh7twpQ0NTEzY3NmFwMSAmKhI5OdmIjYlGV1c36hoakZQQj/S0VMkCG5+YQE2tMRtrcnJScsICAvyREBeHsLBQcY/dvlMqr+WaHJ0cpezxqy8+h4uLAX39/Wh+1Iq0lGQpIaSoxv24jta2DjQ/eoSBwUGsrq5JyPuZwnwkJyXKPVpLa6tkg3GMpaUVEbYS4uNxpqgA/n5GN9e7bipgvSs5fZ0SUAJKQAkogSNA4H0ELN7sTEyM4sqV7yRjKSE+BfHxSSK6PO9UMt7MTeLWrZ/R22d0CNH9xKd0TU21GBjsQ1HhecTHp8DBwUFysyhu9Q/0SqkhQ9mnpiYlM4vCU1pqJhITUyTbSlxTI4PG/C2DK4KDQ3DylA3qpMPeCQlGZ2kexSkGp7P7XknJFcl8ohhGGz/L6/gEMzMrX/KxmMMxNzcr2VizM9Pw8wsQIYd5WB/KgcVLg09px8ZHUF11DyW3ryI0JBxff/WfRGAaGRkSd1ZjY424pJhzRXGKWVwUA7mO0dFBhIdHSwA7Q+ybmuvg7x+Iixe+kH25NnZZvFnys5QL+vkH4puv/xNOnw6VNbMLIYPuKQjSAWdhcUIEvrJ7Jai4XyrzOXv2ExWwjsD7WKeoBI4bgT0Ba2ZmBefOZ8HR0e64ITCb9fI+pKK8QTr2/fXffHbkHVg8MSsrq+KsunevAo3NjyTbKyI8XAScmOgouLu7sVGyuJAo5rCEsKOjU7oSxsREIzE+HqeDAsS9NDg4KI4uOpMoBg0ND2FwaBgB/v7Izs5EXEw0ZmZnUVX9EA8e1oiriaJVamoKAgP9YW9rh4rKKnFnZaanITc3B05OjqiseiAiEh/ghYYEw+aUDba2t2Bna4uEhDhxUdXU1OF+ZbUIbuFhoUhMTEBsTBSWlpZRW1cvAhhLFS+ePyedDUfHxmT/hsZGODk6wsvLS47FYzB3y8PdTUS4GyW3sL21hdCQEBHb1tfWxb3PMkUGzLNT47tuKmC9Kzl9nRJQAkpACSiBI0DgfQQshp53dRnLB328/VBUdEGcPK/rnsMyt6amelQ/KMfK6jI++/QbybwaHh5CXcMDscRT+JLSQACr62vALhAYGCQizeOdHXEN9fR24dSpk+LysjphJaHrK8vL8uSWWVqRkdE4YWWNmoeVkm3Fmy7mXp20tsb2zo64q7a2NhAaGoW42AQRqhoaHmJwqF/KCe3tHXHC0hKbW7TWz8DT00ccYywl5MafMSuL5Y6cw691KHyTA2vv0qBDqqurHX/8v/9NbubonspIzxXBjWHqd+5ch4WlpZRcGpxd5Hira6tYX1uVjoUJianw9wsUQYolnOw8yLkxiwy7FlhbW8H4+ChGRodEOLx44XPp1MgukCwVpHOLZYMU/6zIaGtLOhxSPAwODkdR4TkVsI7A+1inqASOGwEVsMznjJujgMUHVItLy2hrb0dtbT26urok+8rT00NK8RLiYsXtRFFqbm4OV6/flLD0yIgIcSGxWyDvhSgUscyP9zqeHh7icGrv5IO421haXkFaWjI+uXAeDvb24va6V35fygmZo5WflyP3Y8tLy7h567YIWOwWSOcWBTU6vzq6umUely6eh6eHuxxvfWNDxDELS2O4/OUrV0VcoissOytTsrv6+vpFFHtYUysC1oVzZ+WBI0sO6SZjuSKFMoa+u7q4GDssWlvLgzWO+e1338t6vvjsd4iMCJfmNdzHy9tLShzfpQvj3jtCBSzz+bdBV6IElIASUAJK4BUC7yNgzcxMS3kaw8PpcsrJKYCjo+G12QUUTOiiYrbS8PAg8vPOIiwsQp5AdnS0oOTWz9Jxj1Z7ijShoRHSmZAZTC4GV3FI0cX18GGlOI0Ygs6fsSzOy9MXeXlnkJSYKoITyw6npiZE0KHLaH5hFjsst7OxEYEtN7tQRBy6lHiT2d7eIl0SWTJIQYkbuxVFRyeImBQTEy/lkfPzc+jt7RT3U3xCMiIjYuTnr8viojttZmZSgu355DEtLetpEPyLTxX3SiTpLqOgROGqqPCCOMkeP34izqnbd67JMVkmwI3zpliXl38GAQGnYWtjK3kS5FJbWynjMG+MbrXAgGDExSZibGwYa+tr4pLj2ikWLi0tSidCOr34X5YMBgWFPC0BtZS5xMYkyP68MX3bTUPc35aY7q8ElMB+CaiAtV9Spr+fOQpYpG6MJFjH1MwM2tra0dTUjL6+AWlAk5SYiOysDHFlUTC6dv2GiEHRUZE4V3xWRB1uvJdYX9+QcfgQjvcyQ8PDuFdeiZHRUSQmxOHLLz6Dm5sbGhubpeshywGLz55BQUGePLyjAEbH056AlZeTLRlXdH1RTGKOVlZmughZDHen+4kuLB7v0aMW/PDTFRGwcrIykZubDVsbG3T39KK84v4zAetsUaE44n++el3mRUdXcfFZyfHi/QPvg7jNz8+joakZ3//4E05ZnxJBjIH1LCF0sHeAg4O9ZGnt3e+8y9WrAta7UNPXKAEloASUgBI4IgTeR8BiRhXzl+iuonOKLp5fcyQZs6q2RATijRhL+OztGcRuKa6hyckJcQtxoyDk4OAEg8FFuu+xbI52LN4c8eZncWleHEh7N0SnbOzg4e4hgg0zsH451jwWFmbFTbX75AksT5wQUcbNlfs6Ph0XUlq4sDAnXQrpnOLGY/LYXJODg6P8jPOnwMX9eSz+/Ndusowt3rneGRHpKBjx2K/ub1wXuyaurK7IE1c6xsiGd7k83vT0BOh229somrEDoZubh5RRckyKeQxL5Tq4L2+craytYGfrIOtgthVvhDln/uENIsU7roUZY8wHY+tydi/kjSpdX5YWJ+Rmkq60/QTmv3zJq4B1RP4R0GkqgSNI4GMIWPx3nf+20rXKfxNZpv4u/zYeQdwHOmVzFbAIbS+nk92FWS7Y1dUjTisGnKckJ6G4+Aysra1wo+Q2ampqERUZiXPnziIqIlweYvEeYGhoGN09PRgeGZUxJsYnMTA0JK6rM2cK8fWXn8PdzU2EodJSNqCZEgGrsCAP1lYUsOaeCVgsIWReFTOpenv7pWshRSy60zlGUlIiMtJSpasgN3Y2/P7HyyJaZWdnIe+pgNXV3fOCgFWYnyclh//x/Y9YX11DTg73zZFSyec3RkeMjY+jvKJSxp6ZmREXGoU7ZmnRncYOyipgHehbTgdXAkpACSgBJXB0CbyPgHV0V60zPwwCKmAdBmU9hhI4ngQOV8AyClfT01Po7GqTkm2WnLMBhqurxwud5Y7n2Xi/VZuzgPU8GT40YsB5+f1KXL9RgrDQUHzzJ19J+Pntu6UvCFgRYaEiCFHk6enuxdLykvHBm6Ulpmdm0d7RIQ/JsrIy30nACgkJlpwuBsNTHGPO1tjYuDizYqOjxWnFMHnmcu1HwCoqyMfK6iq++/5HLC4tIjM9XRxgLBN8XuTl+4hlhKOj4+jp60Vvb58wYbaXn58vLl28gNDQ4KcP8d7tulIH1rtx01cpASWgBJSAEjgSBFTAOhKn6UhOUgWsI3nadNJK4EgQOEwBiy4aulhb25px7dqP0sGVJeSf/e4bxMcnisNW6sJ0eycC5iZg7Tmw6YqmA5vOcKOjaBdTU9MSfv7TlaugiPRnv/8arq6uUs734EENQkNDcLaoQP7LsPMrV6+JA4tCELOxvL28MD4xibJ75ejvH0BcfOwzAaux6RHulpaJIFRYmC8ZWCetT4Lur1t37j4Lcc/Ly5FA9bX1deO8dndlTLq3KIyx2+A3X3+FwMAA6ZL4/Q8/SeZoZnoqsnOyRFzq7++X8Zh5xQysc2fPiMv76vUb8hofby8UnylCcPBpybPi7+i4t7BgWeTjp9fJroh0DQ1NuHHzFhYWF/Gf//IvpEviy86tt7mwVMB6G1q6rxJQAkpACSiBI0ZABawjdsKO0HRVwDpCJ0unqgSOGIHDFLDonGF5dkNDDe6U3sD8/CycnQyIjoqTTq3sHGssddftXQiYm4DFWIDp6RnU1tVJcLuLi4uUCbIkcGx8DC0tbSLWpKem4Py5sxIFQAcWM6UMzs5ITUlGWFioxC3cKS2TDoReXp7Iz80RF1Zffz/KyiqwuLiIjMz0ZwIWSwEpYLV3dEl4OsdxdHSQ8j+WCu5lYOVkZ0nmVHd3j5TvsWRvbXVNhDW6sShQffnF5wgM8Ef/wIAIWMzZDA8LQ3paCjw8PTA7Oyeh8XtdCC+cKxahrqauDvfKKzA6No6UpETEx8VKPhfXwowrK6sT4tRiYx5bO3vp+sxA+NJ75RKD8Ge//0ZKK93cXN/lUpLXqID1zuj0hUpACSgBJaAETJ+AClimf46O6gxVwDqqZ07nrQRMn8BhClgUJAYHe6Vra3dPB5wNrlhanBdXCV1Y4eFRkgOp27sRMEcBa8/R1DfQj6XFZcm4ZEboqZMnJYeSIe2JifESdk73XkNTkwhY3d29sLE5hbjYGMRER0teVGtbm4hYdGoFBRo7PbP0bnZuHsnJiSJgebi7yz4UlBjkvrK6Bn9/XyQlJCAsNETysX7pQpgFBwcH6RbYNzAgnQcp0rLzs4eHu+RwpaUmSwnh+MQE7t4tQ219g+RkhQQHIz8/VxxZ7e3tqKmrFwfWxfPF4kScmWVn50bJ+VpcXJLuiXSBcVwKar4+3picmkZraxsmJiextb0tOV3sLh0QGIDCvDwEBPhJFue7bipgvSs5fZ0SUAJKQAkogSNAQAWsI3CSjugUVcA6oidOp60EjgCBwxKwWA7GZhd1ddWSf8Uv7hER0eju6UR3dzuKz15CQkIqPDw8X6BGcYvNMcYnxjAzPYknu0/k92xQ4ucbADc3d3HecHzuyy67ExOjcix+6T918hScnV3g5xcoTTsofuyVMs7OTmNoaAAbm+sy5qmTNvDx8YO7u5cIE3uZQwzMnpubwejYMJaXF2Vf/s7dzUv2Z4MPdojbyyUaHx8Bx6ZQwWNJ0xM3d/j4+P9KE5IPc6GYm4BldOwt4lFLCxh2zvB1NqBh8xQvTw+Eh4eLQ8rP10ccUOQ/OTmF1vYO1FP4WVpCSPBpZKSnw9ICaO/ski6GLPkLPh0Efz8/6VzI7oJ0SWVmpsPZyQkbG5vSoZCliL19fSICpdDNFRIsc2CeFTv+UaDi75ofPULzoxaMjI5JASyD3ePiYhEbEy2CGOfLnCyugcLY8MgInJwcUZCXCydHR3FZ9fT2SgB7clKiuMO4UZjq7OxCa1s7hodHJKsrKCgQmRlp8Pf3lwD7+oZG9PT0YW19VZrwREdFIS4uGoGBgeIYe5/mCCpgfZj3pY6iBJSAElACSsAkCaiAZZKnxSwmpQKWWZxGXYQwhDACAAAgAElEQVQSMEkChyVgGcWlCVy/cVkEpsTEVERHxaOjsxX19Q8QER6NlJQshISEPfvSzdews2xraxMe1txHZ2erCEL84+HpjezMfKSlZcPLy0ecL7OzU6itrUJt3QPMzExJx1uWVwUFBqMgv1gEM7p2KASMj4+iubke5RW3sbi0YBTF7B2RkpKBlORMhIZGwMbGKIpw3nV1D1D9oFxet7dFRsYiKzMPCQkp4pqh0DUyMoj7lWXo6GgR0YtzpYDGYxcVnkdAwGkRsQ5iMzcBa69bJQUldkHe2d4xOpwsIIIhXVgUkPj3vW57LDXkeWDAOfdlOR7FLW4cg7/jOeXP6ViiICr7WVvLfhxnr+MhhS5eK5YWlrC1tZHX0EXIMdjFmG4n7k8RbHNjA9s7O3Ica87tlI38nnOjiMRjbm5uYX1jXcY4YXkCdnbGjsq8zre2NsURxvVQZOXG8bY2jXOmw4rz2psnRTGeb66Tc5SOyXLckzIOf/8+HQh5fBWwDuJdqmMqASWgBJSAEjARAipgmciJMMNpqIBlhidVl6QETITAYQlYdCP19nbj6vXv5Uv5pU++lJLBwcF+NDTWYGNjHSnJGUhKSpMcLH7pn5lhiVQTqqrLRDAIDYmAk5MBm5vrGBkdxtT0BDLScxEbkyBi1f3KUhGY7O0dERISDjtbW8zOzWJ4ZBA2p1hOloSwsAiMjo6gpaVRBKbTp0PhKOHxu1haXBBHmIe7p8wjODhcBIL29kdobKqRn1Mss7A8gaXFRYyMDopIQGHK3z8IMzOTqKt/gJXlZTgbXODm6i5neXh0CAvzcwgMOI2kpHT4+wceyNk3NwHrQCDpoPsmoALWvlHpjkpACSgBJaAEjh4BFbCO3jk7KjNWAeuonCmdpxI4egQOS8DaC29n50EnZwM+ufA5vL19RaRqflQvwe4xMQnIyy2SkjwKWBS8HjyowMjoEGJjE5GTXSACFt0qFL66uttFFPL09MLU1ARu3rwCR0dnZGbmIjo6Hvb2DlLK19vbJS4rH28/GAyuqG94gImJMbi5eiAv/wzc3Yxli3RtVVTcwcTkODw9vJCdXSDCWmNjHbq62lBUdAHJyWmwlo50y5LjNT83i6ioeBgMLujt7UTZvVvwcPcSASwiIkbCtYeHB2UNfF3w6VB4eHgdyIWiAtaBYD22g6qAdWxPvS5cCSgBJaAEjgMBFbCOw1n+OGtUAevjcNejKoHjQOAwBCyWNzEX6t6921hdW0FoaCTS07JFYFpZWUJ7eyuuXf9B8qTy886KK4rlUCzxY9keBaH4+BSEh0c+61LIsqudnW3Zb35+Dm1tj1BdfQ+RUTEoKrwgJX10cvHY3Feys3Z3MTk5jpJbV+VnQYGnJRuLJVfc6LZizlVnZxuePN7BpUtfiZD26FGDlATGxSchLDQSdvYO0j2RJYYs1bKyYjnXNtramnG39KaUmnGNIcFhskb+YdkgS8OM5W7GErEPvamA9aGJHu/xVMA63udfV68ElIASUAJmTkAFLDM/wR9xeSpgfUT4emglYOYEDkPA2tzcQHd3B27evAx3Dy8kJaaJSGXMFNrC0PAgbt36WTJ+YmMSkZGRIyWDNbVVqK66h9jYJMnM8vX1f22uz8jIMJqbayUcPj4+Gbk5RZIlZGFh+cLZo3Orf6AXP/zwR3R2toPzoni1lxVEsYt5QnwtM7m++OJP4erqLu6rmyVXxLW1vbMtLq7cnEIkJRrLASlgUegaGxtCRUWplDLOzc/C4GyQ0sKsrHykJKfD1tb+aTaRClhm/rYyi+WpgGUWp1EXoQSUgBJQAkrg9QRUwNIr46AIqIB1UGR1XCWgBA5awNrdZWe4CdTUVOKnK99KcDadVgxTZ5A1RavllSUMDPbBztYeKclpuHDhcykFrKurQmVVuQSrJyakSv7U64Kp2UmQGVUDA70iYLHU8OTJVzuwra2tShD8dz/8EetrazLeXgfB568ER3Y49AsAQ9o5T4pRHe0tImBNTI5hanJCxC8ngwHBp8MkxJ3/pRuLIe7tHS3SDXF5eUmcZwz0Zrkkyx3j4lMQ8Jzo9SGvQHVgfUiaOpYKWHoNKAEloASUgBIwYwIqYJnxyf3IS1MB6yOfAD28EjBjAgcrYO1KqV57e4uUD1Y9KMOTJ7uwe6kLH51PdDZZnbBCWFgUPv/sG3E2tbY1oaqqXFxZFIkoKr1OwBodHUZTUx06u1oRH5eE3Fw6sGxfcWAxt4qB7D9e/n/w9fFHYcF5BAeHyr4vb3RU8c/ettf9kFlbLG28W3YTQ0N9Ehifl3NGjskOimyRt4tdbG9tS7fFsrIStLQ2SWC8q4ubiHPp6TlwdHR67y5xL89ZBSwzfqN+hKWpgPURoOshlYASUAJKQAkcFgFzE7CM7auNLZq5sRRje2cLj3ceS7emE1ZWsDllbDnNLygbm+t48vgxLCwtcdKabZxtYG1tJTfz3DgeM0IYiMvW0LtPnsiXA4baGls+n5T/59N6stza3oQFjK2nWWLCLJPn9+PP2Fqa/+XYnAfLOPhFZK9t9WGd+4M+jgpYB01Yx1cCx5fAQQpY/Pd8fX1dgtjZnc/Ozg5xcckI8A96ATg/GxigXll1TwLUC/KLkZSYKi6m6gcV0s2PAlZ4eLT8+87PIPmc2NqCpaUFFhbmJbeqsqpUXFNnin7JwNr77OG+29vbGBsbxs9Xv5fPqORkOrtSREza+/zhfjuPH8PSwkLKGLkGvu7x48fyGbS7C7CjIkPhWRbZ19clP2PZY2REjOxnzLqyls+v5eVFzC/MoaenA/V1D2T9FLA8Pb2fruXDXXsqYH04ljoSoAKWXgVKQAkoASWgBMyYgLkJWBSlZuemUVtTJRqUjY0d+vt7MDk1JjfoPt7+yEjPgbOzC4ZHBqQ8hN2eWPbBzkssAwkIOC038hyAN/wjI0N48LACQ8P9WF1ZkS8QERHRUhoSGhohXxZY4sESDX4ZOWFpibX1NfmSwK5NCfEpiIqKlZv+np5ONDbVoq+vB+vrq1LmwRKOjMy8AyvP+FiXrwpYH4u8HlcJmD+BgxSwKEzNzc3iXvkt9PR2ISMtB/HxSfDw8H4B7OPHOyJC3bl7A03NdQgKDJYwdz6YqKurxvjEKOLjUpCTUyA5UhSwWM7X0dkGWxtbuLq6YXV1RboQurl7SD5VcHC4BKfzM2VsbEQC1l1c3ODt44vGhhr09nWLcHXx4uciqPHzyFhi2IbJqXHY2tghJiZOHuIMDPSJgyomNkHmxlJBilrsnPjoUT0cHJxkXXwQ09b+SLobBgeHSakkBTYyaGlpRFXVPRHNKHaxm6Lx8/HDbSpgfTiWOpIKWHoNKAEloASUgBIwawLmJmDxKTTLI77//o/SNcrV1UNalzOrhOKThaWF3Mh7efnKU2a2E2ebdItdwNHJWTJIkpLSn7U8Z7tzdnJih6fV1eWnzimAWSMUsVJTMhEQECSuKnZ7unX7mghadnb28sXB1zcACfHJCAwMFoGrt6cLg0N9Iprxi4SVtRUMzq6IjIiW9ukBAcHytPz5EpCjegGqgHVUz5zOWwmYPoGDFLAoCNF59LCmUj47Ll38EqdPh8gDkec3uqQ2N9fR2FiHmtpKrKysoLDwHAIDgjE83I/Gxlpx93p7+eCUjY04nihY8bOED0rY7Y+OJx6Hnwl04rJcj0IT3VTra6tYXFqUByXR0XGYnppAbW01hkYGRbyiw4ufF1vbW9KlkMIZ86riE1KxubEu4hfLAN3c3OHu7ik5XhyXrjGKdLExCRJKTxGuqrpchDCDwUXG5WfQ+sa6OLHoYE5Ny0JUZAysrT/855MKWKb/fjtKM1QH1lE6WzpXJaAElIASUAJvScBcBazvvvvf8jQ6KDAEhUXn4eXpjemZKVRXl8sfTy8fnD/3KUJCIsQZNTjQi4r7pfDy8kZqShaCgoLlCwEFKYbnniv+FFFRceKYml+YRXV1BZgpEnw6FHl5Z6XEhF8ULl/5DxG3UlMzERubCGcnZzkjHOvOnevyZYXjcHx+WaF41tXdIfkm/Bmf3vOLBvc76psKWEf9DOr8lYDpEjhIAWtpaUFcSgxot7ezR17eGXHTsiT85Y3OXrqq6GhqbXskDzUSEpKlRLyrq13cuxSS+MCEm4+PP3JyCqUEkGNyP4ats0yvtq5axuJDF7qsQkLCkZ1diLDQCPns4UOPvr5ucXdxX4phFJr4WUIhKi0tWx6YODk5i1jGssOq6nuyFopWe/lY3JfzTE3NEncX3cC9vd2ouH8XPb2dWF1ZlrnaOzgiJDgceblFIqLRfXUQD1dMScD6p3/6J/zwww/4x3/8R6SlpR3Iek33XXX0Z8b3EwWsv/u7v0NZWRm6u7vfuCiLXb5KNyWgBJSAElACSuBIEDBXAYsOLD6VTkxIQ1ZWnrQUp1jEG/nbd67B28sXn332J9IqnDfk7AJVcuuqfFlhNyg6oVpbG9Ha/ggnTljifPGn8jM+GWdZYUdHq5SMLC7O48L5z+SLSEdnqwhYdHgVFpxDWFjkU5FqXp7mMxOFIlVWZj5cXFxFpGK2FksU75bekOyspKS0Z0LZkbiAfmOSKmAd9TOo81cCpkvgIAUsupPoSmIOFh9w0MF08uTJZ9mIz1PhV186f+lUWlxckO6A/MP8RQpMFI6YJcX8RG529g7w9PCSMnaOyddTBJufn5V9+fnC/+dnDUvbmTllb+8g7iruy9/Pz89hemYS21tbMiazHZ0cneVzzmAwPA1Zt5COg3QCz87OyOu48fOO4hj33fsc4vH4e2Z3LS0vSJA7v9DLHBycZA50FX/o0sE9jqYkYP3zP/8zfvzxR/z93/89MjIyhIFuR4cAr+WxsTH8wz/8A6qqqtDS0vLGyauA9UZEuoMSUAJKQAkoAdMhYM4CFm+4MzPzpfSCXwCWlhalTfjduzfg4+2LS5e+lBJDbiw7vH3nOmxsbBATnQgfH18pqWBZB0s1MjONIhg35p7wC0Fd3QPJDSksKJbMEIpgN0quSCAuw3zZfpzZInyiTuGstOymCFpBQSHGwPanIfEsdWR+ibu7B3JyziAlOUPKOI76pgLWUT+DOn8lYLoEDlLAMt1Vm+fMTEnA+rd/+zdcvnwZf/jDH5CVRYfa0f8sNs+r5vWrouhM19W//Mu/oL29HaWlpW9cvgpYb0SkOygBJaAElIASMB0CZitg/fB/5Al3Xu4ZaTfOUNz9CljRUfHyxPle+W2sra4gIjIWSYnp8mSbG0tBmGFSX/8QDY21yMzIFQFrbHwEpaU3pZsUj8un9nRZDQ72obziLm6WXMba6qqUdzzfUl26TT3ekZbrRYXnEROTIOUiR31TAeuon0GdvxIwXQIqYJnuuXnbmZmSgPXdd9/h2rVryMvLkz+hoaFvuxzd/yMSmJubw8OHD+Uczs/P49///d/fOBsVsN6ISHdQAkpACSgBJWA6BMxVwPqBApbBVYQk5n3Y2tq+p4CV9swVZSz3mJPQXuae0DXl7xeAsfFRlJUZBazcnKJnAhZzUNgmvb+/V3JE2Fb9pPXJV7I1mDfiYnA90FKNw7zyVMA6TNp6LCVwvAiogGU+59uUBKzy8nKUlJRI6eDZs2eRk5OjOVhH6FIbGhrCTz/9hJGREXno+Ld/+7dvnL0KWG9EpDsoASWgBJSAEjAdAipgvX0JIfNRJicn8LDmvgS8nz37Cfx8AzA0PPDMgfW8gMXQXQb5MiQ3JTkdBQXnRKR63oVlOlfEh5uJClgfjqWOpASUwIsEVMAynyvClASs3t5eCf++e/cuzp8/jz//8z+XrLKDCK83nzNoGithk4Ompib867/+K4KCGP2QKefwTZsKWG8ipL9XAkpACSgBJWBCBFTAelXAYinfCyHulhY4V/w7BAYaQ9zX1tbQ2dmCxqZ6LC39EuLe09uF0tIbrziw2IGwqalWuh8GB4cjv6AYvj5+OHnylIT1snU5Oxqy3JBlhyx3PKiw3MO89FTAOkzaeiwlcLwIqIBlPufblASslZUV1NXVgWHucXFxImCdPn0ap06dMh/gZrgSRjGMj4+L+Pjtt9/ik08+wWeffQYfH583rlYFrDci0h2UgBJQAkpACZgOARWwXi9gsdRvamoSt25fE5dVcfEnxu6A9g7SUepBdQWmpicRHByG/LwzIjqxMyG7Cb5cQrixsYaBgT6U3PpZulWFhUYiLj5JujuxC+H4+Cge1lRKO/PsrHz4+wfi1Ckb07lI3nEmKmC9Izh9mRJQAm8koALWGxEdmR1MScBixiXL0JiFxW52FK8+//xz+PqyKYt2JDTFi8qYS7oqge0VFRXimLt06RLS09P3dc5UwDLFs6pzUgJKQAkoASXwKwRUwHq9gBUZGYfd3Sfo7umUnKuRkSEsryxhe3sT7C/OIPaIiFikpWbC3z9I2pW3t7e8VsDizdXKyhLo0GpsrEVPbyd2treftk/fgaXlCcnGSkxIQ3R0LJycDOrA0nesElACSuA3CKiAZT6XhykJWKTKTnYsJWSWEjvasQwtPz8fAQEB5gPdjFaytLSEmpoa3L59W4Lbf//73yM5ORmurq77WqUKWPvCpDspASWgBJSAEjANAuYmYO3s7GBubhp1dQ8kZyo8PBoeHp6wtj6J9fU1cTtRaHJ2NiAhMQUO9uz2t4vZ2Wm0tT2ClbU1/HwD4efn/+w1o6PDePDwPoaHB6T7IN1R4eFRSIhPRWhouJQCrq+vYmxsFO0dj+Dj7Se/t7d3fCZEUcTa3FxHa2szGhprMDExhq2tTbkIKIbl5pxBdHScdE40l2wsdWCZxntcZ6EEzJGACljmc1ZNTcAiWbqlb926JVlYLE9LSUlBamqqiFhsCqOZWB/3+uM5YQTD1NQUWlpaxHm1vLyMyMhIfP311/Dy8tr3BFXA2jcq3VEJKAEloASUwMcnYG4CFm9qjGLRhtxgUrhinhT/zt9R4Nre3hKRiMKTUSzijdATEZS4n5WVFU6csHrhNSz142vpytobl69nScHzY3MMvp7HfVmI4vH5+83NTTx+zLF25QLgfjY2tmJ7pxvLXDYVsMzlTOo6lIDpEXhbAYtfdvnvODvI7j082FsV/+3lAwcHB8d9lRztlwY/L+jm2djYkHH57/zHLkN78uQxVldX5HOID3n4QOZdMxf3mC4vL0mWI8fhwyFbW3v5XOVnrZXVSdjY/HZJvCkKWLyPmJubQ2NjI65fvy6CFsWRtLQ0KSd0cHCQdfF87t1j7Pe60P3ensDevR3vw3jtMouU54fiVX19PRYWFpCRkYHi4mLJveJ7er+bClj7JaX7KQEloASUgBIwAQK/CFidOHchGx4eLiYwK52CORBYXFzGzetVCAn1wl/81Tk4ONiaw7J0DUpACZgAgbcRsPjld2lpER2drbh69XuMjg69sAIvL19kZuYiIz0H/PuHcNcYH5hsi7O3t68LXp4+CAuLhJfXm0OlDwovRRm6hWvrqjE40I/ExFQEB4dK2fq7bCsry2jvaEF5+R20tTXB0dEJ54o/RWxsojxIGp8YlXWHhIT/prPYFAUs8qBYwlB3lhPS4UMxi8JJfHy8BLyHhYWJ08fR0VEeXOl2cASM1+46ZmZmMDg4iLa2NikbpDhMYbGgoAAxMTFwd3d/9mBxv7NRAWu/pHQ/JaAElIASUAImQGBPwLpzqwGhof6ws1eRwQROi1lMYWNjEz1dQ0hJC1cByyzOqC5CCZgOgf0KWBQhZmam0NnVLiXeiwtz4rCl88gCwJPdJyK20FEbFBiMiIgYBAbudZ3jHu+6GUuchocHRcgxOLvAx8cfBsPHe0jE+ayuLuHWrWtoa29BQX6xiE3sfvu2G13OXNvdspsYGxuBpYWFiFVJSWniTBoaHsDi4qKUxicmpP6my8tUBaw9JhRJ2tvbpTthT0+PuKfpvDK6tU+YTdn/214Dh7k/RWW+T3kN88/29ra44ry9vaW8k39cXN7tvaUC1mGeST2WElACSkAJKIH3JMDSudK7jbhX2vieI+nLlcCrBJ48foL0zGicv5AGWzttQ67XiBJQAh+GwP4ErF1xzDQ316O+4SEWFxdQWHgekRHRUjJoYQEp56YQU11djtGxYURGxKKgoBiurm4idL3vxi/d/MMv4CwX/xDurned04cUsOhoa2ltwuUr/4HTQSEihvn5BUjpVmtrEyqr7onAk5aWjZTkjCMtYJE32TFjaXh4WNw/nZ2d0q1wenparjEKpbodHAG+d06dOiXB7CzhDA8PR2xsLEJCQuRne3EO7zIDFbDehZq+RgkoASWgBJTARyLAJ4mLi6vyB08zmT7SVPSwZkrA0dEOBhcHfUptpudXl6UEPgaB/QhYzKBi5tW9e7dEnPLzC0RGeq6U8e3lPhnLCxfQ2dmGO6U3xCl1puiCdJelgMUxns9S5FqZI0UHCIWp1+Us8vcWFpYi4PDvdBidOGH5TBCjGMKf723GsfgaC9mHY/K1L4tdnCtzpbg/x2DOFHMTrayscfKk9RszFN8kYD2fE7mX02hch3H8PWZ88MXGJ03N9bh2/UcEB4ehML8YAQGnZZ3NjxpQRQHL2hppqVkiYDH/69eytkzdgbV3noz5mptYXV0V0YrOrL3rgL/T7eAI7AnAfF9QyLKzs5M/DNR/3/JNFbAO7rzpyEpACSgBJaAElIASUAJKQAkogWNPYD8CFkWY6elJXLv2I+bmZ6WULSUlU9xVz290zywuzqO3rxtWJ6zg4+Mn+VXdPZ2SnZWSnC6iF8sOuS9Fsc7OVilNTEhIga+vH2xs7CQcvr+/B9MzU/LFOvh0GGZnZyRzi8ekKEZxih1tp6YmjA1AALS1NWNhfk5K7yiysQyPohD33ROxKJBsbKxJ6V9LS4Osa3trGy6ubogIj5Z5sBTwtxqB/JaAtSeO9fR0oqmpFmPjo9jc2ICDoyPCQqMQH58s6+R+XD8da3dLbwgjBrdHRcRI11/WZXIMrol/jwiPkWyx1NQsuLq6v1ZsOCoC1rF/05kpABWwzPTE6rKUgBJQAkpACSgBJaAElIASUAKmQGB/AtZjEZmuX/8RAwO9kkGVnExxKELKjoydYl/NuWK+0+joMG6W/IzhkQF8+fmfIioqDk5OzlhfX0NXVztKbv+MwcF+fPMnf4mkxFTJtmKJ2f37dzE41AdPT2+kpWajr78HTU11CAoKRlJimnToq62rQm1tlYhBFJ2GhgextrqCE1Yn4OjojMT4FCQkpiIw4LQ4l7gfA9P7+rtRV1ctYfQUl3afPIGdgwP8fAMRF5eEiPAoEdromHpdqeKvCVgU19hFkLlVjY01eNTSiNWVZTx5/BgnbWzh4+2LmJgEREfFwc3dA8tLSygrK8HNWz+LOMduhiHBYYiMjJVLo6+vG11dbXiyu4vQkAhkZeYhL/+MZGRxbi9vKmCZwjvq+M5BBazje+515UpACSgBJaAElIASUAJKQAkogQMnsB8Bi8LP6uoKamqqUF5xC7293QgMDJaOg3GxSZLXRKHH2voUHBwc5f8patG5xbysW7evSmlhfn4x4uOSxEHEcsP7lWW4desqZman8Ge//y/IyMiFu7sH5uZmxZU0Mz2FiMgYxMYkorOr7RUBq6qqDJevfIvHT54gJ7sQ6WlZcHPzELcXy+8GB/tEiCo++8lTN9iOCHC371yT4OqQYOb/JMDOzgETk2OSOTUyMoSY6Hjk5RXBYHB7rdPp1wQsdtGjYMf10l0VFBQijitnJwMWFubQ0tKIgcF++Pr4oqjoPNzcPDE3N4OGxhqU3LqKoMAQ5OUWCVvLE5ayf3V1BaysraR8MDUlU4S515VF8kJRAevA3y56gN8goAKWXh5KQAkoASWgBJSAElACSkAJKAElcGAE9iNg8eAUoygs0VlUWlaC7u4OWFmfhKuL67NMpuDgcJw/96mU7dFNxHK99fVV3Cu/g+bmOhGM0tNzpARwenoCN29eQX1jjTijGF7OXC1vbx+ja+vWFexs7yA3p0hcVxSkXnZgVVffw42bV2AwGPDppa8RF5co7i5mKrGM8e7dG1hdXUZ+3llxVtH1xTEePLwvjqbcvDPw9fGTzomLzO/qaBUhycXggpycQoSHx8De3v4V9r8mYFHEY1liefltEacKi85LMLutrZ04s3p7u3DnznUpkczLO4PY2CRZe0trI366/C1CQyNRfOailD8y54rMKu6XSrA2uZlDiPuBXcg68EcnoALWRz8FOgEloASUgBJQAkpACSgBJaAElID5EtivgLVHYHJyXJxK7Jw3Nz+DpcUFEYsoSNH9VJB/ThxM4eFRCAgIkhD2xsZaNDTWwtraCtnZBSJkjY2N4G7pTYyPD0smFsvimO/EAHOKY3RXMTeq+OwlcWzV1T94tYSwthIPayrh7x+ITy5+KW4rij0UzpjFdfv2NQwM9iI8LFoEILqguD9zs9LTskWkonhF4YkC3cTEGK5d+wFr62tS5sfXGAyu+xCwziImJl5CyRm6zmPy9UVFF8QxRTca5zQ/PyuOs5HRIcnbysrKl+OrgGW+76/jtDIVsI7T2da1KgEloASUgBJQAkpACSgBJaAEDpnA2wpYdB+xg9/W9haYccWSu9LSm+joaJGyOWYzOTg4ICszH+cv/A4e7l4YHh5E86N6jI+PIiMjRwQs/p0ZURyLJYfsxpeUlI7QkHA8etSA/oFe+Pr6iwOLDiYKTy87sBoaHkiOFUvvWJLn5GR41qWVIhQD0pkhRRGK+VEsE6ysLJWOdzHRCZI19UvGFbsoLqK2rlrcUgyOz88/K6Lcy9vLDizuFxUZK2u4c/eGiGdhoZHi+uLajPlgu1jfWJdg98nJCXGhFRacE6eaCliHfNHr4Q6EgApYB4JVB1UCSkAJKAEloASUgBJQAkpACSgBEnhbAet5asaOfhuYnZ2ScPSFBXYg7BKXkYeHJ7768s8RF78i1rIAAAllSURBVJcsJXPMc6qprUJiYiqCAoNFTKJg5OjgJHlPTU314tw6HRwqji0KWyzzowjEcrrqBxWvEbAeoqu7DaeDQlFYeA4OHEsC5SFi0YMHFejqahUXFAW1iYlR3Lh5GR0drSJc2ds7vHARUJhaWl6SksW83DMyppvr/gWsmZlJ/Hz1e5nn1vY2HB0cn82HByIvcmLgfE7OGZw7dwl2tipg6TvRPAiogGUe51FXoQSUgBJQAkpACSgBJaAElIASMEkC7yNgvbygjY119Pf34Nvv/ifW19ZENGKZHjsAtrc/kvB0up58vP3AUkQKSF5evtjZ2ZJyQn+/QHh7++JRSwO8vfxEvDp9OhQWFkBVdflbCFjGboP375eKwMU8quysAhGw6JCamhqHm7sXvD19Xtc8UeYQHhYlx6b76+Xt1xxYFLCYyTU42AtHJwP8fPxxwsrqldezJDIsLBJhoRF4/PiJOrBM8p2hk3pbAipgvS0x3V8JKAEloASUgBJQAkpACSgBJaAE9k1gPwIWBRuW1THDydLyhDiImFu153baO9iTJ4+ljO5myc+SM8Uwd5YAOjsb0NPTiZslV6Qkz8nRGUvLiwgNjUCAfxBWVpcle0q6GNo7YHCoXzruMRPLw8MLu7tPXitg1ddXi/jDrn1nz3wCFxc3cWtxHux+yMD0vv4ehISEIzMjF6NjI1JWyCwu5lslJaY9LSE0lvjR9TU/Py9/Z2dCdlRkx7/9CFjRUbGYnZtBWdktUMhLTEiVckly2ish3NkxdmVkCSNLBx0dnYSrlhDu+3LVHU2YgApYJnxydGpKQAkoASWgBJSAElACSkAJKIGjTmA/AhZFlv7+Xtwrvy0h6fl5ZxAYeBo2NnbPZUgZOxVOz0xJCeHy8pIEmSclpcHZ2QXj4yPSvZBB6RRwKN7k5bLDYKiEq1PcYvdB5mpZW1nj3LlPkZKSKQ4ojvs6B9bDhxUor7gDby9ffPrpVwgKChG3F4WoyakJlJRckc6JdIGxPJF5XQ9r7kupY3JyhgS5c3wKcTs725ienpIQ9l3sijsqLCzqlTJDnu9XuxCeRWxsgtH1VVkmAfV0muXmFMraKapxDczGeviwCvMLs5KRxX20C+FRfwfp/PcIqICl14ISUAJKQAkoASWgBJSAElACSkAJHBiB/QhYzLCiKHPz5hWMjY+I+JKXfxZ+vv6wtmZIuXFbX1+TEsI7d6+Lw4g5UnRHUVSiSMVOgiUlP0v5YEJ8Mi5d+kpcWszCqqwsw73yWyJwUfS69MlXiIqKeyYuvU7AYqfCny7/P1ifPIkL5z8TtxeztzheU3M9mpvrRICiO4uB8HQ/tbU148HD+3B1dROBjOHrnCvdZe3tLbhfeVdKHCl6+fkFPnVQvYj/VQGrGLGxieLW6uhskdJFcqGLjGWQTk7OIm51dbVLd0XLEydQWFCM4OBwbG1tqQPrwK5uHfgwCaiAdZi09VhKQAkoASWgBJSAElACSkAJKIFjRmA/AhZL+FZWVqQ7YFt7swhEvj5+MLi4iltqL0iKwegsk5uemYSfbwCSU9Lh6OAsIhRdXJ2drfhff/w3cUIVFZ7HxQufIyAgCGtra5Jv9e1//A8MDPbim6//EmfOXJROfXQo0VH1WgGrugw///ydOLokHD4oREoQNzY3RCSjWyw0JBKJiSlSDkjhiQLZ/cpSEeQorInAdsoGq6srUgK4ubGBmNgEpCSnSxnhy2WSvDx+TcAyGFwwOzctYtzgQJ/kX3F8ezt7cZbNzEyJyBcYFIzMjDxxZ1HYermE0N8/UMSwrq4OVFXfky6ODJZPTkpHQMBpODk5SbfHl7ednceoKG/A/PwC/vpvPoO//6sB9Mfs8tblHiIBFbAOEbYeSgkoASWgBJSAElACSkAJKAElcNwI7EfAIhNjx8F1EX6aH9VLlhTFGgswP8q4eXr6IDU1U/KffHz8YGtrK5lZ3CjgULhiF8C5uRlkZuYhJTkTbm5uWF9n+HsvLl/5FmNjw/jmm78Sh5bB4PpMwGJnwo6OFvj6BiA6Ol4cTjU192UeFIp4PDqcWKbHboQREdHIyMhFZES0CFEs46MYRsfTzOwkah5Woba+GrMzU89KGumIys0tQmhIuHQu5Gtet5HF2tqKOK16erskTysiPEoEKZYiLizOSydFdkFk6eTm5iZsbG0RFBCMrKx8xMQkSC4YRSiWWnZ1t+P27esiduVk50uI/MmTJzE7O4Pm5npcvfa9dFWMiU7AmaKLImbRNaYC1nF7t5r2elXAMu3zo7NTAkpACSgBJaAElIASUAJKQAkcaQL7FbD2FrmxsSHlgBOTY9hYX3th7Ta2dnB384S7u4e4m57fKPrQfTQ9PYmt7S24urjByckgQs1eSDzdURsba1K6x7I7o8toV8Qzlv8tLy/LuMzPovBTW1uJmtpKeHn6ICu7QMSjne1tEbcofjEA3tHRERYWls+mQhGLLjGGzbNrIN1fDH3naygqsSsiyw5f57zaG4RjcM4U4lZXl2EwuInDi44v/o7zJSMG2dNhxfwrOqoorHl5+ci698QxzoX7kAvzuFjayDXy+HSWLS0tYHR0CFvb23By5Ot94eBAQe7VcHl1YB3pt+KRn7wKWEf+FOoClIASUAJKQAkoASWgBJSAElACpkvgbQUsU1nJ1NTkMwErKDBEQtxdXT1e2zXQVOZ80PNQAeugCev4v0VABSy9PpSAElACSkAJKAEloASUgBJQAkrgwAiogHVgaA99YBWwDh25HvA5Aipg6eWgBJSAElACSkAJKAEloASUgBJQAgdG4KgKWNPTU6ivf4D6+moJNr948XNxYP1abtWBATShgVXAMqGTcQynogLWMTzpumQloASUgBJQAkpACSgBJaAElMBhETiqAha7GjIza3x8VLKrQkLCn2VHHRY7UzuOClimdkaO13xUwDpe51tXqwSUgBJQAkpACSgBJaAElIASOFQCR1XA2oPE0HQLi186IR4qPBM7mApYJnZCjtl0VMA6Zidcl6sElIASUAJKQAkoASWgBJSAEjhMAnsC1sT4IgoKU2Dv8GL3wMOcix7r/QhQwHr4oAWrq6v467/5DP7+Hu83oL5aCbwFARWw3gKW7qoElIASUAJKQAkoASWgBJSAElACb0dgT8BqbuyDl7c7rKxPvN0AurfJENh9souZ6Xm4eTjhD//1cxWwTObMHI+J/H+PTIwExGqgOAAAAABJRU5ErkJggg==;" vertex="1" parent="1">
          <mxGeometry x="350" y="360" width="358.19" height="100" as="geometry" />
        </mxCell>
      </root>
    </mxGraphModel>
  </diagram>
</mxfile>
